<svg width="441" height="258" viewBox="0 0 441 258" fill="none" xmlns="http://www.w3.org/2000/svg">
<rect x="0.969116" y="0.844727" width="439.201" height="257.155" rx="13.3381" fill="#E5F8F4"/>
<g filter="url(#filter0_d_8030_200)">
<rect x="11.8848" y="167.753" width="135.477" height="79.419" rx="8.44326" fill="white"/>
</g>
<g clip-path="url(#clip0_8030_200)">
<rect width="123.198" height="67.8531" transform="translate(18.0242 173.536)" fill="white"/>
<path d="M148.032 178.05V167.403C148.032 167.403 149.124 173.374 148.032 178.05V190.785C148.204 191.064 148.228 191.285 148.032 191.431V247.614H10.6182V243.603C10.6182 243.603 3.13446 211.869 15.6842 211.869C23.7053 211.869 22.6499 221.579 29.1934 221.579C35.7369 221.579 34.8426 193.083 46.9242 193.083C60.0113 193.083 60.8556 207.648 68.8767 207.648C76.8978 207.648 80.2751 178.307 95.473 178.307C112.993 178.307 113.837 219.046 124.391 219.046C132.201 219.046 130.988 190.601 146.344 191.606C147.28 191.667 147.805 191.6 148.032 191.431V190.785C146.993 189.09 140.538 185.234 144.866 182.951C146.582 182.046 147.534 180.183 148.032 178.05Z" fill="#FFBF00"/>
</g>
<g filter="url(#filter1_d_8030_200)">
<rect x="12.0842" y="13.356" width="417.928" height="144.496" rx="8.44326" fill="white"/>
</g>
<path d="M27.6454 144.514L27.6454 36.6976" stroke="#FFBF00" stroke-width="8.89208" stroke-linecap="round"/>
<path d="M45.4296 144.514L45.4296 68.9314" stroke="#FFBF00" stroke-width="8.89208" stroke-linecap="round"/>
<path d="M63.2137 144.514L63.2137 32.2516" stroke="#FFBF00" stroke-width="8.89208" stroke-linecap="round"/>
<path d="M80.9978 144.514L80.9978 114.503" stroke="#FFBF00" stroke-width="8.89208" stroke-linecap="round"/>
<path d="M98.782 144.514L98.782 74.4889" stroke="#FFBF00" stroke-width="8.89208" stroke-linecap="round"/>
<path d="M116.566 144.514L116.566 50.0358" stroke="#FFBF00" stroke-width="8.89208" stroke-linecap="round"/>
<path d="M134.35 144.514L134.35 50.0358" stroke="#FFBF00" stroke-width="8.89208" stroke-linecap="round"/>
<path d="M152.134 144.514L152.134 96.7191" stroke="#FFBF00" stroke-width="8.89208" stroke-linecap="round"/>
<path d="M169.919 144.514L169.919 65.5968" stroke="#FFBF00" stroke-width="8.89208" stroke-linecap="round"/>
<path d="M187.703 144.514L187.703 36.6976" stroke="#FFBF00" stroke-width="8.89208" stroke-linecap="round"/>
<path d="M205.487 144.514L205.487 50.0358" stroke="#FFBF00" stroke-width="8.89208" stroke-linecap="round"/>
<path d="M223.271 144.514L223.271 55.5933" stroke="#FFBF00" stroke-width="8.89208" stroke-linecap="round"/>
<path d="M241.055 144.514L241.055 100.054" stroke="#FFBF00" stroke-width="8.89208" stroke-linecap="round"/>
<path d="M258.839 144.514L258.839 65.5968" stroke="#FFBF00" stroke-width="8.89208" stroke-linecap="round"/>
<path d="M276.624 144.514L276.624 50.0358" stroke="#FFBF00" stroke-width="8.89208" stroke-linecap="round"/>
<path d="M294.408 144.514L294.408 83.381" stroke="#FFBF00" stroke-width="8.89208" stroke-linecap="round"/>
<path d="M312.192 144.514L312.192 58.9277" stroke="#FFBF00" stroke-width="8.89208" stroke-linecap="round"/>
<path d="M329.976 144.514L329.976 101.165" stroke="#FFBF00" stroke-width="8.89208" stroke-linecap="round"/>
<path d="M347.76 144.514L347.76 68.9314" stroke="#FFBF00" stroke-width="8.89208" stroke-linecap="round"/>
<path d="M365.544 144.514L365.544 50.0358" stroke="#FFBF00" stroke-width="8.89208" stroke-linecap="round"/>
<path d="M383.328 144.514L383.328 100.054" stroke="#FFBF00" stroke-width="8.89208" stroke-linecap="round"/>
<path d="M401.113 144.514L401.113 36.6976" stroke="#FFBF00" stroke-width="8.89208" stroke-linecap="round"/>
<path d="M418.897 144.514L418.897 55.5933" stroke="#FFBF00" stroke-width="8.89208" stroke-linecap="round"/>
<path d="M27.6454 144.514L27.6454 55.5933" stroke="#0C2184" stroke-width="8.89208" stroke-linecap="round"/>
<path d="M45.4296 144.514L45.4296 82.2695" stroke="#0C2184" stroke-width="8.89208" stroke-linecap="round"/>
<path d="M63.2137 144.514L63.2137 52.2588" stroke="#0C2184" stroke-width="8.89208" stroke-linecap="round"/>
<path d="M80.9978 144.514L80.9978 120.061" stroke="#0C2184" stroke-width="8.89208" stroke-linecap="round"/>
<path d="M98.782 144.514L98.782 86.7156" stroke="#0C2184" stroke-width="8.89208" stroke-linecap="round"/>
<path d="M116.566 144.514L116.566 66.7084" stroke="#0C2184" stroke-width="8.89208" stroke-linecap="round"/>
<path d="M134.35 144.514L134.35 66.7084" stroke="#0C2184" stroke-width="8.89208" stroke-linecap="round"/>
<path d="M152.134 144.514L152.134 105.611" stroke="#0C2184" stroke-width="8.89208" stroke-linecap="round"/>
<path d="M169.919 144.514L169.919 80.0465" stroke="#0C2184" stroke-width="8.89208" stroke-linecap="round"/>
<path d="M187.703 144.514L187.703 55.5933" stroke="#0C2184" stroke-width="8.89208" stroke-linecap="round"/>
<path d="M205.487 144.514L205.487 66.7084" stroke="#0C2184" stroke-width="8.89208" stroke-linecap="round"/>
<path d="M223.271 144.514L223.271 71.1544" stroke="#0C2184" stroke-width="8.89208" stroke-linecap="round"/>
<path d="M241.055 144.514L241.055 107.834" stroke="#0C2184" stroke-width="8.89208" stroke-linecap="round"/>
<path d="M258.839 144.514L258.839 80.0465" stroke="#0C2184" stroke-width="8.89208" stroke-linecap="round"/>
<path d="M276.624 144.514L276.624 66.7084" stroke="#0C2184" stroke-width="8.89208" stroke-linecap="round"/>
<path d="M294.408 144.514L294.408 94.4961" stroke="#0C2184" stroke-width="8.89208" stroke-linecap="round"/>
<path d="M312.192 144.514L312.192 74.4889" stroke="#0C2184" stroke-width="8.89208" stroke-linecap="round"/>
<path d="M329.976 144.514L329.976 108.946" stroke="#0C2184" stroke-width="8.89208" stroke-linecap="round"/>
<path d="M347.76 144.514L347.76 82.2695" stroke="#0C2184" stroke-width="8.89208" stroke-linecap="round"/>
<path d="M365.544 144.514L365.544 66.7084" stroke="#0C2184" stroke-width="8.89208" stroke-linecap="round"/>
<path d="M383.328 144.514L383.328 107.834" stroke="#0C2184" stroke-width="8.89208" stroke-linecap="round"/>
<path d="M401.113 144.514L401.113 55.5933" stroke="#0C2184" stroke-width="8.89208" stroke-linecap="round"/>
<path d="M418.897 144.514L418.897 71.1544" stroke="#0C2184" stroke-width="8.89208" stroke-linecap="round"/>
<path d="M27.6454 144.514L27.6454 73.3774" stroke="#01B88E" stroke-width="8.89208" stroke-linecap="round"/>
<path d="M45.4296 144.514L45.4296 94.4961" stroke="#01B88E" stroke-width="8.89208" stroke-linecap="round"/>
<path d="M63.2137 144.514L63.2137 71.1544" stroke="#01B88E" stroke-width="8.89208" stroke-linecap="round"/>
<path d="M80.9978 144.514L80.9978 125.618" stroke="#01B88E" stroke-width="8.89208" stroke-linecap="round"/>
<path d="M98.782 144.514L98.782 98.9421" stroke="#01B88E" stroke-width="8.89208" stroke-linecap="round"/>
<path d="M116.566 144.514L116.566 82.2695" stroke="#01B88E" stroke-width="8.89208" stroke-linecap="round"/>
<path d="M134.35 144.514L134.35 82.2695" stroke="#01B88E" stroke-width="8.89208" stroke-linecap="round"/>
<path d="M152.134 144.514L152.134 113.392" stroke="#01B88E" stroke-width="8.89208" stroke-linecap="round"/>
<path d="M169.919 144.514L169.919 93.3846" stroke="#01B88E" stroke-width="8.89208" stroke-linecap="round"/>
<path d="M187.703 144.514L187.703 73.3774" stroke="#01B88E" stroke-width="8.89208" stroke-linecap="round"/>
<path d="M205.487 144.514L205.487 82.2695" stroke="#01B88E" stroke-width="8.89208" stroke-linecap="round"/>
<path d="M223.271 144.514L223.271 86.7156" stroke="#01B88E" stroke-width="8.89208" stroke-linecap="round"/>
<path d="M241.055 144.514L241.055 115.615" stroke="#01B88E" stroke-width="8.89208" stroke-linecap="round"/>
<path d="M258.839 144.514L258.839 93.3846" stroke="#01B88E" stroke-width="8.89208" stroke-linecap="round"/>
<path d="M276.624 144.514L276.624 82.2695" stroke="#01B88E" stroke-width="8.89208" stroke-linecap="round"/>
<path d="M294.408 144.514L294.408 104.5" stroke="#01B88E" stroke-width="8.89208" stroke-linecap="round"/>
<path d="M312.192 144.514L312.192 88.9386" stroke="#01B88E" stroke-width="8.89208" stroke-linecap="round"/>
<path d="M329.976 144.514L329.976 116.726" stroke="#01B88E" stroke-width="8.89208" stroke-linecap="round"/>
<path d="M347.76 144.514L347.76 94.4961" stroke="#01B88E" stroke-width="8.89208" stroke-linecap="round"/>
<path d="M365.544 144.514L365.544 82.2695" stroke="#01B88E" stroke-width="8.89208" stroke-linecap="round"/>
<path d="M383.328 144.514L383.328 115.615" stroke="#01B88E" stroke-width="8.89208" stroke-linecap="round"/>
<path d="M401.113 144.514L401.113 73.3774" stroke="#01B88E" stroke-width="8.89208" stroke-linecap="round"/>
<path d="M418.897 144.514L418.897 86.7156" stroke="#01B88E" stroke-width="8.89208" stroke-linecap="round"/>
<g filter="url(#filter2_d_8030_200)">
<rect x="153.246" y="167.726" width="135.477" height="79.419" rx="8.44326" fill="white"/>
</g>
<circle cx="220.492" cy="207.314" r="28.3435" fill="#FFDEDC"/>
<circle cx="220.492" cy="207.314" r="9.44783" fill="#F00800"/>
<path d="M195.552 211.516C193.89 211.796 192.754 213.377 193.21 214.999C194.387 219.177 196.512 223.042 199.435 226.287C203.042 230.29 207.715 233.182 212.906 234.624C218.098 236.066 223.592 235.998 228.747 234.429C233.901 232.86 238.502 229.854 242.009 225.764C245.516 221.674 247.785 216.669 248.549 211.335C249.313 206.002 248.542 200.561 246.325 195.65C244.107 190.74 240.536 186.563 236.03 183.609C232.378 181.215 228.233 179.705 223.925 179.179C222.252 178.975 220.863 180.34 220.84 182.025C220.817 183.71 222.171 185.073 223.837 185.327C226.983 185.805 230.003 186.956 232.685 188.714C236.22 191.031 239.023 194.309 240.762 198.162C242.502 202.015 243.108 206.284 242.508 210.47C241.908 214.655 240.128 218.582 237.376 221.791C234.624 225.001 231.014 227.36 226.969 228.591C222.925 229.822 218.613 229.875 214.54 228.743C210.466 227.612 206.799 225.343 203.969 222.202C201.823 219.82 200.225 217.011 199.272 213.974C198.768 212.366 197.214 211.236 195.552 211.516Z" fill="#F00800"/>
<path d="M216.455 208.424H215.708L217.256 205.64H215.655V204.999H218.043V205.568L216.455 208.424ZM219.626 208.424V207.643H217.923V207.107L219.699 204.999H220.287V207.035H220.736V207.643H220.287V208.424H219.626ZM218.734 207.035H219.626V205.978L218.734 207.035ZM222.529 208.424H221.844L224.015 204.999H224.7L222.529 208.424ZM224.551 208.463C224.287 208.463 224.062 208.369 223.875 208.183C223.692 207.996 223.6 207.773 223.6 207.512C223.6 207.249 223.692 207.025 223.875 206.842C224.062 206.655 224.287 206.562 224.551 206.562C224.811 206.562 225.035 206.655 225.221 206.842C225.408 207.025 225.501 207.249 225.501 207.512C225.501 207.773 225.408 207.996 225.221 208.183C225.035 208.369 224.811 208.463 224.551 208.463ZM224.276 207.787C224.353 207.864 224.445 207.903 224.551 207.903C224.657 207.903 224.747 207.864 224.821 207.787C224.895 207.71 224.932 207.618 224.932 207.512C224.932 207.406 224.895 207.314 224.821 207.237C224.747 207.16 224.657 207.122 224.551 207.122C224.445 207.122 224.353 207.16 224.276 207.237C224.202 207.314 224.165 207.406 224.165 207.512C224.165 207.618 224.202 207.71 224.276 207.787ZM221.994 206.861C221.73 206.861 221.505 206.768 221.318 206.581C221.135 206.395 221.043 206.171 221.043 205.911C221.043 205.647 221.135 205.423 221.318 205.24C221.505 205.054 221.73 204.96 221.994 204.96C222.254 204.96 222.478 205.054 222.664 205.24C222.851 205.423 222.944 205.647 222.944 205.911C222.944 206.171 222.851 206.395 222.664 206.581C222.478 206.768 222.254 206.861 221.994 206.861ZM221.719 206.186C221.796 206.263 221.888 206.301 221.994 206.301C222.1 206.301 222.19 206.263 222.264 206.186C222.341 206.108 222.38 206.017 222.38 205.911C222.38 205.804 222.341 205.713 222.264 205.636C222.19 205.558 222.1 205.52 221.994 205.52C221.888 205.52 221.796 205.558 221.719 205.636C221.645 205.713 221.608 205.804 221.608 205.911C221.608 206.017 221.645 206.108 221.719 206.186Z" fill="white"/>
<g filter="url(#filter3_d_8030_200)">
<rect x="294.535" y="166.642" width="135.477" height="79.419" rx="8.44326" fill="white"/>
</g>
<path d="M307.746 235.644L307.746 231.198" stroke="#0C2184" stroke-width="4.85226" stroke-linecap="round"/>
<path d="M315.686 235.644L315.686 227.864" stroke="#0C2184" stroke-width="4.85226" stroke-linecap="round"/>
<path d="M323.626 235.644L323.626 225.641" stroke="#0C2184" stroke-width="4.85226" stroke-linecap="round"/>
<path d="M331.566 235.644L331.566 223.417" stroke="#0C2184" stroke-width="4.85226" stroke-linecap="round"/>
<path d="M339.506 235.644L339.506 220.083" stroke="#0C2184" stroke-width="4.85226" stroke-linecap="round"/>
<path d="M347.446 235.644L347.446 216.748" stroke="#0C2184" stroke-width="4.85226" stroke-linecap="round"/>
<path d="M355.386 235.644L355.386 214.525" stroke="#0C2184" stroke-width="4.85226" stroke-linecap="round"/>
<path d="M363.331 235.644L363.326 211.205" stroke="#0C2184" stroke-width="4.85226" stroke-linecap="round"/>
<path d="M371.271 235.644L371.271 206.745" stroke="#0C2184" stroke-width="4.85226" stroke-linecap="round"/>
<path d="M379.211 235.644L379.211 203.41" stroke="#0C2184" stroke-width="4.85226" stroke-linecap="round"/>
<path d="M387.151 235.644L387.151 198.964" stroke="#0C2184" stroke-width="4.85226" stroke-linecap="round"/>
<path d="M395.091 235.644L395.091 194.518" stroke="#0C2184" stroke-width="4.85226" stroke-linecap="round"/>
<path d="M403.031 235.644L403.031 190.072" stroke="#0C2184" stroke-width="4.85226" stroke-linecap="round"/>
<path d="M410.971 235.644L410.971 185.626" stroke="#0C2184" stroke-width="4.85226" stroke-linecap="round"/>
<path d="M418.912 235.644L418.911 181.18" stroke="#0C2184" stroke-width="4.85226" stroke-linecap="round"/>
<path d="M306.289 221.604C305.869 221.795 305.684 222.29 305.875 222.709C306.066 223.128 306.561 223.313 306.98 223.122L306.634 222.363L306.289 221.604ZM405.559 177.304L395.971 176.379L399.964 185.144L405.559 177.304ZM306.634 222.363L306.98 223.122L399.072 181.175L398.727 180.416L398.381 179.656L306.289 221.604L306.634 222.363Z" fill="#0C2184"/>
<defs>
<filter id="filter0_d_8030_200" x="8.0853" y="165.642" width="143.076" height="87.0179" filterUnits="userSpaceOnUse" color-interpolation-filters="sRGB">
<feFlood flood-opacity="0" result="BackgroundImageFix"/>
<feColorMatrix in="SourceAlpha" type="matrix" values="0 0 0 0 0 0 0 0 0 0 0 0 0 0 0 0 0 0 127 0" result="hardAlpha"/>
<feOffset dy="1.68865"/>
<feGaussianBlur stdDeviation="1.89973"/>
<feComposite in2="hardAlpha" operator="out"/>
<feColorMatrix type="matrix" values="0 0 0 0 0 0 0 0 0 0 0 0 0 0 0 0 0 0 0.15 0"/>
<feBlend mode="normal" in2="BackgroundImageFix" result="effect1_dropShadow_8030_200"/>
<feBlend mode="normal" in="SourceGraphic" in2="effect1_dropShadow_8030_200" result="shape"/>
</filter>
<filter id="filter1_d_8030_200" x="8.28476" y="11.2451" width="425.527" height="152.095" filterUnits="userSpaceOnUse" color-interpolation-filters="sRGB">
<feFlood flood-opacity="0" result="BackgroundImageFix"/>
<feColorMatrix in="SourceAlpha" type="matrix" values="0 0 0 0 0 0 0 0 0 0 0 0 0 0 0 0 0 0 127 0" result="hardAlpha"/>
<feOffset dy="1.68865"/>
<feGaussianBlur stdDeviation="1.89973"/>
<feComposite in2="hardAlpha" operator="out"/>
<feColorMatrix type="matrix" values="0 0 0 0 0 0 0 0 0 0 0 0 0 0 0 0 0 0 0.15 0"/>
<feBlend mode="normal" in2="BackgroundImageFix" result="effect1_dropShadow_8030_200"/>
<feBlend mode="normal" in="SourceGraphic" in2="effect1_dropShadow_8030_200" result="shape"/>
</filter>
<filter id="filter2_d_8030_200" x="149.447" y="165.615" width="143.076" height="87.0179" filterUnits="userSpaceOnUse" color-interpolation-filters="sRGB">
<feFlood flood-opacity="0" result="BackgroundImageFix"/>
<feColorMatrix in="SourceAlpha" type="matrix" values="0 0 0 0 0 0 0 0 0 0 0 0 0 0 0 0 0 0 127 0" result="hardAlpha"/>
<feOffset dy="1.68865"/>
<feGaussianBlur stdDeviation="1.89973"/>
<feComposite in2="hardAlpha" operator="out"/>
<feColorMatrix type="matrix" values="0 0 0 0 0 0 0 0 0 0 0 0 0 0 0 0 0 0 0.15 0"/>
<feBlend mode="normal" in2="BackgroundImageFix" result="effect1_dropShadow_8030_200"/>
<feBlend mode="normal" in="SourceGraphic" in2="effect1_dropShadow_8030_200" result="shape"/>
</filter>
<filter id="filter3_d_8030_200" x="290.735" y="164.531" width="143.076" height="87.0179" filterUnits="userSpaceOnUse" color-interpolation-filters="sRGB">
<feFlood flood-opacity="0" result="BackgroundImageFix"/>
<feColorMatrix in="SourceAlpha" type="matrix" values="0 0 0 0 0 0 0 0 0 0 0 0 0 0 0 0 0 0 127 0" result="hardAlpha"/>
<feOffset dy="1.68865"/>
<feGaussianBlur stdDeviation="1.89973"/>
<feComposite in2="hardAlpha" operator="out"/>
<feColorMatrix type="matrix" values="0 0 0 0 0 0 0 0 0 0 0 0 0 0 0 0 0 0 0.15 0"/>
<feBlend mode="normal" in2="BackgroundImageFix" result="effect1_dropShadow_8030_200"/>
<feBlend mode="normal" in="SourceGraphic" in2="effect1_dropShadow_8030_200" result="shape"/>
</filter>
<clipPath id="clip0_8030_200">
<rect width="123.198" height="67.8531" fill="white" transform="translate(18.0242 173.536)"/>
</clipPath>
</defs>
</svg>
