<svg width="508" height="201" viewBox="0 0 508 201" fill="none" xmlns="http://www.w3.org/2000/svg">
<rect x="3" y="6.9541" width="492.321" height="184.143" fill="white"/>
<path d="M482.918 39.3939L449.672 74.9902C449.059 75.6461 448.073 75.7865 447.301 75.3275L418.777 58.3496C417.983 57.8768 416.964 58.0412 416.359 58.7397L388.373 91.0407C387.852 91.6421 387.012 91.8571 386.267 91.5801L351.783 78.775C351.052 78.5037 350.23 78.704 349.706 79.281L328.531 102.598C327.831 103.368 326.643 103.436 325.86 102.75L315.13 93.3468C314.317 92.6335 313.073 92.7391 312.391 93.5793L292.096 118.585" stroke="#9FE4D4" stroke-width="3.81644" stroke-linecap="round"/>
<path d="M267.542 147.685V175.832C267.542 186.371 276.085 194.914 286.624 194.914H482.918C493.457 194.914 502 186.371 502 175.832V25.0822C502 14.5434 493.457 6 482.918 6H286.624C276.085 6 267.542 14.5434 267.542 25.0822V61.5587C267.542 68.8136 265.887 75.9729 262.704 82.492L245.158 118.422C241.975 124.941 240.32 132.1 240.32 139.355V179.429C240.32 187.981 232.457 194.914 222.758 194.914H23.4247C13.7253 194.914 5.86233 187.981 5.86233 179.429V21.4848C5.86233 12.9328 13.7253 6 23.4247 6H222.758C232.457 6 240.32 12.9328 240.32 21.4848V53.2285" stroke="url(#paint0_linear_8040_128)" stroke-width="10.4952" stroke-linecap="round"/>
<path d="M35.4695 150.843L203.962 150.843" stroke="#FFDEDC" stroke-width="7.63289" stroke-linecap="round"/>
<path d="M35.4695 150.843L137.67 150.843" stroke="#F00800" stroke-width="7.63289" stroke-linecap="round"/>
<path d="M35.4695 130.63L203.962 130.63" stroke="#FFDEDC" stroke-width="7.63289" stroke-linecap="round"/>
<path d="M35.4695 130.63L156.75 130.63" stroke="#F00800" stroke-width="7.63289" stroke-linecap="round"/>
<path d="M35.4695 110.417L203.962 110.417" stroke="#FFDEDC" stroke-width="7.63289" stroke-linecap="round"/>
<path d="M35.4695 110.417L113.687 110.417" stroke="#F00800" stroke-width="7.63289" stroke-linecap="round"/>
<path d="M299.123 35.7147L467.616 35.7147" stroke="#E6F9F5" stroke-width="7.63289" stroke-linecap="round"/>
<path d="M299.123 35.7147L377.34 35.7146" stroke="#9FE4D4" stroke-width="7.63289" stroke-linecap="round"/>
<path d="M36.3939 77.5583L62.2377 34.5752C62.9921 33.3204 64.8203 33.3476 65.537 34.6244L77.1848 55.3749C77.7905 56.4538 79.2471 56.68 80.1513 55.8353L91.0203 45.6834C91.5665 45.1733 92.3602 45.0289 93.051 45.3141L140.567 64.9307C141.19 65.1879 141.902 65.0973 142.441 64.6923L160.82 50.8804C161.46 50.3996 162.332 50.3691 163.004 50.8042L204.317 77.5583" stroke="#F00801" stroke-width="3.81644" stroke-linecap="round"/>
<circle cx="381.5" cy="99.5" r="34.5" fill="#01B88E"/>
<circle cx="381.5" cy="99.5" r="26.1147" stroke="white" stroke-opacity="0.49" stroke-width="4.77055"/>
<path d="M372.241 101.338L380.701 111.906L392.277 89.0076" stroke="white" stroke-opacity="0.49" stroke-width="4.77055" stroke-linecap="round" stroke-linejoin="round"/>
<circle cx="314.942" cy="163.147" r="18.4558" fill="#E6F9F5"/>
<path d="M309.037 165V162.027H308.262L308.779 161.329H309.746V165H309.037ZM311.789 165.057C311.386 165.057 311.056 164.921 310.801 164.648C310.546 164.376 310.419 164.028 310.419 163.604V162.715C310.419 162.294 310.546 161.948 310.801 161.675C311.056 161.403 311.386 161.267 311.789 161.267C312.189 161.267 312.516 161.403 312.771 161.675C313.026 161.948 313.154 162.294 313.154 162.715V163.604C313.154 164.028 313.026 164.376 312.771 164.648C312.516 164.921 312.189 165.057 311.789 165.057ZM311.308 164.157C311.429 164.292 311.589 164.359 311.789 164.359C311.989 164.359 312.147 164.292 312.265 164.157C312.385 164.023 312.446 163.838 312.446 163.604V162.715C312.446 162.48 312.385 162.297 312.265 162.166C312.147 162.032 311.989 161.965 311.789 161.965C311.589 161.965 311.429 162.032 311.308 162.166C311.187 162.297 311.127 162.48 311.127 162.715V163.604C311.127 163.838 311.187 164.023 311.308 164.157ZM315.051 165.057C314.648 165.057 314.318 164.921 314.063 164.648C313.808 164.376 313.681 164.028 313.681 163.604V162.715C313.681 162.294 313.808 161.948 314.063 161.675C314.318 161.403 314.648 161.267 315.051 161.267C315.451 161.267 315.778 161.403 316.033 161.675C316.288 161.948 316.416 162.294 316.416 162.715V163.604C316.416 164.028 316.288 164.376 316.033 164.648C315.778 164.921 315.451 165.057 315.051 165.057ZM314.57 164.157C314.691 164.292 314.851 164.359 315.051 164.359C315.251 164.359 315.409 164.292 315.527 164.157C315.647 164.023 315.708 163.838 315.708 163.604V162.715C315.708 162.48 315.647 162.297 315.527 162.166C315.409 162.032 315.251 161.965 315.051 161.965C314.851 161.965 314.691 162.032 314.57 162.166C314.449 162.297 314.389 162.48 314.389 162.715V163.604C314.389 163.838 314.449 164.023 314.57 164.157ZM318.416 165H317.682L320.009 161.329H320.743L318.416 165ZM320.583 165.041C320.3 165.041 320.059 164.941 319.859 164.741C319.662 164.542 319.564 164.302 319.564 164.023C319.564 163.74 319.662 163.501 319.859 163.304C320.059 163.104 320.3 163.004 320.583 163.004C320.862 163.004 321.102 163.104 321.302 163.304C321.501 163.501 321.601 163.74 321.601 164.023C321.601 164.302 321.501 164.542 321.302 164.741C321.102 164.941 320.862 165.041 320.583 165.041ZM320.288 164.317C320.371 164.4 320.469 164.442 320.583 164.442C320.697 164.442 320.793 164.4 320.872 164.317C320.952 164.235 320.991 164.136 320.991 164.023C320.991 163.909 320.952 163.811 320.872 163.728C320.793 163.645 320.697 163.604 320.583 163.604C320.469 163.604 320.371 163.645 320.288 163.728C320.209 163.811 320.169 163.909 320.169 164.023C320.169 164.136 320.209 164.235 320.288 164.317ZM317.842 163.325C317.56 163.325 317.318 163.225 317.118 163.025C316.922 162.825 316.824 162.585 316.824 162.306C316.824 162.023 316.922 161.784 317.118 161.587C317.318 161.387 317.56 161.287 317.842 161.287C318.122 161.287 318.361 161.387 318.561 161.587C318.761 161.784 318.861 162.023 318.861 162.306C318.861 162.585 318.761 162.825 318.561 163.025C318.361 163.225 318.122 163.325 317.842 163.325ZM317.548 162.601C317.63 162.684 317.729 162.725 317.842 162.725C317.956 162.725 318.053 162.684 318.132 162.601C318.215 162.518 318.256 162.42 318.256 162.306C318.256 162.192 318.215 162.094 318.132 162.011C318.053 161.929 317.956 161.887 317.842 161.887C317.729 161.887 317.63 161.929 317.548 162.011C317.468 162.094 317.429 162.192 317.429 162.306C317.429 162.42 317.468 162.518 317.548 162.601Z" fill="#9FE4D4"/>
<path d="M314.691 146.68C314.674 145.583 313.768 144.696 312.679 144.831C308.538 145.342 304.67 147.246 301.73 150.261C298.325 153.753 296.44 158.45 296.487 163.327C296.535 168.204 298.511 172.864 301.983 176.288C305.456 179.712 310.143 181.623 315.02 181.603C319.897 181.582 324.567 179.632 328.011 176.179C331.455 172.725 333.391 168.049 333.398 163.172C333.405 158.295 331.48 153.614 328.046 150.151C325.08 147.161 321.197 145.289 317.052 144.812C315.962 144.687 315.063 145.581 315.056 146.679C315.048 147.776 315.936 148.658 317.022 148.815C320.115 149.264 322.999 150.705 325.225 152.949C327.919 155.666 329.429 159.34 329.424 163.167C329.419 166.994 327.899 170.663 325.197 173.373C322.495 176.083 318.83 177.613 315.003 177.629C311.176 177.645 307.499 176.146 304.774 173.458C302.049 170.771 300.498 167.115 300.461 163.288C300.424 159.462 301.903 155.776 304.575 153.036C306.781 150.773 309.654 149.308 312.742 148.833C313.827 148.667 314.707 147.778 314.691 146.68Z" fill="#9FE4D4"/>
<circle cx="361.521" cy="163.147" r="18.4558" fill="#E6F9F5"/>
<path d="M356.037 165V162.027H355.262L355.779 161.329H356.746V165H356.037ZM358.789 165.057C358.386 165.057 358.056 164.921 357.801 164.648C357.546 164.376 357.419 164.028 357.419 163.604V162.715C357.419 162.294 357.546 161.948 357.801 161.675C358.056 161.403 358.386 161.267 358.789 161.267C359.189 161.267 359.516 161.403 359.771 161.675C360.026 161.948 360.154 162.294 360.154 162.715V163.604C360.154 164.028 360.026 164.376 359.771 164.648C359.516 164.921 359.189 165.057 358.789 165.057ZM358.308 164.157C358.429 164.292 358.589 164.359 358.789 164.359C358.989 164.359 359.147 164.292 359.265 164.157C359.385 164.023 359.446 163.838 359.446 163.604V162.715C359.446 162.48 359.385 162.297 359.265 162.166C359.147 162.032 358.989 161.965 358.789 161.965C358.589 161.965 358.429 162.032 358.308 162.166C358.187 162.297 358.127 162.48 358.127 162.715V163.604C358.127 163.838 358.187 164.023 358.308 164.157ZM362.051 165.057C361.648 165.057 361.318 164.921 361.063 164.648C360.808 164.376 360.681 164.028 360.681 163.604V162.715C360.681 162.294 360.808 161.948 361.063 161.675C361.318 161.403 361.648 161.267 362.051 161.267C362.451 161.267 362.778 161.403 363.033 161.675C363.288 161.948 363.416 162.294 363.416 162.715V163.604C363.416 164.028 363.288 164.376 363.033 164.648C362.778 164.921 362.451 165.057 362.051 165.057ZM361.57 164.157C361.691 164.292 361.851 164.359 362.051 164.359C362.251 164.359 362.409 164.292 362.527 164.157C362.647 164.023 362.708 163.838 362.708 163.604V162.715C362.708 162.48 362.647 162.297 362.527 162.166C362.409 162.032 362.251 161.965 362.051 161.965C361.851 161.965 361.691 162.032 361.57 162.166C361.449 162.297 361.389 162.48 361.389 162.715V163.604C361.389 163.838 361.449 164.023 361.57 164.157ZM365.416 165H364.682L367.009 161.329H367.743L365.416 165ZM367.583 165.041C367.3 165.041 367.059 164.941 366.859 164.741C366.662 164.542 366.564 164.302 366.564 164.023C366.564 163.74 366.662 163.501 366.859 163.304C367.059 163.104 367.3 163.004 367.583 163.004C367.862 163.004 368.102 163.104 368.302 163.304C368.501 163.501 368.601 163.74 368.601 164.023C368.601 164.302 368.501 164.542 368.302 164.741C368.102 164.941 367.862 165.041 367.583 165.041ZM367.288 164.317C367.371 164.4 367.469 164.442 367.583 164.442C367.697 164.442 367.793 164.4 367.872 164.317C367.952 164.235 367.991 164.136 367.991 164.023C367.991 163.909 367.952 163.811 367.872 163.728C367.793 163.645 367.697 163.604 367.583 163.604C367.469 163.604 367.371 163.645 367.288 163.728C367.209 163.811 367.169 163.909 367.169 164.023C367.169 164.136 367.209 164.235 367.288 164.317ZM364.842 163.325C364.56 163.325 364.318 163.225 364.118 163.025C363.922 162.825 363.824 162.585 363.824 162.306C363.824 162.023 363.922 161.784 364.118 161.587C364.318 161.387 364.56 161.287 364.842 161.287C365.122 161.287 365.361 161.387 365.561 161.587C365.761 161.784 365.861 162.023 365.861 162.306C365.861 162.585 365.761 162.825 365.561 163.025C365.361 163.225 365.122 163.325 364.842 163.325ZM364.548 162.601C364.63 162.684 364.729 162.725 364.842 162.725C364.956 162.725 365.053 162.684 365.132 162.601C365.215 162.518 365.256 162.42 365.256 162.306C365.256 162.192 365.215 162.094 365.132 162.011C365.053 161.929 364.956 161.887 364.842 161.887C364.729 161.887 364.63 161.929 364.548 162.011C364.468 162.094 364.429 162.192 364.429 162.306C364.429 162.42 364.468 162.518 364.548 162.601Z" fill="#9FE4D4"/>
<path d="M361.269 146.68C361.253 145.583 360.347 144.696 359.258 144.831C355.117 145.342 351.249 147.246 348.309 150.261C344.903 153.753 343.019 158.45 343.066 163.327C343.114 168.204 345.09 172.864 348.562 176.288C352.035 179.712 356.722 181.623 361.599 181.603C366.476 181.582 371.146 179.632 374.59 176.179C378.034 172.725 379.97 168.049 379.977 163.172C379.983 158.295 378.059 153.614 374.625 150.151C371.659 147.161 367.776 145.289 363.631 144.812C362.54 144.687 361.642 145.581 361.634 146.679C361.627 147.776 362.515 148.658 363.601 148.815C366.693 149.264 369.578 150.705 371.803 152.949C374.498 155.666 376.008 159.34 376.003 163.167C375.998 166.994 374.478 170.663 371.776 173.373C369.074 176.083 365.409 177.613 361.582 177.629C357.755 177.645 354.077 176.146 351.352 173.458C348.628 170.771 347.077 167.115 347.04 163.288C347.003 159.462 348.482 155.776 351.154 153.036C353.36 150.773 356.232 149.308 359.321 148.833C360.406 148.667 361.286 147.778 361.269 146.68Z" fill="#9FE4D4"/>
<circle cx="408.1" cy="163.147" r="18.4558" fill="#E6F9F5"/>
<path d="M402.037 165V162.027H401.262L401.779 161.329H402.746V165H402.037ZM404.789 165.057C404.386 165.057 404.056 164.921 403.801 164.648C403.546 164.376 403.419 164.028 403.419 163.604V162.715C403.419 162.294 403.546 161.948 403.801 161.675C404.056 161.403 404.386 161.267 404.789 161.267C405.189 161.267 405.516 161.403 405.771 161.675C406.026 161.948 406.154 162.294 406.154 162.715V163.604C406.154 164.028 406.026 164.376 405.771 164.648C405.516 164.921 405.189 165.057 404.789 165.057ZM404.308 164.157C404.429 164.292 404.589 164.359 404.789 164.359C404.989 164.359 405.147 164.292 405.265 164.157C405.385 164.023 405.446 163.838 405.446 163.604V162.715C405.446 162.48 405.385 162.297 405.265 162.166C405.147 162.032 404.989 161.965 404.789 161.965C404.589 161.965 404.429 162.032 404.308 162.166C404.187 162.297 404.127 162.48 404.127 162.715V163.604C404.127 163.838 404.187 164.023 404.308 164.157ZM408.051 165.057C407.648 165.057 407.318 164.921 407.063 164.648C406.808 164.376 406.681 164.028 406.681 163.604V162.715C406.681 162.294 406.808 161.948 407.063 161.675C407.318 161.403 407.648 161.267 408.051 161.267C408.451 161.267 408.778 161.403 409.033 161.675C409.288 161.948 409.416 162.294 409.416 162.715V163.604C409.416 164.028 409.288 164.376 409.033 164.648C408.778 164.921 408.451 165.057 408.051 165.057ZM407.57 164.157C407.691 164.292 407.851 164.359 408.051 164.359C408.251 164.359 408.409 164.292 408.527 164.157C408.647 164.023 408.708 163.838 408.708 163.604V162.715C408.708 162.48 408.647 162.297 408.527 162.166C408.409 162.032 408.251 161.965 408.051 161.965C407.851 161.965 407.691 162.032 407.57 162.166C407.449 162.297 407.389 162.48 407.389 162.715V163.604C407.389 163.838 407.449 164.023 407.57 164.157ZM411.416 165H410.682L413.009 161.329H413.743L411.416 165ZM413.583 165.041C413.3 165.041 413.059 164.941 412.859 164.741C412.662 164.542 412.564 164.302 412.564 164.023C412.564 163.74 412.662 163.501 412.859 163.304C413.059 163.104 413.3 163.004 413.583 163.004C413.862 163.004 414.102 163.104 414.302 163.304C414.501 163.501 414.601 163.74 414.601 164.023C414.601 164.302 414.501 164.542 414.302 164.741C414.102 164.941 413.862 165.041 413.583 165.041ZM413.288 164.317C413.371 164.4 413.469 164.442 413.583 164.442C413.697 164.442 413.793 164.4 413.872 164.317C413.952 164.235 413.991 164.136 413.991 164.023C413.991 163.909 413.952 163.811 413.872 163.728C413.793 163.645 413.697 163.604 413.583 163.604C413.469 163.604 413.371 163.645 413.288 163.728C413.209 163.811 413.169 163.909 413.169 164.023C413.169 164.136 413.209 164.235 413.288 164.317ZM410.842 163.325C410.56 163.325 410.318 163.225 410.118 163.025C409.922 162.825 409.824 162.585 409.824 162.306C409.824 162.023 409.922 161.784 410.118 161.587C410.318 161.387 410.56 161.287 410.842 161.287C411.122 161.287 411.361 161.387 411.561 161.587C411.761 161.784 411.861 162.023 411.861 162.306C411.861 162.585 411.761 162.825 411.561 163.025C411.361 163.225 411.122 163.325 410.842 163.325ZM410.548 162.601C410.63 162.684 410.729 162.725 410.842 162.725C410.956 162.725 411.053 162.684 411.132 162.601C411.215 162.518 411.256 162.42 411.256 162.306C411.256 162.192 411.215 162.094 411.132 162.011C411.053 161.929 410.956 161.887 410.842 161.887C410.729 161.887 410.63 161.929 410.548 162.011C410.468 162.094 410.429 162.192 410.429 162.306C410.429 162.42 410.468 162.518 410.548 162.601Z" fill="#9FE4D4"/>
<path d="M407.848 146.68C407.831 145.583 406.925 144.696 405.836 144.831C401.696 145.342 397.828 147.246 394.887 150.261C391.482 153.753 389.597 158.45 389.645 163.327C389.693 168.204 391.668 172.864 395.141 176.288C398.614 179.712 403.3 181.623 408.177 181.603C413.054 181.582 417.725 179.632 421.169 176.179C424.612 172.725 426.549 168.049 426.556 163.172C426.562 158.295 424.638 153.614 421.204 150.151C418.238 147.161 414.354 145.289 410.209 144.812C409.119 144.687 408.221 145.581 408.213 146.679C408.206 147.776 409.093 148.658 410.179 148.815C413.272 149.264 416.157 150.705 418.382 152.949C421.077 155.666 422.587 159.34 422.582 163.167C422.577 166.994 421.057 170.663 418.355 173.373C415.653 176.083 411.988 177.613 408.161 177.629C404.334 177.645 400.656 176.146 397.931 173.458C395.206 170.771 393.656 167.115 393.619 163.288C393.581 159.462 395.06 155.776 397.732 153.036C399.939 150.773 402.811 149.308 405.9 148.833C406.985 148.667 407.865 147.778 407.848 146.68Z" fill="#9FE4D4"/>
<circle cx="454.679" cy="163.147" r="18.4558" fill="#E6F9F5"/>
<path d="M449.037 165V162.027H448.262L448.779 161.329H449.746V165H449.037ZM451.789 165.057C451.386 165.057 451.056 164.921 450.801 164.648C450.546 164.376 450.419 164.028 450.419 163.604V162.715C450.419 162.294 450.546 161.948 450.801 161.675C451.056 161.403 451.386 161.267 451.789 161.267C452.189 161.267 452.516 161.403 452.771 161.675C453.026 161.948 453.154 162.294 453.154 162.715V163.604C453.154 164.028 453.026 164.376 452.771 164.648C452.516 164.921 452.189 165.057 451.789 165.057ZM451.308 164.157C451.429 164.292 451.589 164.359 451.789 164.359C451.989 164.359 452.147 164.292 452.265 164.157C452.385 164.023 452.446 163.838 452.446 163.604V162.715C452.446 162.48 452.385 162.297 452.265 162.166C452.147 162.032 451.989 161.965 451.789 161.965C451.589 161.965 451.429 162.032 451.308 162.166C451.187 162.297 451.127 162.48 451.127 162.715V163.604C451.127 163.838 451.187 164.023 451.308 164.157ZM455.051 165.057C454.648 165.057 454.318 164.921 454.063 164.648C453.808 164.376 453.681 164.028 453.681 163.604V162.715C453.681 162.294 453.808 161.948 454.063 161.675C454.318 161.403 454.648 161.267 455.051 161.267C455.451 161.267 455.778 161.403 456.033 161.675C456.288 161.948 456.416 162.294 456.416 162.715V163.604C456.416 164.028 456.288 164.376 456.033 164.648C455.778 164.921 455.451 165.057 455.051 165.057ZM454.57 164.157C454.691 164.292 454.851 164.359 455.051 164.359C455.251 164.359 455.409 164.292 455.527 164.157C455.647 164.023 455.708 163.838 455.708 163.604V162.715C455.708 162.48 455.647 162.297 455.527 162.166C455.409 162.032 455.251 161.965 455.051 161.965C454.851 161.965 454.691 162.032 454.57 162.166C454.449 162.297 454.389 162.48 454.389 162.715V163.604C454.389 163.838 454.449 164.023 454.57 164.157ZM458.416 165H457.682L460.009 161.329H460.743L458.416 165ZM460.583 165.041C460.3 165.041 460.059 164.941 459.859 164.741C459.662 164.542 459.564 164.302 459.564 164.023C459.564 163.74 459.662 163.501 459.859 163.304C460.059 163.104 460.3 163.004 460.583 163.004C460.862 163.004 461.102 163.104 461.302 163.304C461.501 163.501 461.601 163.74 461.601 164.023C461.601 164.302 461.501 164.542 461.302 164.741C461.102 164.941 460.862 165.041 460.583 165.041ZM460.288 164.317C460.371 164.4 460.469 164.442 460.583 164.442C460.697 164.442 460.793 164.4 460.872 164.317C460.952 164.235 460.991 164.136 460.991 164.023C460.991 163.909 460.952 163.811 460.872 163.728C460.793 163.645 460.697 163.604 460.583 163.604C460.469 163.604 460.371 163.645 460.288 163.728C460.209 163.811 460.169 163.909 460.169 164.023C460.169 164.136 460.209 164.235 460.288 164.317ZM457.842 163.325C457.56 163.325 457.318 163.225 457.118 163.025C456.922 162.825 456.824 162.585 456.824 162.306C456.824 162.023 456.922 161.784 457.118 161.587C457.318 161.387 457.56 161.287 457.842 161.287C458.122 161.287 458.361 161.387 458.561 161.587C458.761 161.784 458.861 162.023 458.861 162.306C458.861 162.585 458.761 162.825 458.561 163.025C458.361 163.225 458.122 163.325 457.842 163.325ZM457.548 162.601C457.63 162.684 457.729 162.725 457.842 162.725C457.956 162.725 458.053 162.684 458.132 162.601C458.215 162.518 458.256 162.42 458.256 162.306C458.256 162.192 458.215 162.094 458.132 162.011C458.053 161.929 457.956 161.887 457.842 161.887C457.729 161.887 457.63 161.929 457.548 162.011C457.468 162.094 457.429 162.192 457.429 162.306C457.429 162.42 457.468 162.518 457.548 162.601Z" fill="#9FE4D4"/>
<path d="M454.427 146.68C454.41 145.583 453.504 144.696 452.415 144.831C448.274 145.342 444.407 147.246 441.466 150.261C438.061 153.753 436.176 158.45 436.224 163.327C436.271 168.204 438.247 172.864 441.72 176.288C445.192 179.712 449.879 181.623 454.756 181.603C459.633 181.582 464.304 179.632 467.748 176.179C471.191 172.725 473.128 168.049 473.134 163.172C473.141 158.295 471.217 153.614 467.782 150.151C464.817 147.161 460.933 145.289 456.788 144.812C455.698 144.687 454.8 145.581 454.792 146.679C454.785 147.776 455.672 148.658 456.758 148.815C459.851 149.264 462.735 150.705 464.961 152.949C467.656 155.666 469.166 159.34 469.161 163.167C469.155 166.994 467.636 170.663 464.934 173.373C462.231 176.083 458.566 177.613 454.74 177.629C450.913 177.645 447.235 176.146 444.51 173.458C441.785 170.771 440.235 167.115 440.198 163.288C440.16 159.462 441.639 155.776 444.311 153.036C446.518 150.773 449.39 149.308 452.479 148.833C453.563 148.667 454.444 147.778 454.427 146.68Z" fill="#9FE4D4"/>
<defs>
<linearGradient id="paint0_linear_8040_128" x1="277.201" y1="100.457" x2="238.125" y2="100.457" gradientUnits="userSpaceOnUse">
<stop stop-color="#01B88E"/>
<stop offset="1" stop-color="#F00800"/>
</linearGradient>
</defs>
</svg>
