<svg width="77" height="77" viewBox="0 0 77 77" fill="none" xmlns="http://www.w3.org/2000/svg">
<circle cx="38.5" cy="38.5" r="38.5" fill="white"/>
<path d="M76.9637 44.6067C77.1927 39.3386 76.3371 34.0796 74.4499 29.1558C72.5627 24.232 69.6842 19.7484 65.9929 15.9829C62.3015 12.2174 57.876 9.25036 52.9907 7.26568C48.1054 5.281 42.8645 4.32102 37.5929 4.44526C32.3213 4.5695 27.1314 5.77531 22.345 7.98794C17.5587 10.2006 13.2778 13.3728 9.76795 17.308C6.25808 21.2432 3.594 25.8575 1.94088 30.8647C0.287769 35.872 -0.319133 41.1654 0.157806 46.4168L5.43826 45.9373C5.02701 41.409 5.55033 36.8446 6.97577 32.527C8.40122 28.2093 10.6984 24.2306 13.7249 20.8373C16.7514 17.444 20.4427 14.7087 24.5699 12.8008C28.6971 10.8929 33.1722 9.85311 37.7178 9.74598C42.2634 9.63884 46.7825 10.4666 50.995 12.178C55.2075 13.8893 59.0236 16.4478 62.2066 19.6947C65.3896 22.9416 67.8717 26.8077 69.4989 31.0534C71.1262 35.2991 71.864 39.8338 71.6665 44.3764L76.9637 44.6067Z" fill="black" fill-opacity="0.08"/>
<path d="M11.0804 40.7838C10.649 40.7838 10.2781 40.6548 9.96769 40.3968C9.6613 40.1347 9.50004 39.7779 9.48392 39.3264H10.3063C10.3265 39.532 10.4051 39.6913 10.5422 39.8041C10.6833 39.913 10.8627 39.9674 11.0804 39.9674C11.2739 39.9674 11.4291 39.919 11.546 39.8223C11.6669 39.7255 11.7294 39.5945 11.7334 39.4292C11.7334 39.2478 11.671 39.1067 11.546 39.0059C11.421 38.9051 11.2497 38.8547 11.032 38.8547H10.6692V38.1775H10.9957C11.1932 38.1775 11.3444 38.1311 11.4492 38.0384C11.554 37.9457 11.6085 37.8207 11.6125 37.6635C11.6165 37.5183 11.5641 37.3994 11.4553 37.3067C11.3505 37.214 11.2174 37.1676 11.0562 37.1676C10.8627 37.1676 10.7034 37.224 10.5784 37.3369C10.4535 37.4498 10.393 37.5949 10.397 37.7723H9.56253C9.56253 37.345 9.71169 37.0023 10.01 36.7443C10.3083 36.4823 10.6571 36.3512 11.0562 36.3512C11.4835 36.3512 11.8221 36.4722 12.0721 36.7141C12.322 36.9519 12.447 37.2462 12.447 37.5969C12.447 37.7945 12.4006 37.9759 12.3079 38.1412C12.2152 38.3024 12.1023 38.4294 11.9693 38.5221C12.1426 38.6028 12.2858 38.7278 12.3986 38.8971C12.5115 39.0664 12.5679 39.2659 12.5679 39.4957C12.5679 39.8747 12.4309 40.1851 12.1567 40.427C11.8826 40.6648 11.5238 40.7838 11.0804 40.7838Z" fill="#01B88E"/>
<path d="M14.7382 40.7838C14.2665 40.7838 13.8815 40.6245 13.5832 40.306C13.2849 39.9876 13.1357 39.5804 13.1357 39.0845V38.0444C13.1357 37.5526 13.2849 37.1474 13.5832 36.829C13.8815 36.5105 14.2665 36.3512 14.7382 36.3512C15.2058 36.3512 15.5888 36.5105 15.8872 36.829C16.1855 37.1474 16.3346 37.5526 16.3346 38.0444V39.0845C16.3346 39.5804 16.1855 39.9876 15.8872 40.306C15.5888 40.6245 15.2058 40.7838 14.7382 40.7838ZM14.1758 39.7316C14.3169 39.8888 14.5044 39.9674 14.7382 39.9674C14.972 39.9674 15.1575 39.8888 15.2945 39.7316C15.4356 39.5743 15.5062 39.3587 15.5062 39.0845V38.0444C15.5062 37.7703 15.4356 37.5566 15.2945 37.4034C15.1575 37.2462 14.972 37.1676 14.7382 37.1676C14.5044 37.1676 14.3169 37.2462 14.1758 37.4034C14.0347 37.5566 13.9642 37.7703 13.9642 38.0444V39.0845C13.9642 39.3587 14.0347 39.5743 14.1758 39.7316Z" fill="#01B88E"/>
<path d="M22.2269 40.7173V39.1027C22.2269 38.6229 22.0697 38.3831 21.7553 38.3831C21.5739 38.3831 21.4287 38.4516 21.3199 38.5887C21.2151 38.7257 21.1586 38.9293 21.1506 39.1994V40.7173H20.3221V39.1027C20.3221 38.6229 20.1649 38.3831 19.8504 38.3831C19.665 38.3831 19.5178 38.4556 19.409 38.6008C19.3001 38.7459 19.2457 38.9596 19.2457 39.2418V40.7173H18.4173V37.6937H19.2457V38.0384C19.4352 37.7642 19.7033 37.6272 20.05 37.6272C20.4733 37.6272 20.7857 37.8126 20.9873 38.1835C21.076 38.0102 21.209 37.8751 21.3864 37.7784C21.5638 37.6776 21.7432 37.6272 21.9246 37.6272C22.2834 37.6272 22.5616 37.7461 22.7591 37.984C22.9566 38.2218 23.0554 38.5484 23.0554 38.9636V40.7173H22.2269Z" fill="#01B88E"/>
<path d="M24.226 37.1978C24.0849 37.1978 23.9619 37.1474 23.8571 37.0467C23.7523 36.9418 23.6999 36.8169 23.6999 36.6717C23.6999 36.5266 23.7523 36.4036 23.8571 36.3029C23.9619 36.198 24.0849 36.1456 24.226 36.1456C24.3752 36.1456 24.5001 36.198 24.6009 36.3029C24.7057 36.4036 24.7581 36.5266 24.7581 36.6717C24.7581 36.8169 24.7057 36.9418 24.6009 37.0467C24.5001 37.1474 24.3752 37.1978 24.226 37.1978ZM23.8148 40.7173V37.6937H24.6432V40.7173H23.8148Z" fill="#01B88E"/>
<path d="M25.4388 40.7173V37.6937H26.2672V38.0384C26.4527 37.7642 26.7409 37.6272 27.132 37.6272C27.4948 37.6272 27.779 37.7481 27.9846 37.99C28.1942 38.2279 28.2991 38.5463 28.2991 38.9454V40.7173H27.4706V39.0845C27.4706 38.8628 27.4242 38.6915 27.3315 38.5705C27.2388 38.4456 27.1078 38.3831 26.9385 38.3831C26.7369 38.3831 26.5736 38.4556 26.4486 38.6008C26.3277 38.7459 26.2672 38.9596 26.2672 39.2418V40.7173H25.4388Z" fill="#01B88E"/>
<path d="M38.5 73C43.0306 73 47.5168 72.1076 51.7026 70.3738C55.8883 68.6401 59.6916 66.0988 62.8952 62.8952C66.0988 59.6916 68.6401 55.8883 70.3738 51.7026C72.1076 47.5168 73 43.0306 73 38.5C73 33.9694 72.1076 29.4832 70.3738 25.2974C68.6401 21.1117 66.0988 17.3084 62.8952 14.1048C59.6916 10.9012 55.8883 8.35994 51.7026 6.62616C47.5168 4.89237 43.0306 4 38.5 4V38.5V73Z" fill="#FFDB7F"/>
<circle cx="38.5" cy="38.5" r="36" stroke="#01B88E" stroke-width="5"/>
<path d="M38.5 20.7617V38.4999L59.8665 50.5942" stroke="#01B88E" stroke-width="3"/>
<circle cx="38.5" cy="38.5" r="4.5" fill="white" stroke="#01B88E" stroke-width="3.49738"/>
</svg>
