<svg width="331" height="229" viewBox="0 0 331 229" fill="none" xmlns="http://www.w3.org/2000/svg">
<rect width="330.186" height="200.597" rx="20" fill="#446F9D"/>
<rect x="11.5391" y="10.6511" width="306.221" height="179.294" rx="12" fill="url(#paint0_linear_8131_33765)"/>
<path d="M69.2323 155.329L260.953 155.329" stroke="#DCE6F0" stroke-width="8" stroke-linecap="round"/>
<path d="M69.2328 155.329L185.522 155.329" stroke="#446F9D" stroke-width="8" stroke-linecap="round"/>
<path d="M141.128 198.822H189.502L199.709 226.337H130.477L141.128 198.822Z" fill="#446F9D"/>
<path d="M165.093 198.822H189.502L199.709 226.337H165.093L165.093 198.822Z" fill="black" fill-opacity="0.1"/>
<rect x="97.6357" y="218.349" width="134.027" height="10.6512" rx="5.32558" fill="#446F9D"/>
<path d="M165 218.349H226.337C229.278 218.349 231.663 220.733 231.663 223.674C231.663 226.616 229.278 229 226.337 229H165V218.349Z" fill="black" fill-opacity="0.09"/>
<path d="M188.534 95.1527C190.637 96.1453 193.177 95.25 193.872 93.0312C195.746 87.0483 195.748 80.5976 193.82 74.561C191.462 67.1798 186.394 60.9667 179.637 57.1743C172.88 53.3818 164.936 52.292 157.408 54.1245C149.879 55.957 143.325 60.5755 139.066 67.0491C134.808 73.5226 133.162 81.3698 134.46 89.0089C135.759 96.6479 139.905 103.511 146.063 108.214C152.221 112.917 159.933 115.111 167.644 114.353C173.951 113.734 179.873 111.177 184.625 107.088C186.388 105.571 186.204 102.884 184.46 101.346C182.716 99.8083 180.075 100.015 178.236 101.437C174.955 103.976 171.004 105.562 166.821 105.973C161.23 106.523 155.638 104.932 151.174 101.522C146.709 98.1122 143.703 93.1365 142.761 87.598C141.82 82.0595 143.013 76.3701 146.101 71.6766C149.188 66.9831 153.94 63.6345 159.399 62.3059C164.857 60.9773 170.617 61.7675 175.516 64.5171C180.415 67.2667 184.089 71.7713 185.799 77.1229C187.078 81.1275 187.185 85.3835 186.153 89.401C185.575 91.6531 186.431 94.1601 188.534 95.1527Z" fill="url(#paint1_linear_8131_33765)"/>
<defs>
<linearGradient id="paint0_linear_8131_33765" x1="-7.21398" y1="-4.99459" x2="310.769" y2="224.197" gradientUnits="userSpaceOnUse">
<stop stop-color="#FAFEFF"/>
<stop offset="1" stop-color="#F9F5FE"/>
</linearGradient>
<linearGradient id="paint1_linear_8131_33765" x1="188.171" y1="67.4574" x2="175.301" y2="111.837" gradientUnits="userSpaceOnUse">
<stop stop-color="#A9C2DC"/>
<stop offset="1" stop-color="#DBE5F0"/>
</linearGradient>
</defs>
</svg>
