<svg width="569" height="342" viewBox="0 0 569 342" fill="none" xmlns="http://www.w3.org/2000/svg">
<path d="M236.348 48.2312C272.362 28.5476 312.458 0.000245895 353.5 0C435 -0.000488279 413.815 56.9842 476.5 78.5C517.5 92.5729 569 106.5 569 146C569 196.81 529.856 200.271 483.347 220.731C418.963 249.055 363.965 163.404 304.347 200.731C258.261 229.586 281.957 292.629 236.348 322.231C152.69 376.528 28.3179 308.515 6.34747 211.231C-12.6515 127.105 10.4687 58.6077 95 41.5C142.209 31.9456 194.082 71.3315 236.348 48.2312Z" fill="url(#paint0_linear_8063_272)"/>
<defs>
<linearGradient id="paint0_linear_8063_272" x1="136.5" y1="-36.0004" x2="442" y2="266.5" gradientUnits="userSpaceOnUse">
<stop stop-color="#ECEFFF"/>
<stop offset="1" stop-color="white"/>
</linearGradient>
</defs>
</svg>
