<svg width="294" height="242" viewBox="0 0 294 242" fill="none" xmlns="http://www.w3.org/2000/svg">
<path d="M255 241V209" stroke="url(#paint0_linear_8240_2525)" stroke-width="2" stroke-linecap="round" stroke-linejoin="round"/>
<path d="M43 233L75 233" stroke="url(#paint1_linear_8240_2525)" stroke-width="2" stroke-linecap="round" stroke-linejoin="round"/>
<path d="M230 3L230 35" stroke="url(#paint2_linear_8240_2525)" stroke-width="2" stroke-linecap="round" stroke-linejoin="round"/>
<path d="M293 115L261 115" stroke="url(#paint3_linear_8240_2525)" stroke-width="2" stroke-linecap="round" stroke-linejoin="round"/>
<path d="M292 205L260 205" stroke="url(#paint4_linear_8240_2525)" stroke-width="2" stroke-linecap="round" stroke-linejoin="round"/>
<path d="M170.5 141.827H218.142M218.142 141.827V123C218.142 118.582 221.724 115 226.142 115H255H292.5M218.142 141.827V167C218.142 171.418 221.724 175 226.142 175H247C251.418 175 255 178.582 255 183V205M118.699 119.996H68.7638M68.7638 119.996V147.524C68.7638 151.942 65.1821 155.524 60.7638 155.524H32C27.5817 155.524 24 159.106 24 163.524V189.339M68.7638 119.996V101.03C68.7638 96.6112 65.1821 93.0295 60.7638 93.0295H49.0221C44.6038 93.0295 41.0221 89.4478 41.0221 85.0295V63C41.0221 58.5817 37.4404 55 33.0221 55H12M111.87 195V171.229C111.87 166.811 115.452 163.229 119.87 163.229H135.88C140.298 163.229 143.88 159.647 143.88 155.229V151.244M111.87 195H157M111.87 195H91.2749C86.8566 195 83.2749 198.582 83.2749 203V225C83.2749 229.418 79.6931 233 75.2749 233H44.8633M123.82 85.3247V51.0812M123.82 51.0812H102C97.5817 51.0812 94 47.4995 94 43.0812V19.4059M123.82 51.0812H135.88C140.298 51.0812 143.88 47.4995 143.88 43.0812V9C143.88 4.58172 147.462 1 151.88 1H178.023M230 14.5V35.3764C230 39.7947 226.418 43.3764 222 43.3764H203.095C198.677 43.3764 195.095 46.9581 195.095 51.3764V67.0517C195.095 71.4699 191.514 75.0517 187.095 75.0517H172.366C167.948 75.0517 164.366 78.6334 164.366 83.0517V87.4649M255 205H287M255 205V233" stroke="#22B5C9" stroke-width="2" stroke-linecap="round" stroke-linejoin="round"/>
<path d="M170.5 141.827H218.142M218.142 141.827V123C218.142 118.582 221.724 115 226.142 115H255H292.5M218.142 141.827V167C218.142 171.418 221.724 175 226.142 175H247C251.418 175 255 178.582 255 183V205M118.699 119.996H68.7638M68.7638 119.996V147.524C68.7638 151.942 65.1821 155.524 60.7638 155.524H32C27.5817 155.524 24 159.106 24 163.524V189.339M68.7638 119.996V101.03C68.7638 96.6112 65.1821 93.0295 60.7638 93.0295H49.0221C44.6038 93.0295 41.0221 89.4478 41.0221 85.0295V63C41.0221 58.5817 37.4404 55 33.0221 55H12M111.87 195V171.229C111.87 166.811 115.452 163.229 119.87 163.229H135.88C140.298 163.229 143.88 159.647 143.88 155.229V151.244M111.87 195H157M111.87 195H91.2749C86.8566 195 83.2749 198.582 83.2749 203V225C83.2749 229.418 79.6931 233 75.2749 233H44.8633M123.82 85.3247V51.0812M123.82 51.0812H102C97.5817 51.0812 94 47.4995 94 43.0812V19.4059M123.82 51.0812H135.88C140.298 51.0812 143.88 47.4995 143.88 43.0812V9C143.88 4.58172 147.462 1 151.88 1H178.023M230 14.5V35.3764C230 39.7947 226.418 43.3764 222 43.3764H203.095C198.677 43.3764 195.095 46.9581 195.095 51.3764V67.0517C195.095 71.4699 191.514 75.0517 187.095 75.0517H172.366C167.948 75.0517 164.366 78.6334 164.366 83.0517V87.4649M255 205H287M255 205V233" stroke="#22B5C9" stroke-width="2" stroke-linecap="round" stroke-linejoin="round"/>
<path d="M24 195V163" stroke="url(#paint5_linear_8240_2525)" stroke-width="2" stroke-linecap="round" stroke-linejoin="round"/>
<path d="M24 195V163" stroke="url(#paint6_linear_8240_2525)" stroke-width="2" stroke-linecap="round" stroke-linejoin="round"/>
<path d="M1 55L33 55" stroke="url(#paint7_linear_8240_2525)" stroke-width="2" stroke-linecap="round" stroke-linejoin="round"/>
<path d="M1 55L33 55" stroke="url(#paint8_linear_8240_2525)" stroke-width="2" stroke-linecap="round" stroke-linejoin="round"/>
<path d="M94 10L94 42" stroke="url(#paint9_linear_8240_2525)" stroke-width="2" stroke-linecap="round" stroke-linejoin="round"/>
<path d="M94 10L94 42" stroke="url(#paint10_linear_8240_2525)" stroke-width="2" stroke-linecap="round" stroke-linejoin="round"/>
<path d="M157 195L125 195" stroke="url(#paint11_linear_8240_2525)" stroke-width="2" stroke-linecap="round" stroke-linejoin="round"/>
<path d="M184 0.999999L152 1" stroke="url(#paint12_linear_8240_2525)" stroke-width="2" stroke-linecap="round" stroke-linejoin="round"/>
<path d="M184 0.999999L152 1" stroke="url(#paint13_linear_8240_2525)" stroke-width="2" stroke-linecap="round" stroke-linejoin="round"/>
<path d="M120.229 78.1696C126.084 76.1564 133.881 75.048 142.184 75.048C150.486 75.048 158.283 76.1564 164.138 78.1696C169.707 80.0843 172.901 82.6496 172.901 85.2068C172.901 87.764 169.707 90.3294 164.138 92.2441C158.284 94.2572 150.486 95.3657 142.184 95.3657C133.881 95.3657 126.085 94.2572 120.229 92.2441C114.66 90.3294 111.467 87.764 111.467 85.2068C111.467 82.6496 114.66 80.0843 120.229 78.1696Z" fill="#9EEFFC"/>
<path d="M172.901 143.54C172.901 146.098 169.707 148.663 164.138 150.577C158.284 152.591 150.486 153.699 142.184 153.699C133.881 153.699 126.085 152.591 120.229 150.577C114.66 148.663 111.467 146.097 111.467 143.54V133.734C112.966 135.632 115.811 137.346 119.831 138.728C125.811 140.784 133.749 141.916 142.184 141.916C150.618 141.916 158.557 140.784 164.536 138.728C168.557 137.346 171.401 135.632 172.901 133.734V143.54Z" fill="#22B5C9"/>
<path d="M172.901 130.531C172.901 133.089 169.707 135.654 164.138 137.569C158.282 139.582 150.486 140.69 142.184 140.69C133.882 140.69 126.085 139.582 120.23 137.569C114.661 135.654 111.467 133.089 111.467 130.531C111.467 128.83 112.873 127.404 114.182 126.445C115.672 127.409 117.564 128.295 119.831 129.075C125.811 131.13 133.749 132.263 142.184 132.263C150.618 132.263 158.557 131.13 164.536 129.075C166.804 128.295 168.696 127.41 170.185 126.445C171.494 127.404 172.901 128.83 172.901 130.531Z" fill="#9EEFFC"/>
<path d="M172.901 120.878C172.901 123.436 169.707 126 164.138 127.915C158.284 129.928 150.486 131.037 142.184 131.037C133.881 131.037 126.085 129.928 120.229 127.915C114.66 126 111.467 123.435 111.467 120.878V111.072C112.966 112.97 115.811 114.684 119.831 116.066C125.811 118.122 133.749 119.254 142.184 119.254C150.618 119.254 158.557 118.122 164.536 116.066C168.557 114.684 171.401 112.969 172.901 111.072V120.878Z" fill="#22B5C9"/>
<path d="M172.901 107.869C172.901 110.427 169.707 112.992 164.138 114.906C158.283 116.92 150.486 118.028 142.184 118.028C133.882 118.028 126.085 116.92 120.23 114.906C114.661 112.992 111.467 110.426 111.467 107.869C111.467 106.168 112.873 104.741 114.182 103.783C115.672 104.747 117.564 105.633 119.831 106.412C125.811 108.468 133.749 109.6 142.184 109.6C150.618 109.6 158.557 108.468 164.536 106.412C166.804 105.633 168.696 104.748 170.185 103.783C171.494 104.741 172.901 106.168 172.901 107.869Z" fill="#9EEFFC"/>
<path d="M164.138 105.253C158.284 107.266 150.486 108.374 142.184 108.374C133.881 108.374 126.085 107.266 120.229 105.253C114.66 103.338 111.467 100.773 111.467 98.2155V88.4092C112.966 90.3076 115.811 92.0212 119.831 93.4034C125.811 95.4593 133.749 96.5915 142.184 96.5915C150.618 96.5915 158.557 95.4593 164.536 93.4034C168.557 92.0212 171.401 90.3069 172.901 88.4092V98.2155C172.901 100.773 169.707 103.338 164.138 105.253Z" fill="#22B5C9"/>
<path d="M120.229 78.1696C126.084 76.1564 133.881 75.048 142.184 75.048C150.486 75.048 158.283 76.1564 164.138 78.1696C169.707 80.0843 172.901 82.6496 172.901 85.2068C172.901 87.764 169.707 90.3294 164.138 92.2441C158.284 94.2572 150.486 95.3657 142.184 95.3657C133.881 95.3657 126.085 94.2572 120.229 92.2441C114.66 90.3294 111.467 87.764 111.467 85.2068C111.467 82.6496 114.66 80.0843 120.229 78.1696Z" fill="#9EEFFC"/>
<path d="M172.901 143.54C172.901 146.098 169.707 148.663 164.138 150.577C158.284 152.591 150.486 153.699 142.184 153.699C133.881 153.699 126.085 152.591 120.229 150.577C114.66 148.663 111.467 146.097 111.467 143.54V133.734C112.966 135.632 115.811 137.346 119.831 138.728C125.811 140.784 133.749 141.916 142.184 141.916C150.618 141.916 158.557 140.784 164.536 138.728C168.557 137.346 171.401 135.632 172.901 133.734V143.54Z" fill="#22B5C9"/>
<path d="M172.901 130.531C172.901 133.089 169.707 135.654 164.138 137.569C158.282 139.582 150.486 140.69 142.184 140.69C133.882 140.69 126.085 139.582 120.23 137.569C114.661 135.654 111.467 133.089 111.467 130.531C111.467 128.83 112.873 127.404 114.182 126.445C115.672 127.409 117.564 128.295 119.831 129.075C125.811 131.13 133.749 132.263 142.184 132.263C150.618 132.263 158.557 131.13 164.536 129.075C166.804 128.295 168.696 127.41 170.185 126.445C171.494 127.404 172.901 128.83 172.901 130.531Z" fill="#9EEFFC"/>
<path d="M172.901 120.878C172.901 123.436 169.707 126 164.138 127.915C158.284 129.928 150.486 131.037 142.184 131.037C133.881 131.037 126.085 129.928 120.229 127.915C114.66 126 111.467 123.435 111.467 120.878V111.072C112.966 112.97 115.811 114.684 119.831 116.066C125.811 118.122 133.749 119.254 142.184 119.254C150.618 119.254 158.557 118.122 164.536 116.066C168.557 114.684 171.401 112.969 172.901 111.072V120.878Z" fill="#22B5C9"/>
<path d="M172.901 107.869C172.901 110.427 169.707 112.992 164.138 114.906C158.283 116.92 150.486 118.028 142.184 118.028C133.882 118.028 126.085 116.92 120.23 114.906C114.661 112.992 111.467 110.426 111.467 107.869C111.467 106.168 112.873 104.741 114.182 103.783C115.672 104.747 117.564 105.633 119.831 106.412C125.811 108.468 133.749 109.6 142.184 109.6C150.618 109.6 158.557 108.468 164.536 106.412C166.804 105.633 168.696 104.748 170.185 103.783C171.494 104.741 172.901 106.168 172.901 107.869Z" fill="#9EEFFC"/>
<path d="M164.138 105.253C158.284 107.266 150.486 108.374 142.184 108.374C133.881 108.374 126.085 107.266 120.229 105.253C114.66 103.338 111.467 100.773 111.467 98.2155V88.4092C112.966 90.3076 115.811 92.0212 119.831 93.4034C125.811 95.4593 133.749 96.5916 142.184 96.5916C150.618 96.5916 158.557 95.4593 164.536 93.4034C168.557 92.0212 171.401 90.3069 172.901 88.4092V98.2155C172.901 100.773 169.707 103.338 164.138 105.253Z" fill="#22B5C9"/>
<defs>
<linearGradient id="paint0_linear_8240_2525" x1="255.5" y1="209" x2="255.5" y2="241" gradientUnits="userSpaceOnUse">
<stop stop-color="#22B5C9"/>
<stop offset="1" stop-color="white"/>
</linearGradient>
<linearGradient id="paint1_linear_8240_2525" x1="75" y1="233.5" x2="43" y2="233.5" gradientUnits="userSpaceOnUse">
<stop stop-color="#22B5C9"/>
<stop offset="1" stop-color="white"/>
</linearGradient>
<linearGradient id="paint2_linear_8240_2525" x1="229.5" y1="35" x2="229.5" y2="3" gradientUnits="userSpaceOnUse">
<stop stop-color="#22B5C9"/>
<stop offset="1" stop-color="white"/>
</linearGradient>
<linearGradient id="paint3_linear_8240_2525" x1="261" y1="115.5" x2="293" y2="115.5" gradientUnits="userSpaceOnUse">
<stop stop-color="#22B5C9"/>
<stop offset="1" stop-color="white"/>
</linearGradient>
<linearGradient id="paint4_linear_8240_2525" x1="260" y1="205.5" x2="292" y2="205.5" gradientUnits="userSpaceOnUse">
<stop stop-color="#22B5C9"/>
<stop offset="1" stop-color="white"/>
</linearGradient>
<linearGradient id="paint5_linear_8240_2525" x1="24.5" y1="163" x2="24.5" y2="195" gradientUnits="userSpaceOnUse">
<stop stop-color="#22B5C9"/>
<stop offset="1" stop-color="white"/>
</linearGradient>
<linearGradient id="paint6_linear_8240_2525" x1="24.5" y1="163" x2="24.5" y2="195" gradientUnits="userSpaceOnUse">
<stop stop-color="#22B5C9"/>
<stop offset="1" stop-color="white"/>
</linearGradient>
<linearGradient id="paint7_linear_8240_2525" x1="33" y1="55.5" x2="1" y2="55.5" gradientUnits="userSpaceOnUse">
<stop stop-color="#22B5C9"/>
<stop offset="1" stop-color="white"/>
</linearGradient>
<linearGradient id="paint8_linear_8240_2525" x1="33" y1="55.5" x2="1" y2="55.5" gradientUnits="userSpaceOnUse">
<stop stop-color="#22B5C9"/>
<stop offset="1" stop-color="white"/>
</linearGradient>
<linearGradient id="paint9_linear_8240_2525" x1="93.5" y1="42" x2="93.5" y2="10" gradientUnits="userSpaceOnUse">
<stop stop-color="#22B5C9"/>
<stop offset="1" stop-color="white"/>
</linearGradient>
<linearGradient id="paint10_linear_8240_2525" x1="93.5" y1="42" x2="93.5" y2="10" gradientUnits="userSpaceOnUse">
<stop stop-color="#22B5C9"/>
<stop offset="1" stop-color="white"/>
</linearGradient>
<linearGradient id="paint11_linear_8240_2525" x1="125" y1="195.5" x2="157" y2="195.5" gradientUnits="userSpaceOnUse">
<stop stop-color="#22B5C9"/>
<stop offset="1" stop-color="white"/>
</linearGradient>
<linearGradient id="paint12_linear_8240_2525" x1="152" y1="1.5" x2="184" y2="1.5" gradientUnits="userSpaceOnUse">
<stop stop-color="#22B5C9"/>
<stop offset="1" stop-color="white"/>
</linearGradient>
<linearGradient id="paint13_linear_8240_2525" x1="152" y1="1.5" x2="184" y2="1.5" gradientUnits="userSpaceOnUse">
<stop stop-color="#22B5C9"/>
<stop offset="1" stop-color="white"/>
</linearGradient>
</defs>
</svg>
