<svg width="251" height="166" viewBox="0 0 251 166" fill="none" xmlns="http://www.w3.org/2000/svg">
<path d="M223.247 89.8528C217.71 87.5332 217.119 78.9495 222.468 73.2546C224.484 76.7521 227.461 84.9683 223.247 89.8528C225.792 87.7991 228.421 85.8966 231.128 84.1844C232.782 83.1385 234.465 82.1635 236.176 81.2685C234.379 79.5498 232.042 75.1759 237.061 71.4297C237.88 73.3935 238.849 78.1105 236.176 81.2685C238.065 80.2799 239.989 79.3889 241.945 78.6073C242.597 77.0444 245.121 74.0667 249.999 74.6597C249.279 77.02 246.66 81.114 241.945 78.6073C239.989 79.3889 238.065 80.2799 236.176 81.2685C234.465 82.1635 232.782 83.1385 231.128 84.1844C242.402 84.3272 245.225 90.6395 245.227 93.7778C235.916 94.578 231.948 87.7156 231.128 84.1844C228.421 85.8966 225.792 87.7991 223.247 89.8528C220.764 91.8556 218.362 94.0023 216.044 96.2566C227.274 91.8737 233.784 99.5137 235.636 103.882C223.963 106.592 217.711 99.9275 216.044 96.2566C213.252 98.9713 210.584 101.842 208.047 104.806C205.865 107.355 203.781 109.973 201.799 112.619C211.956 106.406 219.057 113.022 221.338 117.107C211.589 120.922 204.25 115.705 201.799 112.619C199.069 116.266 196.535 119.966 194.212 123.614C192.303 126.613 190.535 129.577 188.919 132.447C193.477 128.768 204.147 123.36 210.368 131.162C207.742 133.501 199.775 137.032 188.919 132.447C190.535 129.577 192.303 126.613 194.212 123.614C182.694 121.676 183.402 109.068 185.195 103.006C189 104.086 196.129 109.72 194.212 123.614C196.535 119.966 199.069 116.266 201.799 112.619C203.781 109.973 205.865 107.355 208.047 104.806C202.952 102.492 194.901 94.962 203.454 83.3495C206.423 84.7416 211.498 90.9818 208.047 104.806C210.584 101.842 213.252 98.9713 216.044 96.2566C218.362 94.0023 220.764 91.8556 223.247 89.8528Z" fill="#01B850"/>
<path d="M179.915 150.9C181.946 145.861 184.987 139.43 188.919 132.447M246.677 76.9549C245.08 77.4323 243.502 77.9851 241.945 78.6073M223.247 89.8528C217.71 87.5332 217.119 78.9495 222.468 73.2546C224.484 76.7521 227.461 84.9683 223.247 89.8528ZM223.247 89.8528C225.792 87.7991 228.421 85.8966 231.128 84.1844M223.247 89.8528C220.764 91.8556 218.362 94.0023 216.044 96.2566M241.945 78.6073C242.597 77.0444 245.121 74.0667 249.999 74.6597C249.279 77.02 246.66 81.114 241.945 78.6073ZM241.945 78.6073C239.989 79.3889 238.065 80.2799 236.176 81.2685M236.176 81.2685C234.379 79.5498 232.042 75.1759 237.061 71.4297C237.88 73.3935 238.849 78.1105 236.176 81.2685ZM236.176 81.2685C234.465 82.1635 232.782 83.1385 231.128 84.1844M231.128 84.1844C231.948 87.7156 235.916 94.578 245.227 93.7778C245.225 90.6395 242.402 84.3272 231.128 84.1844ZM216.044 96.2566C217.711 99.9275 223.963 106.592 235.636 103.882C233.784 99.5137 227.274 91.8737 216.044 96.2566ZM216.044 96.2566C213.252 98.9713 210.584 101.842 208.047 104.806M208.047 104.806C202.952 102.492 194.901 94.962 203.454 83.3495C206.423 84.7416 211.498 90.9818 208.047 104.806ZM208.047 104.806C205.865 107.355 203.781 109.973 201.799 112.619M201.799 112.619C204.25 115.705 211.589 120.922 221.338 117.107C219.057 113.022 211.956 106.406 201.799 112.619ZM201.799 112.619C199.069 116.266 196.535 119.965 194.212 123.614M194.212 123.614C182.694 121.676 183.402 109.068 185.195 103.006C189 104.086 196.129 109.72 194.212 123.614ZM194.212 123.614C192.303 126.613 190.535 129.577 188.919 132.447M188.919 132.447C193.477 128.768 204.147 123.36 210.368 131.162C207.742 133.501 199.775 137.032 188.919 132.447Z" stroke="#01B850"/>
<path d="M194.277 83.0131C171.898 91.8802 155.747 129.988 148.885 157.434H194.277C198.499 140.544 199.555 97.7917 194.277 83.0131Z" fill="#01B88E"/>
<path d="M179.498 115.737C170.209 125.027 164.016 147.406 162.08 157.434H166.831C164.297 143.922 174.22 124.006 179.498 115.737Z" fill="#131613" fill-opacity="0.21"/>
<path d="M163.664 157.962C156.486 130.516 134.283 116.265 124.078 112.57C124.078 129.46 131.116 149.869 134.634 157.962H163.664Z" fill="#078164"/>
<path d="M137.801 132.627C146.246 138.116 153.284 151.804 155.747 157.962H152.052C149.941 146.561 141.672 136.322 137.801 132.627Z" fill="#131613" fill-opacity="0.21"/>
<path d="M208.527 113.626C190.054 126.293 177.915 133.683 169.47 157.962H195.86C205.994 146.983 208.527 123.83 208.527 113.626Z" fill="#177761"/>
<path d="M177.915 157.962C180.87 149.517 190.406 138.961 194.804 134.738C183.826 147.828 180.73 155.675 180.554 157.962H177.915Z" fill="#131613" fill-opacity="0.21"/>
<path d="M139.262 39.2728C128.599 37.6325 123.833 22.8701 130.68 10.5682C135.717 15.8079 144.485 28.8844 139.262 39.2728C142.806 34.5672 146.562 30.0896 150.537 25.9109C152.965 23.3581 155.475 20.9169 158.069 18.6033C154.189 16.3806 148.209 9.74806 155.33 1C157.612 4.07861 161.355 11.9093 158.069 18.6033C160.933 16.048 163.9 13.6484 166.97 11.4262C167.427 8.40644 170.531 2.09351 179.295 1C179.067 5.44486 176.282 13.7529 166.97 11.4262C163.9 13.6484 160.933 16.048 158.069 18.6033C155.475 20.9169 152.965 23.3581 150.537 25.9109C170.257 21.2357 177.926 31.0483 179.295 36.539C163.41 42.0065 153.504 31.7317 150.537 25.9109C146.562 30.0896 142.806 34.5672 139.262 39.2728C135.806 43.8618 132.551 48.6678 129.491 53.625C147.164 41.0497 161.841 51.5747 166.97 58.4091C147.798 68.2507 133.996 59.3204 129.491 53.625C125.806 59.5948 122.403 65.784 119.27 72.078C116.575 77.4923 114.079 82.9841 111.777 88.4806C126.781 73.1715 142.043 81.6462 147.798 87.7971C132.461 98.7322 117.393 92.8091 111.777 88.4806C108.604 96.0533 105.796 103.635 103.334 111.034C101.31 117.116 99.5186 123.074 97.9497 128.804C104.295 120.375 120.547 106.25 134.789 117.185C131.227 122.425 118.874 132.084 97.9497 128.804C99.5186 123.074 101.31 117.116 103.334 111.034C82.4075 112.674 78.1533 90.3031 78.642 78.9124C85.7452 79.1402 100.628 85.8835 103.334 111.034C105.796 103.635 108.604 96.0533 111.777 88.4806C114.079 82.9841 116.575 77.4923 119.27 72.078C109.379 70.2555 92.0624 60.5962 101.922 36.539C107.705 37.6781 119.27 46.3806 119.27 72.078C122.403 65.784 125.806 59.5948 129.491 53.625C132.551 48.6678 135.806 43.8618 139.262 39.2728Z" fill="#01B850"/>
<path d="M90.2821 165.026C91.6308 155.322 94.1336 142.74 97.9497 128.804M174.502 6.46754C171.925 8.00069 169.414 9.65723 166.97 11.4262M139.262 39.2728C128.599 37.6325 123.833 22.8701 130.68 10.5682C135.717 15.8079 144.485 28.8844 139.262 39.2728ZM139.262 39.2728C142.806 34.5672 146.562 30.0896 150.537 25.9109M139.262 39.2728C135.806 43.8618 132.551 48.6678 129.491 53.625M166.97 11.4262C167.427 8.40644 170.531 2.09351 179.295 1C179.067 5.44486 176.282 13.7529 166.97 11.4262ZM166.97 11.4262C163.9 13.6484 160.933 16.048 158.069 18.6033M158.069 18.6033C154.189 16.3806 148.209 9.74806 155.33 1C157.612 4.07861 161.355 11.9093 158.069 18.6033ZM158.069 18.6033C155.475 20.9169 152.965 23.3581 150.537 25.9109M150.537 25.9109C153.504 31.7317 163.41 42.0065 179.295 36.539C177.926 31.0483 170.257 21.2357 150.537 25.9109ZM129.491 53.625C133.996 59.3204 147.798 68.2507 166.97 58.4091C161.841 51.5747 147.164 41.0497 129.491 53.625ZM129.491 53.625C125.806 59.5948 122.403 65.784 119.27 72.078M119.27 72.078C109.379 70.2555 92.0624 60.5962 101.922 36.539C107.705 37.6781 119.27 46.3806 119.27 72.078ZM119.27 72.078C116.575 77.4923 114.079 82.9841 111.777 88.4806M111.777 88.4806C117.393 92.8091 132.461 98.7322 147.798 87.7971C142.043 81.6462 126.781 73.1715 111.777 88.4806ZM111.777 88.4806C108.604 96.0533 105.796 103.635 103.334 111.034M103.334 111.034C82.4075 112.674 78.1533 90.3031 78.642 78.9124C85.7452 79.1402 100.628 85.8835 103.334 111.034ZM103.334 111.034C101.31 117.116 99.5186 123.074 97.9497 128.804M97.9497 128.804C104.295 120.375 120.547 106.25 134.789 117.185C131.227 122.425 118.874 132.084 97.9497 128.804Z" stroke="#01B850"/>
<path d="M131.185 110.621C97.288 125.069 71.1705 145.074 65.6135 165.635H121.183C139.854 145.63 135.631 120.624 131.185 110.621Z" fill="#FFBF00"/>
<path d="M89.5083 165.635C93.5093 162.079 106.364 145.26 112.292 137.295C108.587 145.445 100.511 162.523 97.8437 165.635H89.5083Z" fill="#131613" fill-opacity="0.21"/>
<path d="M107.838 65.9609C33.1729 75.8774 5.27067 136.689 0.65271 165.855H75.0262C81.4428 165.855 99.5744 99.2589 107.838 65.9609Z" fill="#01B88E"/>
<path d="M69.193 102.418C47.0268 117.001 27.8744 150.785 21.069 165.855H29.8188C35.0687 146.022 58.2557 115.3 69.193 102.418Z" fill="#131613" fill-opacity="0.21"/>
</svg>
