<svg width="118" height="114" viewBox="0 0 118 114" fill="none" xmlns="http://www.w3.org/2000/svg">
<path fill-rule="evenodd" clip-rule="evenodd" d="M56.511 0C62.0616 0 66.5616 4.28837 66.5616 9.57839C66.5616 9.80367 66.5524 10.0271 66.5363 10.2484C67.8873 10.5038 69.2181 10.8164 70.526 11.1836C71.6716 7.09451 75.5853 4.08296 80.2368 4.08296C85.7872 4.08309 90.2867 8.37141 90.2867 13.6614C90.2866 16.1433 89.2956 18.4043 87.6707 20.1059C88.6619 20.9155 89.6201 21.7639 90.5422 22.6497C92.3349 21.0667 94.7344 20.0989 97.371 20.0989C102.922 20.0989 107.421 24.3873 107.421 29.6773C107.421 33.5972 104.95 36.9659 101.412 38.4486C101.981 39.7981 102.489 41.1794 102.933 42.5893C103.584 42.4627 104.259 42.3965 104.95 42.3965C110.5 42.3966 115 46.6851 115 51.9749C115 57.2649 110.501 61.5532 104.95 61.5533C104.928 61.5533 104.905 61.5521 104.882 61.5519C104.672 63.6804 104.321 65.7673 103.839 67.8037C107.663 69.1587 110.387 72.6684 110.387 76.7844C110.387 82.0744 105.887 86.3628 100.337 86.3628C98.645 86.3628 97.0515 85.9635 95.6527 85.2599C93.9023 87.5934 91.9417 89.76 89.7989 91.7323C90.115 92.6626 90.2867 93.6553 90.2867 94.686C90.2865 99.9758 85.7871 104.264 80.2368 104.264C77.5513 104.264 75.1119 103.26 73.309 101.624C72.3285 101.967 71.3332 102.277 70.3245 102.555C70.4496 103.159 70.5161 103.783 70.5161 104.422C70.516 109.712 66.016 114 60.4656 114C54.9152 114 50.4158 109.711 50.4157 104.422C50.4157 104.185 50.4246 103.949 50.4424 103.717C48.6417 103.442 46.8746 103.066 45.1465 102.594C43.526 105.811 40.0765 108.033 36.0821 108.033C30.5316 108.033 26.0316 103.744 26.0316 98.4544C26.0316 96.6223 26.5715 94.9104 27.5077 93.4551C26.3164 92.474 25.1741 91.4357 24.0845 90.3449C22.3885 91.5896 20.2643 92.3307 17.9583 92.3307C12.4078 92.3306 7.90841 88.0422 7.90839 82.7523C7.90839 78.9946 10.1789 75.7426 13.4836 74.1738C12.817 72.4777 12.2461 70.7338 11.7759 68.949C11.2151 69.0415 10.6384 69.0909 10.0499 69.0909C4.49956 69.0908 0.000156898 64.8024 3.05176e-05 59.5125C3.05176e-05 54.2226 4.49948 49.9343 10.0499 49.9341C10.2724 49.9341 10.4935 49.9414 10.7125 49.955C10.96 48.2552 11.2968 46.5844 11.7197 44.948C8.2999 43.4196 5.93112 40.1093 5.93112 36.2714C5.93124 30.9815 10.4312 26.693 15.9817 26.693C17.5252 26.693 18.9874 27.0251 20.2942 27.6177C21.6954 25.8307 23.2218 24.1464 24.8608 22.5787C23.7296 21.0291 23.066 19.1461 23.066 17.1153C23.066 11.8253 27.566 7.53691 33.1166 7.53691C36.7662 7.53702 39.9608 9.39156 41.7212 12.1654C43.2892 11.6065 44.895 11.1272 46.5342 10.7334C46.4864 10.3547 46.4612 9.96934 46.4612 9.57839C46.4612 4.28846 50.9606 0.000142291 56.511 0ZM57.665 25.4927C40.5372 25.4927 26.4275 39.405 26.4274 56.8421C26.4274 74.2793 40.5371 88.1914 57.665 88.1914C74.7927 88.1912 88.9018 74.2791 88.9018 56.8421C88.9017 39.4051 74.7926 25.4929 57.665 25.4927Z" fill="#0B99AF"/>
<path fill-rule="evenodd" clip-rule="evenodd" d="M59.511 0C65.0616 0 69.5616 4.28837 69.5616 9.57839C69.5616 9.80367 69.5524 10.0271 69.5363 10.2484C70.8873 10.5038 72.2181 10.8164 73.526 11.1836C74.6716 7.09451 78.5853 4.08296 83.2368 4.08296C88.7872 4.08309 93.2867 8.37141 93.2867 13.6614C93.2866 16.1433 92.2956 18.4043 90.6707 20.1059C91.6619 20.9155 92.6201 21.7639 93.5422 22.6497C95.3349 21.0667 97.7344 20.0989 100.371 20.0989C105.922 20.0989 110.421 24.3873 110.421 29.6773C110.421 33.5972 107.95 36.9659 104.412 38.4486C104.981 39.7981 105.489 41.1794 105.933 42.5893C106.584 42.4627 107.259 42.3965 107.95 42.3965C113.5 42.3966 118 46.6851 118 51.9749C118 57.2649 113.501 61.5532 107.95 61.5533C107.928 61.5533 107.905 61.5521 107.882 61.5519C107.672 63.6804 107.321 65.7673 106.839 67.8037C110.663 69.1587 113.387 72.6684 113.387 76.7844C113.387 82.0744 108.887 86.3628 103.337 86.3628C101.645 86.3628 100.051 85.9635 98.6527 85.2599C96.9023 87.5934 94.9417 89.76 92.7989 91.7323C93.115 92.6626 93.2867 93.6553 93.2867 94.686C93.2865 99.9758 88.7871 104.264 83.2368 104.264C80.5513 104.264 78.1119 103.26 76.309 101.624C75.3285 101.967 74.3332 102.277 73.3245 102.555C73.4496 103.159 73.5161 103.783 73.5161 104.422C73.516 109.712 69.016 114 63.4656 114C57.9152 114 53.4158 109.711 53.4157 104.422C53.4157 104.185 53.4246 103.949 53.4424 103.717C51.6417 103.442 49.8746 103.066 48.1465 102.594C46.526 105.811 43.0765 108.033 39.0821 108.033C33.5316 108.033 29.0316 103.744 29.0316 98.4544C29.0316 96.6223 29.5715 94.9104 30.5077 93.4551C29.3164 92.474 28.1741 91.4357 27.0845 90.3449C25.3885 91.5896 23.2643 92.3307 20.9583 92.3307C15.4078 92.3306 10.9084 88.0422 10.9084 82.7523C10.9084 78.9946 13.1789 75.7426 16.4836 74.1738C15.817 72.4777 15.2461 70.7338 14.7759 68.949C14.2151 69.0415 13.6384 69.0909 13.0499 69.0909C7.49956 69.0908 3.00016 64.8024 3.00003 59.5125C3.00003 54.2226 7.49948 49.9343 13.0499 49.9341C13.2724 49.9341 13.4935 49.9414 13.7125 49.955C13.96 48.2552 14.2968 46.5844 14.7197 44.948C11.2999 43.4196 8.93112 40.1093 8.93112 36.2714C8.93124 30.9815 13.4312 26.693 18.9817 26.693C20.5252 26.693 21.9874 27.0251 23.2942 27.6177C24.6954 25.8307 26.2218 24.1464 27.8608 22.5787C26.7296 21.0291 26.066 19.1461 26.066 17.1153C26.066 11.8253 30.566 7.53691 36.1166 7.53691C39.7662 7.53702 42.9608 9.39156 44.7212 12.1654C46.2892 11.6065 47.895 11.1272 49.5342 10.7334C49.4864 10.3547 49.4612 9.96934 49.4612 9.57839C49.4612 4.28846 53.9606 0.000142291 59.511 0ZM60.665 25.4927C43.5372 25.4927 29.4275 39.405 29.4274 56.8421C29.4274 74.2793 43.5371 88.1914 60.665 88.1914C77.7927 88.1912 91.9018 74.2791 91.9018 56.8421C91.9017 39.4051 77.7926 25.4929 60.665 25.4927Z" fill="#3DD1E8"/>
</svg>
