<svg width="327" height="206" viewBox="0 0 327 206" fill="none" xmlns="http://www.w3.org/2000/svg">
<path d="M28.8644 36.3208C28.8644 25.2751 37.8187 16.3208 48.8644 16.3208H281.167C292.213 16.3208 301.167 25.2751 301.167 36.3208V181.752H28.8644V36.3208Z" fill="#E5F8F4"/>
<path d="M25.1517 182.328C27.0067 180.582 29.458 179.61 32.0054 179.61H297.094C299.858 179.61 302.498 180.754 304.389 182.771L310.38 189.161C316.367 195.548 311.839 206.001 303.084 206.001H25.2157C16.1599 206.001 11.7677 194.925 18.3621 188.719L25.1517 182.328Z" fill="#DCF0EC"/>
<rect x="37.9474" y="25.2983" width="252.983" height="147.272" rx="12" fill="url(#paint0_linear_8063_274)"/>
<path d="M190.114 66.3535C192.124 60.5876 190.114 58.3844 190.114 53.2781L175.658 55.2336L171.951 63.3882C177.099 66.3535 180.754 63.3882 190.114 66.3535Z" fill="#1C2654"/>
<path d="M154.901 50.7856V71.5428C163.796 77.7699 170.963 74.0139 173.434 71.5428L175.658 54.4923L154.901 50.7856Z" fill="#FBAD83"/>
<path d="M154.901 50.7856V56.3456L173.804 67.8361L175.658 54.4923L154.901 50.7856Z" fill="black" fill-opacity="0.11"/>
<path d="M192.338 23.3565C202.683 78.4554 157.866 58.9632 157.866 49.6736L162.314 23.3565L172.632 15.512L192.338 23.3565Z" fill="#FBAD83"/>
<path d="M293.003 84.8811C281.596 95.4293 274.055 96.576 270.547 96.1485L265.358 89.106C273.245 84.9806 278.11 86.2183 278.331 88.3647C285.374 88.3647 304.409 74.3329 293.003 84.8811Z" fill="#FBAD83"/>
<path d="M171.951 0.00468502C190.632 -0.291845 194.155 13.5539 194.155 22.8206C182.078 26.1881 174.663 25.9512 171.951 19.1666C175.475 50.8414 162.886 62.2118 164.104 69.1153C149.485 59.7753 140.56 64.2422 145.831 25.9512C147.547 13.4814 153.27 0.301215 171.951 0.00468502Z" fill="#1C2654"/>
<path d="M224.215 110.092L190.114 78.5854V102.308L221.464 124.799C223.171 126.023 225.394 126.279 227.265 125.322C238.852 119.392 260.437 104.492 270.918 96.3773C269.732 90.4467 266.841 89.0876 264.987 88.5934C246.306 102.827 229.898 108.362 224.215 110.092Z" fill="#E37587"/>
<path d="M136.032 77.2333L154.901 71.5427C166.465 87.2588 172.075 78.0911 173.434 71.5427L190.114 78.5853C194.265 88.3708 193.82 147.158 193.079 175.328L136.085 177.539L138.591 103.049L117.352 177.539H104.41C114.247 151.964 111.708 127.243 129.75 82.9089C130.868 80.1607 133.191 78.09 136.032 77.2333Z" fill="#FF8498"/>
<path d="M136.084 177.539L138.591 103.049L193.56 134.555C193.597 149.654 193.359 164.679 193.079 175.328L136.084 177.539Z" fill="black" fill-opacity="0.11"/>
<ellipse cx="160.46" cy="37.4416" rx="2.59464" ry="4.44796" transform="rotate(-5.01171 160.46 37.4416)" fill="#FBAD83"/>
<ellipse cx="159.82" cy="36.4621" rx="3.78779" ry="4.6376" transform="rotate(-5.01171 159.82 36.4621)" fill="white"/>
<ellipse cx="182.065" cy="52.6722" rx="1.5552" ry="2.05054" transform="rotate(70.4321 182.065 52.6722)" fill="white"/>
<path d="M159.348 31.8819C158.978 21.9975 163.698 2.92235 188.064 4.9528M160.09 40.4071C162.314 53.751 168.244 56.7904 183.071 52.639" stroke="white"/>
<rect x="36.1404" y="172.57" width="261.114" height="6.32456" fill="#E5F8F4"/>
<defs>
<linearGradient id="paint0_linear_8063_274" x1="22.4547" y1="12.447" x2="284.117" y2="202.135" gradientUnits="userSpaceOnUse">
<stop stop-color="#FAFEFF"/>
<stop offset="1" stop-color="#F9F5FE"/>
</linearGradient>
</defs>
</svg>
