<svg width="81" height="85" viewBox="0 0 81 85" fill="none" xmlns="http://www.w3.org/2000/svg">
<path d="M61.7949 70.9741C71.6839 59.1883 71.8043 27.3565 48.2589 14.1068L32.2022 30.1317C34.96 40.9115 54.3366 64.2681 61.7949 70.9741Z" fill="#165D4C"/>
<path d="M44.1607 18.1741C48.9685 23.0648 57.0893 41.2176 56.0032 49.5434C54.51 33.0258 45.1412 28.8463 44.1607 18.1741Z" fill="#131613" fill-opacity="0.21"/>
<path d="M23.6521 84.9702C44.7704 76.6026 67.2711 35.3392 45.9874 1.60066L13.8818 11.1453C9.89718 27.0837 18.6714 71.0242 23.6521 84.9702Z" fill="#01B850"/>
<path d="M37.809 4.00713C40.6211 13.7348 38.4273 43.0148 31.1722 53.0672C40.8271 30.5635 31.5913 18.5581 37.809 4.00713Z" fill="#131613" fill-opacity="0.21"/>
<path d="M80.1255 53.4814C70.4961 49.9949 44.5419 29.7892 37.7681 3.88938C78.782 -14.2855 80.1255 37.5431 80.1255 53.4814Z" fill="#177761"/>
<path d="M43.1656 4.83318C45.4899 10.644 59.2064 29.3747 67.1756 34.5547C52.966 21.7127 54.0019 10.0865 43.1656 4.83318Z" fill="#131613" fill-opacity="0.21"/>
<path d="M0.433819 52.4851C17.8664 40.5314 34.2292 31.0306 37.7681 3.889C30.8415 1.78588 18.2082 4.34133 12.3876 10.647C2.82456 21.0069 0.43382 42.8557 0.433819 52.4851Z" fill="#177761"/>
<path d="M13.3836 32.5623C17.5342 28.5777 33.1421 13.0591 35.9314 5.08991C25.106 14.4796 23.7435 20.2101 13.3836 32.5623Z" fill="#131613" fill-opacity="0.21"/>
</svg>
