<svg width="175" height="127" viewBox="0 0 175 127" fill="none" xmlns="http://www.w3.org/2000/svg">
<path d="M148.569 78.0914C150.594 83.4047 158.728 84.2278 164.31 79.3388C161.053 77.323 153.344 74.2513 148.569 78.0914C150.602 75.7447 152.494 73.3141 154.207 70.8036C155.254 69.2699 156.235 67.7065 157.14 66.1141C158.714 67.8677 162.794 70.2155 166.514 65.5784C164.675 64.7428 160.226 63.6801 157.14 66.1141C158.14 64.3554 159.048 62.5614 159.854 60.7334C161.359 60.1642 164.269 57.8664 163.863 53.2292C161.598 53.8384 157.625 56.1922 159.854 60.7334C159.048 62.5614 158.14 64.3554 157.14 66.1141C156.235 67.7065 155.254 69.2699 154.207 70.8036C154.435 60.1248 148.531 57.2584 145.55 57.16C144.489 65.9505 150.88 69.9184 154.207 70.8036C152.494 73.3141 150.602 75.7447 148.569 78.0914C146.586 80.38 144.47 82.5887 142.254 84.714C146.779 74.2162 139.732 67.8173 135.643 65.93C132.692 76.8979 138.821 83.0226 142.254 84.714C139.585 87.2733 136.772 89.7115 133.876 92.0221C131.384 94.0097 128.83 95.9029 126.252 97.6975C132.481 88.2723 126.426 81.3453 122.62 79.0599C118.682 88.1729 123.4 95.282 126.252 97.6975C122.701 100.17 119.105 102.455 115.564 104.543C112.654 106.258 109.782 107.84 107.003 109.283C110.644 105.08 116.125 95.1437 108.915 89.0142C106.609 91.429 102.998 98.8632 107.003 109.283C109.782 107.84 112.654 106.258 115.564 104.543C117.033 115.507 129.032 115.225 134.847 113.714C133.944 110.078 128.823 103.155 115.564 104.543C119.105 102.455 122.701 100.17 126.252 97.6975C128.83 95.9029 131.384 94.0097 133.876 92.0221C135.909 96.9172 142.802 104.772 154.108 97.0304C152.881 94.1767 147.118 89.1798 133.876 92.0221C136.772 89.7115 139.585 87.2733 142.254 84.714C144.47 82.5887 146.586 80.38 148.569 78.0914Z" fill="#01B850"/>
<path d="M94.9185 114.473C99.7698 112.704 100.243 112.79 107.003 109.283M161.576 56.3038C161.071 57.8015 160.495 59.2782 159.854 60.7334M148.569 78.0914C150.594 83.4047 158.728 84.2278 164.31 79.3388C161.053 77.323 153.344 74.2513 148.569 78.0914ZM148.569 78.0914C150.602 75.7447 152.494 73.3141 154.207 70.8036M148.569 78.0914C146.586 80.38 144.47 82.5887 142.254 84.714M159.854 60.7334C161.359 60.1642 164.269 57.8664 163.863 53.2292C161.598 53.8384 157.625 56.1922 159.854 60.7334ZM159.854 60.7334C159.048 62.5614 158.14 64.3554 157.14 66.1141M157.14 66.1141C158.714 67.8677 162.794 70.2155 166.514 65.5784C164.675 64.7428 160.226 63.6801 157.14 66.1141ZM157.14 66.1141C156.235 67.7065 155.254 69.2699 154.207 70.8036M154.207 70.8036C150.88 69.9184 144.489 65.9505 145.55 57.16C148.531 57.2584 154.435 60.1248 154.207 70.8036ZM142.254 84.714C138.821 83.0226 132.692 76.8979 135.643 65.93C139.732 67.8172 146.779 74.2162 142.254 84.714ZM142.254 84.714C139.585 87.2733 136.772 89.7115 133.876 92.0221M133.876 92.0221C135.909 96.9172 142.801 104.772 154.108 97.0304C152.881 94.1767 147.118 89.1798 133.876 92.0221ZM133.876 92.0221C131.384 94.0097 128.83 95.9029 126.252 97.6975M126.252 97.6975C123.4 95.282 118.682 88.1729 122.62 79.0599C126.426 81.3453 132.481 88.2723 126.252 97.6975ZM126.252 97.6975C122.701 100.17 119.105 102.455 115.564 104.543M115.564 104.543C117.033 115.507 129.032 115.225 134.847 113.714C133.944 110.078 128.823 103.155 115.564 104.543ZM115.564 104.543C112.654 106.258 109.782 107.84 107.003 109.283M107.003 109.283C110.644 105.08 116.125 95.1437 108.915 89.0142C106.609 91.429 102.998 98.8632 107.003 109.283Z" stroke="#01B850"/>
<path d="M83.3561 10.2705C89.0213 10.2706 93.6138 14.6862 93.6139 20.1328C93.6139 20.3646 93.6019 20.5944 93.5856 20.8223C94.9656 21.0853 96.3248 21.4077 97.6608 21.7861C98.83 17.5758 102.824 14.4746 107.572 14.4746C113.237 14.4748 117.83 18.8903 117.83 24.3369C117.83 26.8931 116.817 29.2215 115.158 30.9736C116.17 31.8075 117.148 32.6814 118.089 33.5938C119.919 31.963 122.368 30.9649 125.06 30.9648C130.725 30.9648 135.318 35.3806 135.318 40.8271C135.318 44.8632 132.795 48.3308 129.184 49.8574C129.765 51.2472 130.282 52.6703 130.735 54.1221C131.401 53.9916 132.09 53.9239 132.796 53.9238C138.461 53.9238 143.053 58.3394 143.053 63.7861C143.053 69.2328 138.461 73.6484 132.796 73.6484C132.773 73.6484 132.75 73.6466 132.727 73.6465C132.513 75.8383 132.153 77.987 131.661 80.084C135.564 81.4789 138.345 85.0918 138.345 89.3301C138.345 94.7767 133.753 99.1923 128.088 99.1924C126.36 99.1924 124.733 98.7797 123.305 98.0547C122.161 99.5939 120.928 101.062 119.615 102.453C120.506 103.915 121.02 105.616 121.02 107.433C121.02 112.879 116.427 117.294 110.762 117.294C107.685 117.294 104.926 115.989 103.046 113.926C101.292 114.658 99.4869 115.291 97.6364 115.814C97.6451 115.981 97.65 116.149 97.65 116.318C97.65 121.765 93.0575 126.181 87.3922 126.181C81.9859 126.181 77.5593 122.16 77.1656 117.059C75.3264 116.776 73.5215 116.389 71.7565 115.903C70.1027 119.216 66.5819 121.504 62.5045 121.504C56.8392 121.504 52.2467 117.088 52.2467 111.642C52.2468 109.755 52.7978 107.993 53.7535 106.494C52.5369 105.483 51.3693 104.415 50.2565 103.291C48.5257 104.572 46.3596 105.337 44.0065 105.337C38.3412 105.337 33.7477 100.921 33.7477 95.4746C33.7477 91.6045 36.0674 88.2564 39.442 86.6416C38.7611 84.8942 38.1751 83.0987 37.6949 81.2598C37.1227 81.355 36.5348 81.4082 35.9342 81.4082C30.269 81.4082 25.6764 76.9926 25.6764 71.5459C25.6766 66.0993 30.2691 61.6836 35.9342 61.6836C36.1613 61.6836 36.3866 61.694 36.61 61.708C36.8627 59.9565 37.2063 58.2349 37.6383 56.5488C34.1482 54.975 31.7302 51.5685 31.7301 47.6172C31.7301 42.1705 36.3227 37.755 41.9879 37.7549C43.5632 37.7549 45.0555 38.097 46.3893 38.707C47.82 36.8663 49.3797 35.1323 51.0533 33.5176C49.8986 31.922 49.2194 29.9846 49.2194 27.8936C49.2194 22.4468 53.8119 18.0313 59.4772 18.0312C63.2028 18.0312 66.4636 19.9412 68.2604 22.7979C69.8614 22.2221 71.5007 21.7268 73.1744 21.3213C73.1257 20.9316 73.0983 20.5351 73.0983 20.1328C73.0983 14.6861 77.6908 10.2705 83.3561 10.2705ZM84.5328 31.9707C64.5047 31.9708 48.1024 48.3666 48.1022 68.7969C48.1023 89.2273 64.5046 105.623 84.5328 105.623C104.561 105.623 120.963 89.2274 120.964 68.7969C120.963 48.3665 104.561 31.9707 84.5328 31.9707Z" fill="#3ABACE"/>
<path d="M80.4216 11.0042C86.0868 11.0042 90.6794 15.4198 90.6794 20.8665C90.6794 21.0983 90.6675 21.3281 90.6511 21.5559C92.0311 21.819 93.3904 22.1414 94.7263 22.5198C95.8956 18.3094 99.8896 15.2083 104.637 15.2083C110.303 15.2083 114.895 19.6239 114.895 25.0706C114.895 27.6268 113.883 29.9552 112.223 31.7073C113.235 32.5411 114.214 33.415 115.155 34.3274C116.985 32.6967 119.434 31.6985 122.126 31.6985C127.791 31.6985 132.383 36.1142 132.384 41.5608C132.384 45.5968 129.861 49.0645 126.25 50.5911C126.83 51.9809 127.348 53.4038 127.802 54.8557C128.467 54.7253 129.156 54.6575 129.861 54.6575C135.526 54.6575 140.12 59.073 140.12 64.5198C140.12 69.9664 135.526 74.3821 129.861 74.3821C129.838 74.3821 129.815 74.3803 129.793 74.3801C129.578 76.5719 129.219 78.7207 128.726 80.8176C132.629 82.2126 135.411 85.8254 135.411 90.0637C135.411 95.5103 130.818 99.9259 125.153 99.926C123.426 99.926 121.799 99.5133 120.371 98.7883C119.226 100.328 117.994 101.796 116.68 103.187C117.572 104.649 118.086 106.349 118.086 108.166C118.085 113.613 113.493 118.028 107.828 118.028C104.75 118.028 101.991 116.723 100.111 114.659C98.3572 115.392 96.5525 116.025 94.7019 116.548C94.7106 116.715 94.7156 116.883 94.7156 117.052C94.7156 122.499 90.123 126.914 84.4578 126.914C79.0515 126.914 74.6249 122.893 74.2312 117.792C72.392 117.509 70.5871 117.122 68.822 116.637C67.1683 119.95 63.6475 122.237 59.5701 122.238C53.9048 122.238 49.3123 117.822 49.3123 112.375C49.3123 110.489 49.8634 108.726 50.8191 107.228C49.6027 106.217 48.4356 105.148 47.323 104.025C45.5921 105.306 43.4255 106.07 41.072 106.071C35.4067 106.071 30.8132 101.655 30.8132 96.2083C30.8133 92.3382 33.133 88.99 36.5076 87.3752C35.8267 85.6279 35.2406 83.8323 34.7605 81.9934C34.1882 82.0886 33.6003 82.1418 32.9998 82.1418C27.3345 82.1418 22.7419 77.7263 22.7419 72.2795C22.7421 66.833 27.3346 62.4173 32.9998 62.4172C33.2268 62.4172 33.4521 62.4277 33.6755 62.4417C33.9282 60.6901 34.2718 58.9685 34.7039 57.2825C31.2137 55.7087 28.7957 52.3022 28.7957 48.3508C28.7957 42.9042 33.3883 38.4886 39.0535 38.4885C40.6288 38.4885 42.1211 38.8306 43.4548 39.4407C44.8855 37.5999 46.4452 35.866 48.1189 34.2512C46.9642 32.6557 46.285 30.7183 46.2849 28.6272C46.2849 23.1805 50.8775 18.765 56.5427 18.7649C60.2683 18.7649 63.5292 20.6749 65.3259 23.5315C66.927 22.9558 68.5662 22.4605 70.24 22.0549C70.1913 21.6652 70.1638 21.2688 70.1638 20.8665C70.1638 15.4197 74.7564 11.0042 80.4216 11.0042ZM81.5984 32.7043C61.5702 32.7045 45.168 49.1002 45.1677 69.5305C45.1678 89.9609 61.5701 106.357 81.5984 106.357C101.627 106.357 118.029 89.961 118.029 69.5305C118.029 49.1002 101.627 32.7043 81.5984 32.7043Z" fill="#96EBF8"/>
<path d="M59.7892 29.7112C55.9744 30.8849 51.3527 36.4359 50.9859 39.6149C48.9318 44.8969 53.798 46.7064 56.4879 46.951C63.824 44.8969 65.6581 41.2044 65.6581 39.6149C65.2913 35.8246 63.604 28.5374 59.7892 29.7112Z" fill="#FBAD83"/>
<path d="M56.5063 33.0395L67.8588 22.375L71.1601 34.8464L64.5306 41.1443C64.1375 41.5178 63.5182 41.5099 63.1348 41.1264L56.4838 34.4755C56.0846 34.0763 56.0948 33.4261 56.5063 33.0395Z" fill="#B37676"/>
<path d="M58.3245 33.0391L66.7584 24.9426L69.177 34.6172C69.2684 34.9828 69.1466 35.3687 68.8618 35.6155L64.5276 39.3718C64.1311 39.7154 63.5365 39.6942 63.1655 39.3232L58.3099 34.4676C57.9138 34.0714 57.9203 33.4271 58.3245 33.0391Z" fill="white"/>
<path d="M58.3219 47.3177C54.2137 46.7308 50.4968 40.7152 49.8854 38.5144C32.4172 53.1306 11.4843 64.9751 0.892763 86.1701C0.387864 87.1805 0.861116 88.4002 1.91954 88.7945C22.0096 96.2796 39.3322 87.6098 53.5535 85.8322L60.1559 58.6887C45.9746 65.4212 38.8813 65.6579 23.8423 75.9285L58.3219 47.3177Z" fill="#355E8A"/>
<path d="M66.3917 35.2198C65.5113 23.482 68.4702 12.7224 70.0597 8.80985L71.1601 6.97583L88.0331 7.70944L92.068 19.4472L90.234 36.687L81.7975 41.8223L66.3917 35.2198Z" fill="#FBAD83"/>
<path d="M96.4696 54.6604V35.2197L80.3302 47.6911V54.6604C86.4925 59.3555 93.6574 56.6167 96.4696 54.6604Z" fill="#FBAD83"/>
<path d="M96.4696 36.6869V35.2197L80.3302 47.6911V52.8263C92.4348 52.8263 96.4696 38.8878 96.4696 36.6869Z" fill="black" fill-opacity="0.11"/>
<path d="M87.2995 33.7527C88.4732 31.6986 89.2558 23.3599 89.5003 19.4473C89.9129 12.8447 85.9056 8.44316 72.9941 9.91037C68.5924 10.4106 65.0711 9.02994 71.5269 2.57418C74.8281 -0.727075 87.5195 -2.19428 97.2032 6.60903C102.449 11.3775 100.138 28.9841 97.2032 32.6523C93.9019 47.6912 86.1485 45.8572 82.531 49.8921C74.9015 58.4019 68.5924 52.9488 66.3916 49.1584V34.8531C68.1034 33.9972 72.9207 33.1658 78.4961 36.6871C85.4654 41.0888 85.8322 36.3203 87.2995 33.7527Z" fill="#1C2654"/>
<ellipse cx="4.03485" cy="5.50207" rx="4.03485" ry="5.50207" transform="matrix(-0.945563 -0.32544 -0.32544 0.945563 100.871 23.9075)" fill="#FBAD83"/>
<path d="M69.326 39.9883C70.0596 42.1891 73.3609 45.4903 76.6621 39.9883H69.326Z" fill="white"/>
<path d="M117.26 61.9411C118.155 66.0399 118.566 70.1011 118.089 74.2888C117.507 79.3897 116.512 82.0223 114 86.4411C113.635 87.083 112.401 89.325 112 89.9411L111.5 83.4411V90.5911C109.286 93.7236 106.552 97.1747 103.5 99.4411C99.4869 102.421 94.9192 105 90.0925 106.031C85.2659 107.062 80.2852 107.03 75.4714 105.935C70.6576 104.841 66.1162 102.709 62.1394 99.6765C58.1625 96.6441 54.8376 92.7782 52.3787 88.3269C51.9025 87.465 51.4618 86.5844 51.0554 85.6882C52.9308 73.9601 57.5967 63.0539 60.156 58.3289L80.3298 54.6609L82.1638 63.0964L86.5662 59.0623L91.7009 63.0964L96.4695 54.6609L117.26 61.9411Z" fill="#446F9D"/>
</svg>
