<svg width="136" height="125" viewBox="0 0 136 125" fill="none" xmlns="http://www.w3.org/2000/svg">
<path d="M108.01 29.3621C102.473 27.0425 101.883 18.4588 107.231 12.7639C109.247 16.2614 112.224 24.4776 108.01 29.3621C110.555 27.3084 113.184 25.4059 115.891 23.6937C117.545 22.6477 119.228 21.6728 120.939 20.7778C119.143 19.0591 116.805 14.6852 121.824 10.939C122.643 12.9027 123.612 17.6197 120.939 20.7778C122.829 19.7892 124.752 18.8982 126.708 18.1166C127.36 16.5536 129.884 13.576 134.763 14.169C134.042 16.5293 131.423 20.6233 126.708 18.1166C124.752 18.8982 122.829 19.7892 120.939 20.7778C119.228 21.6728 117.545 22.6477 115.891 23.6937C127.165 23.8365 129.988 30.1488 129.99 33.287C120.679 34.0872 116.711 27.2249 115.891 23.6937C113.184 25.4059 110.555 27.3084 108.01 29.3621C105.528 31.3649 103.125 33.5116 100.807 35.7658C112.037 31.3829 118.547 39.023 120.399 43.3908C108.726 46.1011 102.474 39.4368 100.807 35.7658C98.0156 38.4806 95.3472 41.3513 92.8105 44.3149C90.6284 46.8643 88.5437 49.4823 86.5623 52.1287C96.7189 45.9155 103.82 52.5314 106.101 56.616C96.3525 60.4313 89.0133 55.2142 86.5623 52.1287C83.8324 55.7748 81.2984 59.4748 78.9752 63.1233C77.0658 66.122 75.2987 69.086 73.6822 71.9567C78.24 68.2776 88.9107 62.8697 95.1312 70.6717C92.5048 73.0104 84.5381 76.5416 73.6822 71.9567C75.2987 69.086 77.0658 66.122 78.9752 63.1233C67.4573 61.1853 68.1649 48.5774 69.9585 42.5157C73.7628 43.5956 80.8922 49.229 78.9752 63.1233C81.2984 59.4748 83.8324 55.7748 86.5623 52.1287C88.5437 49.4823 90.6284 46.8643 92.8105 44.3149C87.7154 42.0014 79.6637 34.4713 88.2177 22.8588C91.1866 24.2509 96.2616 30.4911 92.8105 44.3149C95.3472 41.3513 98.0156 38.4806 100.807 35.7658C103.125 33.5116 105.528 31.3649 108.01 29.3621Z" fill="#01B850"/>
<path d="M64.6781 90.409C66.7094 85.3706 69.7503 78.9394 73.6822 71.9567M131.441 16.4642C129.843 16.9416 128.266 17.4944 126.708 18.1166M108.01 29.3621C102.473 27.0425 101.883 18.4588 107.231 12.7639C109.247 16.2614 112.224 24.4776 108.01 29.3621ZM108.01 29.3621C110.555 27.3084 113.184 25.4059 115.891 23.6937M108.01 29.3621C105.528 31.3649 103.125 33.5116 100.807 35.7658M126.708 18.1166C127.36 16.5536 129.884 13.576 134.763 14.169C134.042 16.5293 131.423 20.6233 126.708 18.1166ZM126.708 18.1166C124.752 18.8982 122.829 19.7892 120.939 20.7778M120.939 20.7778C119.143 19.0591 116.805 14.6852 121.824 10.939C122.643 12.9027 123.612 17.6197 120.939 20.7778ZM120.939 20.7778C119.228 21.6728 117.545 22.6477 115.891 23.6937M115.891 23.6937C116.711 27.2249 120.679 34.0872 129.99 33.287C129.988 30.1488 127.165 23.8365 115.891 23.6937ZM100.807 35.7658C102.474 39.4368 108.726 46.1011 120.399 43.3908C118.547 39.023 112.037 31.3829 100.807 35.7658ZM100.807 35.7658C98.0156 38.4806 95.3472 41.3513 92.8105 44.3149M92.8105 44.3149C87.7154 42.0014 79.6637 34.4713 88.2177 22.8588C91.1866 24.2509 96.2616 30.4911 92.8105 44.3149ZM92.8105 44.3149C90.6284 46.8643 88.5437 49.4823 86.5623 52.1287M86.5623 52.1287C89.0133 55.2142 96.3525 60.4313 106.101 56.616C103.82 52.5314 96.7189 45.9155 86.5623 52.1287ZM86.5623 52.1287C83.8324 55.7748 81.2984 59.4748 78.9752 63.1233M78.9752 63.1233C67.4573 61.1853 68.1649 48.5774 69.9585 42.5157C73.7628 43.5956 80.8922 49.229 78.9752 63.1233ZM78.9752 63.1233C77.0658 66.122 75.2987 69.086 73.6822 71.9567M73.6822 71.9567C78.24 68.2776 88.9107 62.8697 95.1312 70.6717C92.5048 73.0104 84.5381 76.5416 73.6822 71.9567Z" stroke="#01B850"/>
<path d="M60.6396 35.7008C40.4306 46.0736 22.0303 89.3215 46.4803 120.841L77.5111 108.233C79.934 91.9838 66.9471 49.0991 60.6396 35.7008Z" fill="#01B88E"/>
<path d="M54.3873 117.654C50.6467 108.244 49.9955 78.8896 56.2434 68.1821C48.8124 91.5148 59.1671 102.57 54.3873 117.654Z" fill="#131613" fill-opacity="0.21"/>
<path d="M12.0888 48.1125C23.4692 54.5115 51.8819 85.3515 54.9825 119.34C-0.398158 133.616 8.7546 68.1564 12.0888 48.1125Z" fill="#177761"/>
<path d="M48.3921 117.024C46.6846 109.23 33.3533 82.8051 24.415 74.6238C39.5983 93.7462 35.8635 108.15 48.3921 117.024Z" fill="#131613" fill-opacity="0.21"/>
<path d="M96.5347 58.4758C76.1243 73.8133 56.8763 86.1349 54.0268 119.073C62.4954 121.248 77.6066 117.503 84.3003 109.589C95.2978 96.5865 97.0389 70.0958 96.5347 58.4758Z" fill="#177761"/>
<path d="M81.951 83.1952C77.151 88.2208 59.129 107.765 56.1804 117.527C68.752 105.63 70.0961 98.6434 81.951 83.1952Z" fill="#131613" fill-opacity="0.21"/>
</svg>
