<svg width="159" height="111" viewBox="0 0 159 111" fill="none" xmlns="http://www.w3.org/2000/svg">
<path d="M128.713 63.992C129.877 72.082 141.026 75.801 150.396 70.7041C146.463 66.85 136.621 60.112 128.713 63.992C132.304 61.3417 135.723 58.5293 138.918 55.5487C140.87 53.7278 142.738 51.8442 144.51 49.8964C146.165 52.8521 151.146 57.4309 157.825 52.1005C155.51 50.3488 149.605 47.4557 144.51 49.8964C146.466 47.7451 148.306 45.5155 150.012 43.2057C152.303 42.8821 157.108 40.5769 158.001 33.9453C154.632 34.0856 148.318 36.1341 150.012 43.2057C148.306 45.5155 146.466 47.7451 144.51 49.8964C142.738 51.8442 140.87 53.7278 138.918 55.5487C142.605 40.6439 135.227 34.7622 131.078 33.6845C126.819 45.6786 134.53 53.2582 138.918 55.5487C135.723 58.5293 132.304 61.3417 128.713 63.992C125.211 66.5766 121.546 69.0071 117.768 71.289C127.425 57.9929 119.559 46.7969 114.419 42.8609C106.823 57.3128 113.487 67.8346 117.768 71.289C113.219 74.0371 108.505 76.5697 103.714 78.897C99.5926 80.8989 95.4138 82.7489 91.233 84.4531C102.941 73.1985 96.6327 61.5745 92.0151 57.1693C83.6185 68.7084 87.9951 80.1664 91.233 84.4531C85.4729 86.8011 79.7088 88.8725 74.0851 90.6838C69.4632 92.1725 64.9361 93.4855 60.584 94.632C67.0162 89.8868 77.8357 77.6789 69.6562 66.8093C65.6606 69.4688 58.2524 78.7566 60.584 94.632C64.9361 93.4855 69.4632 92.1725 74.0851 90.6838C72.6889 106.525 89.6055 109.912 98.2384 109.625C98.1179 104.242 93.1186 92.9179 74.0851 90.6838C79.7088 88.8725 85.4729 86.8011 91.233 84.4531C95.4138 82.7489 99.5926 80.8989 103.714 78.897C105.022 86.4033 112.213 99.5926 130.51 92.2996C129.69 87.9107 123.182 79.0856 103.714 78.897C108.505 76.5697 113.219 74.0371 117.768 71.289C121.546 69.0071 125.211 66.5766 128.713 63.992Z" fill="#01B850"/>
<path d="M42 98.1012C49.3613 97.1506 49.9983 97.4207 60.584 94.632M153.824 37.5362C152.643 39.4775 151.37 41.367 150.012 43.2057M128.713 63.992C129.877 72.082 141.026 75.801 150.396 70.7041C146.463 66.85 136.621 60.112 128.713 63.992ZM128.713 63.992C132.304 61.3417 135.723 58.5293 138.918 55.5487M128.713 63.992C125.211 66.5766 121.546 69.0071 117.768 71.289M150.012 43.2057C152.303 42.8821 157.108 40.5769 158.001 33.9453C154.632 34.0856 148.318 36.1341 150.012 43.2057ZM150.012 43.2057C148.306 45.5155 146.466 47.7451 144.51 49.8964M144.51 49.8964C146.165 52.8521 151.146 57.4309 157.825 52.1005C155.51 50.3488 149.605 47.4557 144.51 49.8964ZM144.51 49.8964C142.738 51.8442 140.87 53.7278 138.918 55.5487M138.918 55.5487C134.53 53.2582 126.819 45.6786 131.078 33.6845C135.227 34.7622 142.605 40.6439 138.918 55.5487ZM117.768 71.289C113.487 67.8346 106.823 57.3128 114.419 42.8609C119.559 46.7969 127.425 57.9929 117.768 71.289ZM117.768 71.289C113.219 74.0371 108.505 76.5697 103.714 78.897M103.714 78.897C105.022 86.4033 112.213 99.5926 130.51 92.2996C129.69 87.9107 123.182 79.0856 103.714 78.897ZM103.714 78.897C99.5926 80.8989 95.4138 82.7489 91.233 84.4531M91.233 84.4531C87.9951 80.1664 83.6185 68.7084 92.0151 57.1693C96.6327 61.5745 102.941 73.1985 91.233 84.4531ZM91.233 84.4531C85.4729 86.8011 79.7088 88.8725 74.0851 90.6838M74.0851 90.6838C72.6889 106.525 89.6055 109.912 98.2384 109.625C98.1179 104.242 93.1186 92.9179 74.0851 90.6838ZM74.0851 90.6838C69.4632 92.1725 64.9361 93.4855 60.584 94.632M60.584 94.632C67.0162 89.8868 77.8357 77.6789 69.6562 66.8093C65.6606 69.4688 58.2524 78.7566 60.584 94.632Z" stroke="#01B850"/>
<path d="M19 64.1C67.0001 73.0991 68.5 26.1001 81.8507 1.53401C73.9225 -1.98962 11 -5.39975 19 64.1Z" fill="#01B850"/>
<path d="M60.7089 16.5096C51.5 19.1003 34 27.6003 34 49.6003C40 33.6003 45.5 23.6003 60.7089 16.5096Z" fill="#131613" fill-opacity="0.21"/>
<path d="M-3.03199e-05 82.6011C60.4999 125.101 109.39 79.2208 117.25 20.0396C89.9999 30.1011 19.9999 31.1011 -3.03199e-05 82.6011Z" fill="#01B88E"/>
<path d="M21 79.1002C43 82.6002 77 73.1002 88.3527 50.6704C64 81.1002 37 68.6002 21 79.1002Z" fill="#131613" fill-opacity="0.21"/>
</svg>
