<svg width="157" height="215" viewBox="0 0 157 215" fill="none" xmlns="http://www.w3.org/2000/svg">
<path d="M42.6384 5.38794H99.6384L92.5134 57.3879H85.3884H71.1384H56.8884H49.7634L42.6384 5.38794Z" fill="#FFBF00"/>
<path d="M83.5134 5.38794H99.6384L92.5134 57.3879H83.5134V5.38794Z" fill="black" fill-opacity="0.13"/>
<path d="M41.0705 79.3882C35.3504 77.2362 27.0419 82.1174 27.0055 90.0928L27.0429 90.0815C31.0093 88.8863 40.7643 85.9468 41.0705 79.3882C41.5132 82.6958 40.2687 86.9257 41.0705 90.0928C41.5603 92.0276 40.4326 93.5256 41.0705 95.3882C38.5375 95.4079 34.5525 97.0912 35.6384 103.388C37.6203 102.502 40.8338 99.606 41.0705 95.3882C41.775 97.4454 43.2397 99.4381 44.1384 101.388C43.525 103.006 42.1151 108.414 46.1384 111.388C46.9238 109.807 48.1993 106.243 47.0945 103.755C46.6212 102.688 45.711 101.819 44.1384 101.388C43.2397 99.4381 41.775 97.4454 41.0705 95.3882C40.4326 93.5256 41.5603 92.0276 41.0705 90.0928C45.1606 93.8879 49.1384 95.3882 55.1384 93.8879C48.8143 86.7762 44.1522 88.0432 41.0705 90.0928C40.2687 86.9257 41.5132 82.6958 41.0705 79.3882C40.6388 76.1625 38.5117 71.8024 38.3778 68.5049C43.6101 79.6223 53.7797 78.5026 58.2104 76.5531C51.4786 66.369 42.1837 66.9443 38.3778 68.5049C38.2165 64.5339 39.112 63.8658 39.3134 59.8882C39.4867 56.4665 38.9237 49.7293 39.3134 46.376C42.4691 58.1019 52.3579 58.157 56.9078 56.7188C52.3728 47.0599 43.2886 45.7991 39.3134 46.376C39.8504 41.756 44.3212 40.7251 45.1606 36.388C45.8506 32.8233 44.3436 25.6523 45.1604 22.3878C45.952 28.3119 48.5789 40.039 58.6476 38.5961C58.3448 35.02 56.402 26.58 45.1604 22.3878C44.3436 25.6523 45.8506 32.8233 45.1606 36.388C35.2849 29.7657 28.561 34.1287 25.6384 39.8882C29.2086 41.7487 36.8391 48.0536 45.1606 36.388C44.3212 40.7251 39.8504 41.756 39.3134 46.376C38.9237 49.7293 39.4867 56.4665 39.3134 59.8882C33.9241 58.0407 24.1384 56.7188 21.1384 67.3882C24.3097 68.432 32.1757 72.5753 39.3134 59.8882C39.112 63.8658 38.2165 64.5339 38.3778 68.5049C38.5117 71.8024 40.6388 76.1625 41.0705 79.3882Z" fill="#01B850"/>
<path d="M54.6381 5.3878C54.6381 4.38781 51.1114 -1.39506 45.1604 22.3878M47.5017 104.289C46.655 102.816 44.8538 102.94 44.1384 101.388M41.0705 79.3882C35.3504 77.2362 27.0419 82.1174 27.0055 90.0928C30.9475 88.9049 40.7633 85.9676 41.0705 79.3882ZM41.0705 79.3882C41.5132 82.6958 40.2687 86.9257 41.0705 90.0928M41.0705 79.3882C40.6388 76.1625 38.5117 71.8024 38.3778 68.5049M44.1384 101.388C43.525 103.006 42.1151 108.414 46.1384 111.388C47.2603 109.13 49.3821 102.826 44.1384 101.388ZM44.1384 101.388C43.2397 99.4381 41.775 97.4454 41.0705 95.3882M41.0705 95.3882C38.5375 95.4079 34.5525 97.0912 35.6384 103.388C37.6203 102.502 40.8338 99.606 41.0705 95.3882ZM41.0705 95.3882C40.4326 93.5256 41.5603 92.0276 41.0705 90.0928M41.0705 90.0928C44.1522 88.0432 48.8143 86.7762 55.1384 93.8879C49.1384 95.3882 45.1606 93.8879 41.0705 90.0928ZM38.3778 68.5049C42.1837 66.9443 51.4786 66.369 58.2104 76.5531C53.7797 78.5026 43.6101 79.6223 38.3778 68.5049ZM38.3778 68.5049C38.2165 64.5339 39.112 63.8658 39.3134 59.8882M39.3134 59.8882C33.9241 58.0407 24.1384 56.7188 21.1384 67.3882C24.3097 68.432 32.1757 72.5753 39.3134 59.8882ZM39.3134 59.8882C39.4867 56.4665 38.9237 49.7293 39.3134 46.376M39.3134 46.376C43.2886 45.7991 52.3728 47.0599 56.9078 56.7188C52.3579 58.157 42.4691 58.1019 39.3134 46.376ZM39.3134 46.376C39.8504 41.756 44.3212 40.7252 45.1606 36.388M45.1606 36.388C35.2849 29.7657 28.561 34.1287 25.6384 39.8882C29.2086 41.7487 36.8391 48.0536 45.1606 36.388ZM45.1606 36.388C45.8505 32.8233 44.3436 25.6523 45.1604 22.3878M45.1604 22.3878C45.952 28.3119 48.5789 40.039 58.6476 38.5961C58.3448 35.02 56.402 26.58 45.1604 22.3878Z" stroke="#01B850"/>
<path d="M87.1386 107.388C95.4716 106.222 104.095 117.223 101.739 127.948C96.8016 125.163 85.5669 116.319 87.1386 107.388C85.5464 111.698 86.1709 116.375 84.1386 120.388C82.8971 122.839 80.8967 125.777 79.4781 128.087C82.8749 128.877 88.8289 132.491 85.4711 140.622C83.0759 138.834 78.524 133.824 79.4781 128.087C77.9113 130.638 78.4338 138.274 76.6384 140.622L76.6512 140.712C76.9903 143.084 77.5755 147.178 72.6383 151.622C71.8122 148.25 69.1607 140.972 76.6384 140.622C78.4338 138.274 77.9113 130.638 79.4781 128.087C80.8967 125.777 82.8971 122.839 84.1386 120.388C70.4564 128.302 65.3927 123.182 63.1386 119.388C73.7789 111.742 80.617 116.705 84.1386 120.388C86.1709 116.375 85.5464 111.698 87.1386 107.388C88.6914 103.185 91.7983 99.9072 92.9727 95.518C82.591 108.874 69.2675 104.303 63.9034 100.348C76.018 88.6977 88.3307 92.2737 92.9727 95.518C94.387 90.2323 93.2096 88.7921 94.1386 83.388C94.9378 78.7393 99.1508 70.5102 99.6386 65.888C91.8631 80.6882 77.3135 77.4009 71.6351 74.0966C80.6403 62.4892 94.4726 63.914 99.6386 65.888C100.311 59.5198 96.2894 54.4675 96.4699 48.388C96.6182 43.3914 99.2518 37.5195 99.139 32.8877C96.2891 40.607 87.8542 54.2019 74.7636 49.227C76.249 44.5144 82.7735 35.1289 99.139 32.8877C99.2518 37.5195 96.6182 43.3914 96.4699 48.388C111.734 42.4706 123.097 56.6085 125.286 65.2268C119.929 66.6494 104.13 66.5687 96.4699 48.388C96.2894 54.4675 100.311 59.5198 99.6386 65.888C99.1508 70.5102 94.9378 78.7393 94.1386 83.388C101.936 82.5317 111.139 83.888 112.639 97.888C108.064 98.3337 99.9006 102.584 94.1386 83.388C93.2096 88.7921 94.387 90.2323 92.9727 95.518C91.7983 99.9072 88.6914 103.185 87.1386 107.388Z" fill="#01B850"/>
<path d="M90.1391 5.38782C90.1391 3.88782 98.3176 -0.855492 99.139 32.8877M87.1386 107.388C95.4716 106.222 104.095 117.223 101.739 127.948C96.8016 125.163 85.5669 116.319 87.1386 107.388ZM87.1386 107.388C85.5464 111.698 86.1709 116.375 84.1386 120.388M87.1386 107.388C88.6914 103.185 91.7983 99.9072 92.9727 95.518M76.6384 140.622C76.9746 142.98 77.6383 147.122 72.6383 151.622C71.8122 148.25 69.1607 140.972 76.6384 140.622ZM76.6384 140.622C78.4338 138.274 77.9113 130.638 79.4781 128.087M79.4781 128.087C82.8749 128.877 88.8289 132.491 85.4711 140.622C83.0759 138.834 78.524 133.824 79.4781 128.087ZM79.4781 128.087C80.8967 125.777 82.8971 122.839 84.1386 120.388M84.1386 120.388C80.617 116.705 73.7789 111.742 63.1386 119.388C65.3927 123.182 70.4564 128.302 84.1386 120.388ZM92.9727 95.518C88.3307 92.2737 76.018 88.6977 63.9034 100.348C69.2675 104.303 82.591 108.874 92.9727 95.518ZM92.9727 95.518C94.387 90.2323 93.2096 88.7921 94.1386 83.388M94.1386 83.388C101.936 82.5317 111.139 83.888 112.639 97.888C108.064 98.3337 99.9006 102.584 94.1386 83.388ZM94.1386 83.388C94.9378 78.7393 99.1508 70.5102 99.6386 65.888M99.6386 65.888C94.4726 63.914 80.6403 62.4892 71.6351 74.0966C77.3135 77.4009 91.8631 80.6882 99.6386 65.888ZM99.6386 65.888C100.311 59.5198 96.2894 54.4675 96.4699 48.388M96.4699 48.388C111.734 42.4706 123.097 56.6085 125.286 65.2268C119.929 66.6494 104.13 66.5687 96.4699 48.388ZM96.4699 48.388C96.6182 43.3914 99.2518 37.5195 99.139 32.8877M99.139 32.8877C96.2891 40.607 87.8542 54.2019 74.7636 49.227C76.249 44.5144 82.7735 35.1289 99.139 32.8877Z" stroke="#01B850"/>
<path d="M61.1383 115.888C52.8053 114.722 47.2819 122.663 49.6382 133.388C54.5754 130.603 62.71 124.819 61.1383 115.888C62.7305 120.198 65.1783 126.888 65.1783 132.388C66.4198 134.839 61.1383 141.388 61.1383 146.388C57.7416 147.178 52.2806 149.756 55.6384 157.888C57.6131 156.414 60.7183 153.454 61.2134 149.245C61.5025 154.426 62.605 157.382 64.1383 159.388C63.8022 161.746 61.8367 167.106 68.1384 169.888C68.9646 166.516 71.6161 159.738 64.1383 159.388C62.605 157.382 61.5025 154.426 61.2134 149.245C61.3188 148.348 61.3059 147.395 61.1383 146.388C61.1383 141.388 66.4198 134.839 65.1783 132.388C67.7105 137.388 75.6383 137.888 78.1383 136.388C75.1383 130.388 68.6999 128.705 65.1783 132.388C65.1783 126.888 62.7305 120.198 61.1383 115.888C59.5855 111.685 65.3127 101.777 64.1383 97.388C74.52 110.744 80.2743 110.343 85.6383 106.388C73.5237 94.7376 68.7803 94.1437 64.1383 97.388C62.724 92.1023 55.6738 86.7921 54.7448 81.388C53.9456 76.7393 60.6261 69.0102 60.1383 64.388C67.9138 79.1882 71.46 75.6922 77.1383 72.388C68.1332 60.7805 65.3043 62.4141 60.1383 64.388C59.4663 58.0199 57.3186 55.7519 57.1381 49.6724C57.1381 39.888 64.2825 39.388 64.2825 30.888C67.1325 38.6073 66.5673 54.6474 79.6579 49.6725C78.1725 44.9599 80.648 33.1292 64.2825 30.888C64.2825 39.388 57.1381 39.888 57.1381 49.6724C41.8744 43.755 36.8274 52.7697 34.6383 61.388C39.9955 62.8106 49.4778 67.8531 57.1381 49.6724C57.3186 55.7519 59.4663 58.0199 60.1383 64.388C60.6261 69.0102 53.9456 76.7393 54.7448 81.388C46.9478 80.5317 35.0531 82.3635 37.0241 102.545C41.599 102.991 48.9828 100.584 54.7448 81.388C55.6738 86.7921 62.724 92.1023 64.1383 97.388C65.3127 101.777 59.5855 111.685 61.1383 115.888Z" fill="#01B850"/>
<path d="M64.1384 5.38782C64.1384 3.88782 65.104 -2.85522 64.2825 30.888M66.6384 164.388C65.0569 162.665 65.5675 161.257 64.1383 159.388M61.1383 115.888C52.8053 114.722 47.2819 122.663 49.6382 133.388C54.5754 130.603 62.71 124.819 61.1383 115.888ZM61.1383 115.888C62.7305 120.198 65.1783 126.888 65.1783 132.388M61.1383 115.888C59.5855 111.685 65.3127 101.777 64.1383 97.388M64.1383 159.388C63.8022 161.746 61.8367 167.106 68.1384 169.888C68.9646 166.516 71.6161 159.738 64.1383 159.388ZM64.1383 159.388C62.343 157.039 61.1383 153.388 61.1383 146.388M61.1383 146.388C57.7416 147.178 52.2807 149.756 55.6384 157.888C58.0337 156.1 62.0924 152.125 61.1383 146.388ZM61.1383 146.388C61.1383 141.388 66.4198 134.839 65.1783 132.388M65.1783 132.388C68.6999 128.705 75.1383 130.388 78.1383 136.388C75.6383 137.888 67.7105 137.388 65.1783 132.388ZM64.1383 97.388C68.7803 94.1437 73.5237 94.7376 85.6383 106.388C80.2743 110.343 74.52 110.744 64.1383 97.388ZM64.1383 97.388C62.724 92.1023 55.6738 86.7921 54.7448 81.388M54.7448 81.388C46.9478 80.5317 35.0531 82.3635 37.0241 102.545C41.599 102.991 48.9828 100.584 54.7448 81.388ZM54.7448 81.388C53.9456 76.7393 60.6261 69.0102 60.1383 64.388M60.1383 64.388C65.3043 62.4141 68.1332 60.7805 77.1383 72.388C71.46 75.6922 67.9138 79.1882 60.1383 64.388ZM60.1383 64.388C59.4663 58.0199 57.3186 55.7519 57.1381 49.6724M57.1381 49.6724C41.8744 43.755 36.8274 52.7697 34.6383 61.388C39.9955 62.8106 49.4778 67.8531 57.1381 49.6724ZM57.1381 49.6724C57.1381 39.888 64.2825 39.388 64.2825 30.888M64.2825 30.888C67.1324 38.6073 66.5673 54.6474 79.6579 49.6725C78.1725 44.9599 80.648 33.1292 64.2825 30.888Z" stroke="#01B850"/>
<path d="M88.9854 145.861C99.4095 144.403 106.319 154.336 103.371 167.752C97.1951 164.269 87.0193 157.033 88.9854 145.861C86.9936 151.252 83.9316 159.621 83.9316 166.501C82.3786 169.568 88.9854 177.76 88.9854 184.014C93.2345 185.003 100.066 188.228 95.8654 198.4C93.3952 196.556 89.5108 192.853 88.8915 187.588C88.5298 194.069 87.1507 197.768 85.2326 200.277C85.653 203.226 88.1117 209.931 80.2287 213.411C79.1952 209.194 75.8783 200.714 85.2326 200.277C87.1507 197.768 88.5298 194.069 88.8915 187.588C88.7596 186.467 88.7758 185.275 88.9854 184.014C88.9854 177.76 82.3786 169.568 83.9316 166.501C80.7639 172.756 70.8467 173.381 67.7194 171.505C71.4722 163.999 79.5263 161.894 83.9316 166.501C83.9316 159.621 86.9936 151.252 88.9854 145.861C90.9278 140.603 83.7634 128.209 85.2326 122.719C72.2457 139.427 65.0475 138.925 58.3374 133.977C73.492 119.403 79.4257 118.66 85.2326 122.719C87.0017 116.106 95.8211 109.464 96.9833 102.704C97.983 96.8883 89.6262 87.2196 90.2363 81.4376C80.5096 99.9517 76.0736 95.5785 68.9704 91.4451C80.2352 76.9248 83.7739 78.9683 90.2363 81.4376C91.0769 73.4714 93.7637 70.6343 93.9894 63.0292C93.9894 50.7896 85.0522 50.1641 85.0522 39.5311C81.4871 49.1875 82.194 69.2527 65.8185 63.0293C67.6766 57.1342 64.5799 42.3347 85.0522 39.5311C85.0522 50.1641 93.9894 50.7896 93.9894 63.0292C113.083 55.6269 119.397 66.9038 122.135 77.6848C115.434 79.4643 103.572 85.7721 93.9894 63.0292C93.7637 70.6343 91.0769 73.4714 90.2363 81.4376C89.6262 87.2196 97.983 96.8883 96.9833 102.704C106.737 101.632 121.616 103.924 119.151 129.169C113.428 129.727 104.191 126.716 96.9833 102.704C95.8211 109.464 87.0017 116.106 85.2326 122.719C83.7634 128.209 90.9278 140.603 88.9854 145.861Z" fill="#01B850"/>
<path d="M85.2324 7.63191C85.2324 5.75551 84.0246 -2.67963 85.0522 39.5311M82.1051 206.531C84.0834 204.376 83.4447 202.615 85.2326 200.277M88.9854 145.861C99.4095 144.403 106.319 154.336 103.371 167.752C97.1951 164.269 87.0193 157.033 88.9854 145.861ZM88.9854 145.861C86.9936 151.252 83.9316 159.621 83.9316 166.501M88.9854 145.861C90.9278 140.603 83.7634 128.209 85.2326 122.719M85.2326 200.277C85.653 203.226 88.1117 209.931 80.2287 213.411C79.1952 209.194 75.8783 200.714 85.2326 200.277ZM85.2326 200.277C87.4784 197.339 88.9854 192.771 88.9854 184.014M88.9854 184.014C93.2345 185.003 100.066 188.228 95.8654 198.4C92.8691 196.164 87.7918 191.191 88.9854 184.014ZM88.9854 184.014C88.9854 177.76 82.3786 169.568 83.9316 166.501M83.9316 166.501C79.5263 161.894 71.4722 163.999 67.7194 171.505C70.8467 173.381 80.7639 172.756 83.9316 166.501ZM85.2326 122.719C79.4257 118.66 73.492 119.403 58.3374 133.977C65.0475 138.925 72.2457 139.427 85.2326 122.719ZM85.2326 122.719C87.0017 116.106 95.8211 109.464 96.9833 102.704M96.9833 102.704C106.737 101.632 121.616 103.924 119.151 129.169C113.428 129.727 104.191 126.716 96.9833 102.704ZM96.9833 102.704C97.983 96.8883 89.6262 87.2196 90.2363 81.4376M90.2363 81.4376C83.7739 78.9683 80.2352 76.9248 68.9703 91.4451C76.0736 95.5785 80.5096 99.9517 90.2363 81.4376ZM90.2363 81.4376C91.0769 73.4714 93.7637 70.6343 93.9894 63.0292M93.9894 63.0292C113.083 55.6269 119.397 66.9038 122.135 77.6848C115.434 79.4643 103.572 85.7721 93.9894 63.0292ZM93.9894 63.0292C93.9894 50.7896 85.0522 50.1641 85.0522 39.5311M85.0522 39.5311C81.4871 49.1875 82.194 69.2527 65.8185 63.0293C67.6766 57.1342 64.5799 42.3347 85.0522 39.5311Z" stroke="#01B850"/>
<path d="M76.9179 86.3417C82.9373 85.4997 86.9272 91.2359 85.2251 98.9831C81.6587 96.9715 75.7826 92.7931 76.9179 86.3417C75.7677 89.4549 73.9996 94.2877 73.9996 98.2606C73.1028 100.031 76.9179 104.762 76.9179 108.374C79.3716 108.945 83.3163 110.807 80.8908 116.681C79.4644 115.616 77.2213 113.478 76.8637 110.437C76.6548 114.18 75.8584 116.316 74.7508 117.764C74.9936 119.468 76.4134 123.34 71.8613 125.349C71.2645 122.914 69.3491 118.017 74.7508 117.764C75.8584 116.316 76.6548 114.18 76.8637 110.437C76.7875 109.79 76.7969 109.101 76.9179 108.374C76.9179 104.762 73.1028 100.031 73.9996 98.2606C72.1704 101.872 66.4436 102.234 64.6377 101.15C66.8048 96.8159 71.4557 95.6003 73.9996 98.2606C73.9996 94.2877 75.7677 89.4549 76.9179 86.3417C78.0396 83.3056 73.9024 76.1486 74.7508 72.978C67.2514 82.6261 63.0948 82.3363 59.22 79.4793C67.9711 71.0634 71.3976 70.6344 74.7508 72.978C75.7724 69.1598 80.8652 65.3239 81.5363 61.4202C82.1136 58.0622 77.2879 52.4789 77.6402 49.1401C72.0235 59.8311 69.4619 57.3058 65.3601 54.919C71.865 46.5341 73.9085 47.7141 77.6402 49.1401C78.1257 44.5399 79.6771 42.9016 79.8075 38.51C79.8075 31.4422 74.6466 31.081 74.6466 24.9409C72.5879 30.517 72.9962 42.1038 63.54 38.5101C64.613 35.1059 62.8248 26.5599 74.6466 24.9409C74.6466 31.081 79.8075 31.4422 79.8075 38.51C90.8334 34.2355 94.4792 40.7474 96.0605 46.973C92.1907 48.0006 85.341 51.6431 79.8075 38.51C79.6771 42.9016 78.1257 44.5399 77.6402 49.1401C77.2879 52.4789 82.1136 58.0622 81.5363 61.4202C87.1685 60.8016 95.7608 62.1249 94.3371 76.7031C91.0324 77.0251 85.6986 75.2865 81.5363 61.4202C80.8652 65.3239 75.7724 69.1598 74.7508 72.978C73.9024 76.1486 78.0396 83.3056 76.9179 86.3417Z" fill="#01B850"/>
<path d="M75.1384 5.38794C75.1384 4.30439 74.0532 0.566071 74.6466 24.9409M72.9448 121.376C74.0872 120.131 73.7184 119.115 74.7508 117.764M76.9179 86.3417C82.9373 85.4997 86.9272 91.2359 85.2251 98.9831C81.6587 96.9715 75.7826 92.7931 76.9179 86.3417ZM76.9179 86.3417C75.7677 89.4549 73.9996 94.2877 73.9996 98.2606M76.9179 86.3417C78.0396 83.3056 73.9024 76.1486 74.7508 72.978M74.7508 117.764C74.9936 119.468 76.4134 123.34 71.8613 125.349C71.2645 122.914 69.3491 118.017 74.7508 117.764ZM74.7508 117.764C76.0477 116.068 76.9179 113.43 76.9179 108.374M76.9179 108.374C79.3716 108.945 83.3163 110.807 80.8908 116.681C79.1606 115.389 76.2287 112.518 76.9179 108.374ZM76.9179 108.374C76.9179 104.762 73.1028 100.031 73.9996 98.2606M73.9996 98.2606C71.4557 95.6003 66.8048 96.8159 64.6377 101.15C66.4436 102.234 72.1704 101.872 73.9996 98.2606ZM74.7508 72.978C71.3976 70.6344 67.9711 71.0634 59.22 79.4793C63.0948 82.3363 67.2514 82.6261 74.7508 72.978ZM74.7508 72.978C75.7724 69.1598 80.8652 65.3239 81.5363 61.4202M81.5363 61.4202C87.1685 60.8016 95.7608 62.1249 94.3371 76.7031C91.0324 77.0251 85.6986 75.2865 81.5363 61.4202ZM81.5363 61.4202C82.1136 58.0622 77.2879 52.4789 77.6402 49.1401M77.6402 49.1401C73.9085 47.7141 71.865 46.5341 65.3601 54.919C69.4619 57.3058 72.0235 59.8311 77.6402 49.1401ZM77.6402 49.1401C78.1257 44.5399 79.6771 42.9016 79.8075 38.51M79.8075 38.51C90.8334 34.2355 94.4792 40.7474 96.0605 46.973C92.1907 48.0006 85.341 51.6431 79.8075 38.51ZM79.8075 38.51C79.8075 31.4422 74.6466 31.081 74.6466 24.9409M74.6466 24.9409C72.5879 30.517 72.9962 42.1038 63.54 38.5101C64.613 35.1059 62.8248 26.5599 74.6466 24.9409Z" stroke="#01B850"/>
</svg>
