<svg width="105" height="79" viewBox="0 0 105 79" fill="none" xmlns="http://www.w3.org/2000/svg">
<path d="M15 5.84009H90" stroke="#FFBF00" stroke-width="3" stroke-linecap="round" stroke-linejoin="round"/>
<path d="M52.505 2.34509L52.505 77.3451" stroke="url(#paint0_linear_8040_149)" stroke-width="3" stroke-linecap="round" stroke-linejoin="round"/>
<path d="M78.5 24.3401L90 5.84009L101 24.3401M3.5 24.3401L15 5.84009L26 24.3401" stroke="#FFBF00" stroke-linecap="round" stroke-linejoin="round"/>
<path d="M105 22.3401C105 24.2443 104.625 26.1298 103.896 27.889C103.168 29.6482 102.099 31.2467 100.753 32.5931C99.4066 33.9396 97.8081 35.0076 96.0489 35.7363C94.2897 36.465 92.4042 36.8401 90.5 36.8401C88.5958 36.8401 86.7103 36.465 84.9511 35.7363C83.1919 35.0076 81.5934 33.9396 80.247 32.5931C78.9005 31.2467 77.8324 29.6482 77.1037 27.889C76.3751 26.1298 76 24.2443 76 22.3401L90.5 22.3401H105Z" fill="#FFBF00"/>
<path d="M29 22.3401C29 24.2443 28.6249 26.1298 27.8963 27.889C27.1676 29.6482 26.0995 31.2467 24.753 32.5931C23.4066 33.9396 21.8081 35.0076 20.0489 35.7363C18.2897 36.465 16.4042 36.8401 14.5 36.8401C12.5958 36.8401 10.7103 36.465 8.95109 35.7363C7.19187 35.0076 5.5934 33.9396 4.24695 32.5931C2.9005 31.2467 1.83244 29.6482 1.10375 27.889C0.375053 26.1298 -1.66468e-07 24.2443 0 22.3401L14.5 22.3401H29Z" fill="#FFBF00"/>
<defs>
<linearGradient id="paint0_linear_8040_149" x1="52.005" y1="2.34509" x2="52.005" y2="77.3451" gradientUnits="userSpaceOnUse">
<stop stop-color="#FFBF00"/>
<stop offset="1" stop-color="white"/>
</linearGradient>
</defs>
</svg>
