<svg width="106" height="195" viewBox="0 0 106 195" fill="none" xmlns="http://www.w3.org/2000/svg">
<path d="M82.3786 42.5075C76.3381 41.5784 73.6383 33.2158 77.517 26.247C80.3702 29.2152 85.3369 36.6228 82.3786 42.5075C84.3862 39.8419 86.5137 37.3055 88.7655 34.9383C90.141 33.4922 91.5629 32.1093 93.0321 30.7987C90.8342 29.5396 87.4467 25.7824 91.4806 20.8268C92.7735 22.5708 94.8939 27.0067 93.0321 30.7987C94.6548 29.3512 96.3352 27.9919 98.0745 26.733C98.3331 25.0224 100.091 21.4462 105.056 20.8268C104.927 23.3447 103.35 28.0511 98.0745 26.733C96.3352 27.9919 94.6548 29.3512 93.0321 30.7987C91.5629 32.1093 90.141 33.4922 88.7655 34.9383C99.9363 32.2899 104.281 37.8485 105.056 40.9589C96.0576 44.0562 90.4463 38.2357 88.7655 34.9383C86.5137 37.3055 84.3862 39.8419 82.3786 42.5075C80.4207 45.1072 78.5769 47.8296 76.8433 50.6378C86.8547 43.5142 95.1688 49.4764 98.0745 53.3479C87.214 58.923 79.3952 53.8641 76.8433 50.6378C74.7557 54.0196 72.8279 57.5256 71.0532 61.0911C69.5265 64.1581 68.113 67.2692 66.8085 70.3828C75.3082 61.7105 83.9537 66.5112 87.214 69.9957C78.5255 76.1902 69.9901 72.8348 66.8085 70.3828C65.0112 74.6726 63.4207 78.9673 62.0256 83.159C60.8791 86.604 59.8646 89.9793 58.9758 93.225C62.5704 88.4501 71.7765 80.4489 79.8443 86.6434C77.8269 89.6116 70.8288 95.0834 58.9758 93.225C59.8646 89.9793 60.8791 86.604 62.0256 83.159C50.1715 84.0881 47.7616 71.4152 48.0384 64.9626C52.0622 65.0917 60.4931 68.9116 62.0256 83.159C63.4207 78.9673 65.0112 74.6726 66.8085 70.3828C68.113 67.2692 69.5265 64.1581 71.0532 61.0911C65.4502 60.0586 55.6408 54.5868 61.2262 40.9589C64.5018 41.6042 71.0532 46.534 71.0532 61.0911C72.8279 57.5256 74.7557 54.0196 76.8433 50.6378C78.5769 47.8296 80.4207 45.1072 82.3786 42.5075Z" fill="#01B850"/>
<path d="M54.6323 113.744C55.3963 108.247 56.814 101.12 58.9758 93.225M102.341 23.924C100.881 24.7925 99.4592 25.7309 98.0745 26.733M82.3786 42.5075C76.3381 41.5784 73.6383 33.2158 77.517 26.247C80.3702 29.2152 85.3369 36.6228 82.3786 42.5075ZM82.3786 42.5075C84.3862 39.8419 86.5137 37.3055 88.7655 34.9383M82.3786 42.5075C80.4207 45.1072 78.5769 47.8296 76.8433 50.6378M98.0745 26.733C98.3331 25.0224 100.091 21.4462 105.056 20.8268C104.927 23.3447 103.35 28.0511 98.0745 26.733ZM98.0745 26.733C96.3352 27.9919 94.6548 29.3512 93.0321 30.7987M93.0321 30.7987C90.8342 29.5396 87.4467 25.7824 91.4806 20.8268C92.7735 22.5708 94.8939 27.0067 93.0321 30.7987ZM93.0321 30.7987C91.5629 32.1093 90.141 33.4922 88.7655 34.9383M88.7655 34.9383C90.4463 38.2357 96.0576 44.0562 105.056 40.9589C104.281 37.8485 99.9363 32.2899 88.7655 34.9383ZM76.8433 50.6378C79.3952 53.8641 87.214 58.923 98.0745 53.3479C95.1688 49.4764 86.8547 43.5142 76.8433 50.6378ZM76.8433 50.6378C74.7557 54.0196 72.8279 57.5256 71.0532 61.0911M71.0532 61.0911C65.4502 60.0586 55.6408 54.5868 61.2262 40.9589C64.5018 41.6042 71.0532 46.534 71.0532 61.0911ZM71.0532 61.0911C69.5265 64.1581 68.113 67.2692 66.8085 70.3828M66.8085 70.3828C69.9901 72.8348 78.5255 76.1902 87.214 69.9957C83.9537 66.5112 75.3082 61.7105 66.8085 70.3828ZM66.8085 70.3828C65.0112 74.6726 63.4207 78.9673 62.0256 83.159M62.0256 83.159C50.1715 84.0881 47.7616 71.4152 48.0384 64.9626C52.0622 65.0917 60.4931 68.9116 62.0256 83.159ZM62.0256 83.159C60.8791 86.604 59.8646 89.9793 58.9758 93.225M58.9758 93.225C62.5704 88.4501 71.7765 80.4489 79.8443 86.6434C77.8269 89.6116 70.8288 95.0834 58.9758 93.225Z" stroke="#01B850"/>
<path d="M24.6487 25.9818C30.9477 24.9111 33.7632 15.2753 29.7183 7.24544C26.743 10.6656 21.5637 19.201 24.6487 25.9818C22.5551 22.9103 20.3365 19.9877 17.9883 17.2601C16.5539 15.5938 15.0711 14.0004 13.539 12.4902C15.8311 11.0394 19.3636 6.71012 15.1569 1C13.8087 3.0095 11.5975 8.12084 13.539 12.4902C11.8469 10.8223 10.0945 9.25599 8.28073 7.80551C8.01108 5.83441 6.17742 1.71377 1.00004 1C1.13487 3.90129 2.77976 9.3242 8.28073 7.80551C10.0945 9.25599 11.8469 10.8223 13.539 12.4902C15.0711 14.0004 16.5539 15.5938 17.9883 17.2601C6.33921 14.2084 1.80901 20.6134 1.00004 24.1974C10.384 27.7662 16.2356 21.0595 17.9883 17.2601C20.3365 19.9877 22.5551 22.9103 24.6487 25.9818C26.6904 28.9772 28.6131 32.1142 30.4209 35.3499C19.9809 27.1416 11.3108 34.0116 8.28073 38.4727C19.6063 44.8966 27.7598 39.0675 30.4209 35.3499C32.5979 39.2466 34.6082 43.2865 36.4589 47.3947C38.051 50.9288 39.525 54.5135 40.8853 58.1012C32.0217 48.1085 23.0061 53.6402 19.6063 57.6551C28.6667 64.7928 37.5675 60.9265 40.8853 58.1012C42.7596 63.0441 44.4182 67.9928 45.8729 72.8226C47.0686 76.7921 48.1265 80.6814 49.0534 84.4213C45.3049 78.9193 35.7047 69.6999 27.2914 76.8375C29.3952 80.2577 36.6929 86.5626 49.0534 84.4213C48.1265 80.6814 47.0686 76.7921 45.8729 72.8226C58.2346 73.8933 60.7477 59.2908 60.459 51.8558C56.2629 52.0045 47.4711 56.406 45.8729 72.8226C44.4182 67.9928 42.7596 63.0441 40.8853 58.1012C39.525 54.5135 38.051 50.9288 36.4589 47.3947C42.3017 46.2051 52.5312 39.9002 46.7066 24.1974C43.2907 24.9409 36.4589 30.6213 36.4589 47.3947C34.6082 43.2865 32.5979 39.2466 30.4209 35.3499C28.6131 32.1142 26.6904 28.9772 24.6487 25.9818Z" fill="#01B850"/>
<path d="M53.5828 108.065C52.7861 101.731 51.3077 93.5179 49.0534 84.4213M3.83142 4.56883C5.35395 5.56956 6.83683 6.65084 8.28073 7.80551M24.6487 25.9818C30.9477 24.9111 33.7632 15.2753 29.7183 7.24544C26.743 10.6656 21.5637 19.201 24.6487 25.9818ZM24.6487 25.9818C22.5551 22.9103 20.3365 19.9877 17.9883 17.2601M24.6487 25.9818C26.6904 28.9772 28.6131 32.1142 30.4209 35.3499M8.28073 7.80551C8.01108 5.83441 6.17742 1.71377 1.00004 1C1.13487 3.90129 2.77976 9.3242 8.28073 7.80551ZM8.28073 7.80551C10.0945 9.25599 11.8469 10.8223 13.539 12.4902M13.539 12.4902C15.8311 11.0394 19.3636 6.71012 15.1569 1C13.8087 3.0095 11.5975 8.12084 13.539 12.4902ZM13.539 12.4902C15.0711 14.0004 16.5539 15.5938 17.9883 17.2601M17.9883 17.2601C16.2356 21.0595 10.384 27.7662 1.00004 24.1974C1.80901 20.6134 6.33921 14.2084 17.9883 17.2601ZM30.4209 35.3499C27.7598 39.0675 19.6063 44.8966 8.28073 38.4727C11.3108 34.0116 19.9809 27.1416 30.4209 35.3499ZM30.4209 35.3499C32.5979 39.2466 34.6082 43.2865 36.4589 47.3947M36.4589 47.3947C42.3017 46.2051 52.5312 39.9002 46.7066 24.1974C43.2907 24.9409 36.4589 30.6213 36.4589 47.3947ZM36.4589 47.3947C38.051 50.9288 39.525 54.5135 40.8853 58.1012M40.8853 58.1012C37.5675 60.9265 28.6667 64.7928 19.6063 57.6551C23.0061 53.6402 32.0217 48.1085 40.8853 58.1012ZM40.8853 58.1012C42.7596 63.0441 44.4182 67.9928 45.8729 72.8226M45.8729 72.8226C58.2346 73.8933 60.7477 59.2908 60.459 51.8558C56.2629 52.0045 47.4711 56.406 45.8729 72.8226ZM45.8729 72.8226C47.0686 76.7921 48.1265 80.6814 49.0534 84.4213M49.0534 84.4213C45.3049 78.9194 35.7047 69.6999 27.2914 76.8375C29.3952 80.2577 36.6929 86.5626 49.0534 84.4213Z" stroke="#01B850"/>
<path d="M23.9116 72.9618C27.751 72.3783 29.4671 67.1271 27.0017 62.751C25.1882 64.6149 22.0313 69.2665 23.9116 72.9618C22.6356 71.2879 21.2832 69.6952 19.852 68.2087C18.9776 67.3007 18.0739 66.4323 17.14 65.6093C18.5371 64.8186 20.6902 62.4593 18.1262 59.3474C17.3044 60.4425 15.9566 63.2281 17.14 65.6093C16.1086 64.7003 15.0405 63.8467 13.935 63.0562C13.7706 61.982 12.653 59.7364 9.49722 59.3474C9.5794 60.9285 10.582 63.8839 13.935 63.0562C15.0405 63.8467 16.1086 64.7003 17.14 65.6093C18.0739 66.4323 18.9776 67.3007 19.852 68.2087C12.7516 66.5457 9.9903 70.0362 9.49722 71.9894C15.217 73.9343 18.7836 70.2793 19.852 68.2087C21.2832 69.6952 22.6356 71.2879 23.9116 72.9618C25.1561 74.5942 26.328 76.3038 27.4299 78.0672C21.0665 73.5939 15.7819 77.3379 13.935 79.769C20.8382 83.2699 25.8079 80.0932 27.4299 78.0672C28.7569 80.1908 29.9822 82.3924 31.1103 84.6313C32.0807 86.5573 32.9791 88.5109 33.8083 90.4661C28.4057 85.0203 22.9104 88.0349 20.8381 90.2229C26.3607 94.1128 31.7859 92.0058 33.8083 90.4661C34.9506 93.1598 35.9616 95.8567 36.8483 98.4888C44.3831 99.0723 45.9148 91.1144 45.7389 87.0625C43.1813 87.1435 37.8224 89.5422 36.8483 98.4888C35.9616 95.8567 34.9506 93.1598 33.8083 90.4661C32.9791 88.5109 32.0807 86.5573 31.1103 84.6313C34.6716 83.983 40.9067 80.547 37.3565 71.9894C35.2744 72.3946 31.1103 75.4902 31.1103 84.6313C29.9822 82.3924 28.7569 80.1908 27.4299 78.0672C26.328 76.3038 25.1561 74.5942 23.9116 72.9618Z" fill="#01B850"/>
<path d="M41.5477 117.695C41.0621 114.243 40.1609 109.767 38.7869 104.81C38.2219 102.772 37.5771 100.652 36.8483 98.4888M11.223 61.2923C12.151 61.8377 13.0549 62.427 13.935 63.0562M23.9116 72.9618C27.751 72.3783 29.4671 67.1271 27.0017 62.751C25.1882 64.6149 22.0313 69.2665 23.9116 72.9618ZM23.9116 72.9618C22.6356 71.2879 21.2832 69.6952 19.852 68.2087M23.9116 72.9618C25.1561 74.5942 26.328 76.3038 27.4299 78.0672M13.935 63.0562C13.7706 61.982 12.653 59.7364 9.49722 59.3474C9.5794 60.9285 10.582 63.8839 13.935 63.0562ZM13.935 63.0562C15.0405 63.8467 16.1086 64.7003 17.14 65.6093M17.14 65.6093C18.5371 64.8186 20.6902 62.4593 18.1262 59.3474C17.3044 60.4425 15.9566 63.2281 17.14 65.6093ZM17.14 65.6093C18.0739 66.4323 18.9776 67.3007 19.852 68.2087M19.852 68.2087C18.7836 70.2793 15.217 73.9343 9.49722 71.9894C9.9903 70.0362 12.7516 66.5457 19.852 68.2087ZM27.4299 78.0672C25.8079 80.0932 20.8382 83.2699 13.935 79.769C15.7819 77.3379 21.0665 73.5939 27.4299 78.0672ZM27.4299 78.0672C28.7569 80.1908 29.9822 82.3924 31.1103 84.6313M31.1103 84.6313C34.6716 83.983 40.9067 80.547 37.3565 71.9894C35.2744 72.3946 31.1103 75.4902 31.1103 84.6313ZM31.1103 84.6313C32.0807 86.5573 32.9791 88.5109 33.8083 90.4661M33.8083 90.4661C31.7859 92.0058 26.3607 94.1128 20.8381 90.2229C22.9104 88.0349 28.4057 85.0203 33.8083 90.4661ZM33.8083 90.4661C34.9506 93.1598 35.9616 95.8567 36.8483 98.4888M36.8483 98.4888C44.3831 99.0723 45.9148 91.1144 45.7389 87.0625C43.1813 87.1435 37.8224 89.5422 36.8483 98.4888Z" stroke="#01B850"/>
<path d="M29.1857 103.533H66.8564C86.4 134.689 84.7005 163.297 66.8564 194.17H29.1857C11.0581 164.43 9.9253 140.071 29.1857 103.533Z" fill="#446F9D"/>
<path d="M56.7982 103.533H66.8564C86.3999 134.689 84.7005 163.297 66.8564 194.17H56.7982V103.533Z" fill="black" fill-opacity="0.09"/>
</svg>
