<svg width="124" height="63" viewBox="0 0 124 63" fill="none" xmlns="http://www.w3.org/2000/svg">
<path d="M31.5 8C31.5 3.58172 35.0817 0 39.5 0H115.375C119.793 0 123.375 3.58172 123.375 8V55C123.375 59.4183 119.793 63 115.375 63H0L31.5 51.625V8Z" fill="#FFBF00"/>
<path d="M55.0637 41.125C54.5912 41.125 54.25 41.02 54.04 40.81C53.83 40.5825 53.725 40.2762 53.725 39.8912C53.725 39.6462 53.7862 39.41 53.9087 39.1825C54.0312 38.955 54.2062 38.7187 54.4337 38.4737L60.025 32.4887C60.8825 31.5787 61.495 30.7475 61.8625 29.995C62.2475 29.225 62.44 28.455 62.44 27.685C62.44 26.705 62.1425 25.9612 61.5475 25.4537C60.9525 24.9462 60.0775 24.6925 58.9225 24.6925C58.2225 24.6925 57.5487 24.7975 56.9012 25.0075C56.2537 25.2175 55.6062 25.5587 54.9587 26.0312C54.6962 26.2062 54.4512 26.285 54.2237 26.2675C53.9962 26.25 53.795 26.1625 53.62 26.005C53.4625 25.8475 53.3575 25.655 53.305 25.4275C53.2525 25.2 53.2612 24.9637 53.3312 24.7187C53.4012 24.4737 53.5675 24.2637 53.83 24.0887C54.5475 23.5462 55.3787 23.1262 56.3237 22.8287C57.2687 22.5312 58.2312 22.3825 59.2112 22.3825C60.4887 22.3825 61.565 22.5837 62.44 22.9862C63.3325 23.3712 64.0062 23.94 64.4612 24.6925C64.9162 25.445 65.1437 26.3637 65.1437 27.4487C65.1437 28.1837 65.0212 28.9012 64.7762 29.6012C64.5487 30.3012 64.19 31.0187 63.7 31.7537C63.2275 32.4712 62.6062 33.2325 61.8362 34.0375L56.5337 39.6025V38.8412H64.8812C65.2662 38.8412 65.5637 38.9375 65.7737 39.13C65.9837 39.3225 66.0887 39.6025 66.0887 39.97C66.0887 40.3375 65.9837 40.6262 65.7737 40.8362C65.5637 41.0287 65.2662 41.125 64.8812 41.125H55.0637Z" fill="white"/>
<path d="M78.2847 41.3087C77.8647 41.3087 77.5322 41.195 77.2872 40.9675C77.0422 40.7225 76.9197 40.39 76.9197 39.97V37.3712H69.8847C69.4472 37.3712 69.0972 37.275 68.8347 37.0825C68.5722 36.89 68.441 36.5925 68.441 36.19C68.441 35.9625 68.4935 35.7175 68.5985 35.455C68.721 35.1925 68.931 34.8512 69.2285 34.4312L76.8672 23.3275C77.0597 23.03 77.2785 22.8112 77.5235 22.6712C77.7685 22.5137 78.0485 22.435 78.3635 22.435C78.731 22.435 79.0285 22.5487 79.256 22.7762C79.501 22.9862 79.6235 23.3187 79.6235 23.7737V35.0875H81.2772C81.6972 35.0875 82.0035 35.1837 82.196 35.3762C82.406 35.5687 82.511 35.8487 82.511 36.2162C82.511 36.6012 82.406 36.89 82.196 37.0825C82.0035 37.275 81.6972 37.3712 81.2772 37.3712H79.6235V39.97C79.6235 40.39 79.501 40.7225 79.256 40.9675C79.0285 41.195 78.7047 41.3087 78.2847 41.3087ZM76.9197 35.0875V25.8212H77.6285L70.7772 35.8225V35.0875H76.9197Z" fill="white"/>
<path d="M84.942 41.965C84.8545 42.245 84.7145 42.4462 84.522 42.5687C84.3295 42.6912 84.1195 42.7525 83.892 42.7525C83.6645 42.7525 83.4545 42.6912 83.262 42.5687C83.087 42.4637 82.9645 42.3062 82.8945 42.0962C82.807 41.8862 82.807 41.6325 82.8945 41.335L89.0632 22.225C89.1507 21.945 89.2907 21.7437 89.4832 21.6212C89.6757 21.4812 89.877 21.42 90.087 21.4375C90.3145 21.4375 90.5157 21.4987 90.6907 21.6212C90.8832 21.7262 91.0145 21.8837 91.0845 22.0937C91.172 22.2862 91.1807 22.5312 91.1107 22.8287L84.942 41.965Z" fill="white"/>
<path d="M95.36 41.3087C95.045 41.3087 94.7737 41.2387 94.5462 41.0987C94.3362 40.9412 94.2049 40.7312 94.1525 40.4687C94.1175 40.1887 94.1787 39.8825 94.3362 39.55L102.552 23.8787V24.9025H93.5225C93.1375 24.9025 92.84 24.8062 92.63 24.6137C92.42 24.4037 92.3149 24.1237 92.3149 23.7737C92.3149 23.4062 92.42 23.1262 92.63 22.9337C92.84 22.7237 93.1375 22.6187 93.5225 22.6187H103.839C104.224 22.6187 104.53 22.7237 104.757 22.9337C105.002 23.1262 105.125 23.4062 105.125 23.7737C105.125 24.0887 105.081 24.36 104.994 24.5875C104.924 24.815 104.819 25.0687 104.679 25.3487L96.8825 40.4162C96.725 40.7312 96.5237 40.9587 96.2787 41.0987C96.0337 41.2387 95.7275 41.3087 95.36 41.3087Z" fill="white"/>
<path d="M98.875 0H115.375C119.793 0 123.375 3.58172 123.375 8V55C123.375 59.4183 119.793 63 115.375 63H82.6875L98.875 0Z" fill="black" fill-opacity="0.11"/>
</svg>
