<svg width="722" height="442" viewBox="0 0 722 442" fill="none" xmlns="http://www.w3.org/2000/svg">
<rect width="722" height="442" fill="#ECEFFF"/>
<g filter="url(#filter0_d_8040_6)">
<rect x="27" y="231.046" width="320.911" height="188.124" rx="20" fill="white"/>
</g>
<circle cx="70.119" cy="288.529" r="31" fill="#FFE7D6"/>
<path d="M62.8344 292H61.5944L64.1624 287.384H61.5064V286.32H65.4664V287.264L62.8344 292ZM67.1781 292H65.9381L68.5061 287.384H65.8501V286.32H69.8101V287.264L67.1781 292ZM72.6099 292H71.4739L75.0739 286.32H76.2099L72.6099 292ZM75.9619 292.064C75.5245 292.064 75.1512 291.909 74.8419 291.6C74.5379 291.291 74.3859 290.92 74.3859 290.488C74.3859 290.051 74.5379 289.68 74.8419 289.376C75.1512 289.067 75.5245 288.912 75.9619 288.912C76.3939 288.912 76.7645 289.067 77.0739 289.376C77.3832 289.68 77.5379 290.051 77.5379 290.488C77.5379 290.92 77.3832 291.291 77.0739 291.6C76.7645 291.909 76.3939 292.064 75.9619 292.064ZM75.5059 290.944C75.6339 291.072 75.7859 291.136 75.9619 291.136C76.1379 291.136 76.2872 291.072 76.4099 290.944C76.5325 290.816 76.5939 290.664 76.5939 290.488C76.5939 290.312 76.5325 290.16 76.4099 290.032C76.2872 289.904 76.1379 289.84 75.9619 289.84C75.7859 289.84 75.6339 289.904 75.5059 290.032C75.3832 290.16 75.3219 290.312 75.3219 290.488C75.3219 290.664 75.3832 290.816 75.5059 290.944ZM71.7219 289.408C71.2845 289.408 70.9112 289.253 70.6019 288.944C70.2979 288.635 70.1459 288.264 70.1459 287.832C70.1459 287.395 70.2979 287.024 70.6019 286.72C70.9112 286.411 71.2845 286.256 71.7219 286.256C72.1539 286.256 72.5245 286.411 72.8339 286.72C73.1432 287.024 73.2979 287.395 73.2979 287.832C73.2979 288.264 73.1432 288.635 72.8339 288.944C72.5245 289.253 72.1539 289.408 71.7219 289.408ZM71.2659 288.288C71.3939 288.416 71.5459 288.48 71.7219 288.48C71.8979 288.48 72.0472 288.416 72.1699 288.288C72.2979 288.16 72.3619 288.008 72.3619 287.832C72.3619 287.656 72.2979 287.504 72.1699 287.376C72.0472 287.248 71.8979 287.184 71.7219 287.184C71.5459 287.184 71.3939 287.248 71.2659 287.376C71.1432 287.504 71.0819 287.656 71.0819 287.832C71.0819 288.008 71.1432 288.16 71.2659 288.288Z" fill="#F76A00"/>
<path d="M42.4565 288.529C40.6133 288.529 39.1004 290.028 39.2985 291.86C39.8338 296.813 41.5574 301.582 44.3435 305.752C47.7498 310.85 52.5913 314.823 58.2558 317.169C63.9203 319.516 70.1534 320.13 76.1668 318.933C82.1802 317.737 87.7039 314.785 92.0393 310.449C96.3748 306.114 99.3272 300.59 100.523 294.577C101.72 288.563 101.106 282.33 98.7593 276.666C96.413 271.001 92.4396 266.16 87.3417 262.753C83.1721 259.967 78.4033 258.244 73.4501 257.709C71.6176 257.51 70.119 259.023 70.119 260.867C70.119 262.71 71.6202 264.18 73.4461 264.433C77.0767 264.934 80.5621 266.251 83.6333 268.304C87.6335 270.976 90.7513 274.775 92.5924 279.22C94.4335 283.665 94.9152 288.556 93.9767 293.275C93.0381 297.993 90.7213 302.328 87.3194 305.729C83.9175 309.131 79.5832 311.448 74.8646 312.387C70.146 313.325 65.255 312.844 60.8102 311.002C56.3654 309.161 52.5664 306.044 49.8935 302.043C47.8414 298.972 46.5239 295.487 46.0226 291.856C45.7705 290.03 44.2997 288.529 42.4565 288.529Z" fill="#F76A00"/>
<ellipse cx="146.485" cy="288.529" rx="30.7737" ry="31" fill="#FFF1C9"/>
<path d="M140.67 292.088C140.078 292.088 139.601 291.904 139.238 291.536C138.875 291.163 138.694 290.693 138.694 290.128C138.694 289.861 138.742 289.629 138.838 289.432C138.934 289.229 139.105 288.957 139.35 288.616L141.046 286.32H142.398L140.934 288.312C141.382 288.333 141.779 288.509 142.126 288.84C142.478 289.171 142.654 289.6 142.654 290.128C142.654 290.693 142.473 291.163 142.11 291.536C141.747 291.904 141.267 292.088 140.67 292.088ZM140.67 291.032C140.926 291.032 141.137 290.947 141.302 290.776C141.467 290.605 141.55 290.395 141.55 290.144C141.55 289.899 141.465 289.688 141.294 289.512C141.129 289.336 140.921 289.248 140.67 289.248C140.419 289.248 140.211 289.336 140.046 289.512C139.881 289.683 139.798 289.893 139.798 290.144C139.798 290.395 139.881 290.605 140.046 290.776C140.211 290.947 140.419 291.032 140.67 291.032ZM144.013 292V287.4H142.813L143.613 286.32H145.109V292H144.013ZM148.43 292H147.294L150.894 286.32H152.03L148.43 292ZM151.782 292.064C151.345 292.064 150.972 291.909 150.662 291.6C150.358 291.291 150.206 290.92 150.206 290.488C150.206 290.051 150.358 289.68 150.662 289.376C150.972 289.067 151.345 288.912 151.782 288.912C152.214 288.912 152.585 289.067 152.894 289.376C153.204 289.68 153.358 290.051 153.358 290.488C153.358 290.92 153.204 291.291 152.894 291.6C152.585 291.909 152.214 292.064 151.782 292.064ZM151.326 290.944C151.454 291.072 151.606 291.136 151.782 291.136C151.958 291.136 152.108 291.072 152.23 290.944C152.353 290.816 152.414 290.664 152.414 290.488C152.414 290.312 152.353 290.16 152.23 290.032C152.108 289.904 151.958 289.84 151.782 289.84C151.606 289.84 151.454 289.904 151.326 290.032C151.204 290.16 151.142 290.312 151.142 290.488C151.142 290.664 151.204 290.816 151.326 290.944ZM147.542 289.408C147.105 289.408 146.732 289.253 146.422 288.944C146.118 288.635 145.966 288.264 145.966 287.832C145.966 287.395 146.118 287.024 146.422 286.72C146.732 286.411 147.105 286.256 147.542 286.256C147.974 286.256 148.345 286.411 148.654 286.72C148.964 287.024 149.118 287.395 149.118 287.832C149.118 288.264 148.964 288.635 148.654 288.944C148.345 289.253 147.974 289.408 147.542 289.408ZM147.086 288.288C147.214 288.416 147.366 288.48 147.542 288.48C147.718 288.48 147.868 288.416 147.99 288.288C148.118 288.16 148.182 288.008 148.182 287.832C148.182 287.656 148.118 287.504 147.99 287.376C147.868 287.248 147.718 287.184 147.542 287.184C147.366 287.184 147.214 287.248 147.086 287.376C146.964 287.504 146.902 287.656 146.902 287.832C146.902 288.008 146.964 288.16 147.086 288.288Z" fill="#FFBF00"/>
<path d="M127.503 308.107C126.216 309.403 126.205 311.512 127.623 312.663C130.691 315.155 134.214 317.036 138.004 318.194C142.847 319.674 147.978 319.928 152.941 318.933C157.905 317.939 162.548 315.727 166.46 312.492C170.372 309.258 173.432 305.102 175.369 300.392C177.305 295.682 178.059 290.564 177.563 285.491C177.067 280.417 175.336 275.545 172.525 271.306C169.713 267.068 165.907 263.593 161.444 261.189C157.965 259.316 154.17 258.139 150.268 257.711C148.436 257.51 146.937 259.023 146.937 260.867C146.937 262.71 148.439 264.18 150.264 264.436C153.074 264.83 155.803 265.721 158.32 267.076C161.823 268.962 164.809 271.689 167.015 275.015C169.222 278.341 170.579 282.164 170.969 286.145C171.358 290.126 170.766 294.142 169.247 297.838C167.727 301.534 165.326 304.795 162.256 307.333C159.187 309.87 155.543 311.606 151.648 312.387C147.754 313.167 143.728 312.968 139.928 311.807C137.197 310.972 134.642 309.659 132.379 307.936C130.91 306.818 128.803 306.797 127.503 308.107Z" fill="#FFBF00"/>
<circle cx="224" cy="289" r="31" fill="#FFDEDC"/>
<path d="M218.847 291.568C218.463 291.915 217.983 292.088 217.407 292.088C216.831 292.088 216.351 291.915 215.967 291.568C215.583 291.221 215.391 290.784 215.391 290.256C215.391 289.637 215.633 289.184 216.119 288.896C215.793 288.603 215.631 288.224 215.631 287.76C215.631 287.317 215.793 286.952 216.119 286.664C216.449 286.371 216.879 286.224 217.407 286.224C217.935 286.224 218.361 286.371 218.687 286.664C219.017 286.952 219.183 287.317 219.183 287.76C219.183 288.219 219.02 288.595 218.695 288.888C219.18 289.187 219.423 289.643 219.423 290.256C219.423 290.784 219.231 291.221 218.847 291.568ZM217.407 291.072C217.673 291.072 217.887 290.992 218.047 290.832C218.212 290.667 218.295 290.467 218.295 290.232C218.295 289.997 218.212 289.8 218.047 289.64C217.887 289.475 217.673 289.392 217.407 289.392C217.135 289.392 216.919 289.475 216.759 289.64C216.599 289.8 216.519 289.997 216.519 290.232C216.519 290.467 216.599 290.667 216.759 290.832C216.919 290.992 217.135 291.072 217.407 291.072ZM216.895 288.328C217.033 288.451 217.204 288.512 217.407 288.512C217.609 288.512 217.777 288.451 217.911 288.328C218.049 288.2 218.119 288.043 218.119 287.856C218.119 287.669 218.049 287.515 217.911 287.392C217.777 287.264 217.609 287.2 217.407 287.2C217.204 287.2 217.033 287.264 216.895 287.392C216.761 287.515 216.695 287.669 216.695 287.856C216.695 288.043 216.761 288.2 216.895 288.328ZM221.358 292H220.118L222.686 287.384H220.03V286.32H223.99V287.264L221.358 292ZM226.79 292H225.654L229.254 286.32H230.39L226.79 292ZM230.142 292.064C229.704 292.064 229.331 291.909 229.022 291.6C228.718 291.291 228.566 290.92 228.566 290.488C228.566 290.051 228.718 289.68 229.022 289.376C229.331 289.067 229.704 288.912 230.142 288.912C230.574 288.912 230.944 289.067 231.254 289.376C231.563 289.68 231.718 290.051 231.718 290.488C231.718 290.92 231.563 291.291 231.254 291.6C230.944 291.909 230.574 292.064 230.142 292.064ZM229.686 290.944C229.814 291.072 229.966 291.136 230.142 291.136C230.318 291.136 230.467 291.072 230.59 290.944C230.712 290.816 230.774 290.664 230.774 290.488C230.774 290.312 230.712 290.16 230.59 290.032C230.467 289.904 230.318 289.84 230.142 289.84C229.966 289.84 229.814 289.904 229.686 290.032C229.563 290.16 229.502 290.312 229.502 290.488C229.502 290.664 229.563 290.816 229.686 290.944ZM225.902 289.408C225.464 289.408 225.091 289.253 224.782 288.944C224.478 288.635 224.326 288.264 224.326 287.832C224.326 287.395 224.478 287.024 224.782 286.72C225.091 286.411 225.464 286.256 225.902 286.256C226.334 286.256 226.704 286.411 227.014 286.72C227.323 287.024 227.478 287.395 227.478 287.832C227.478 288.264 227.323 288.635 227.014 288.944C226.704 289.253 226.334 289.408 225.902 289.408ZM225.446 288.288C225.574 288.416 225.726 288.48 225.902 288.48C226.078 288.48 226.227 288.416 226.35 288.288C226.478 288.16 226.542 288.008 226.542 287.832C226.542 287.656 226.478 287.504 226.35 287.376C226.227 287.248 226.078 287.184 225.902 287.184C225.726 287.184 225.574 287.248 225.446 287.376C225.323 287.504 225.262 287.656 225.262 287.832C225.262 288.008 225.323 288.16 225.446 288.288Z" fill="#F76A00"/>
<path d="M202.841 271.181C201.432 269.993 199.309 270.165 198.28 271.694C194.983 276.595 193.14 282.358 193.008 288.309C192.85 295.377 195.113 302.287 199.422 307.892C203.731 313.498 209.826 317.462 216.697 319.128C223.568 320.793 230.802 320.06 237.199 317.049C243.597 314.039 248.773 308.933 251.869 302.577C254.965 296.221 255.796 288.997 254.223 282.104C252.651 275.211 248.769 269.063 243.222 264.679C238.552 260.988 232.937 258.734 227.06 258.151C225.225 257.969 223.74 259.495 223.756 261.339V261.339C223.773 263.182 225.287 264.639 227.115 264.875C231.467 265.437 235.608 267.169 239.083 269.916C243.436 273.356 246.482 278.18 247.716 283.589C248.95 288.998 248.298 294.666 245.868 299.653C243.438 304.641 239.377 308.648 234.357 311.01C229.338 313.372 223.661 313.947 218.27 312.64C212.878 311.334 208.095 308.223 204.714 303.825C201.333 299.426 199.557 294.004 199.681 288.458C199.78 284.029 201.085 279.734 203.426 276.023C204.409 274.464 204.251 272.368 202.841 271.181V271.181Z" fill="#F00800"/>
<ellipse cx="299.669" cy="288.529" rx="30.7737" ry="31" fill="#D4FFF5"/>
<path d="M292.514 292.088C291.981 292.088 291.514 291.923 291.114 291.592C290.72 291.261 290.512 290.848 290.49 290.352H291.626C291.674 290.544 291.778 290.701 291.938 290.824C292.104 290.947 292.296 291.008 292.514 291.008C292.792 291.008 293.008 290.925 293.162 290.76C293.322 290.589 293.402 290.379 293.402 290.128C293.402 289.872 293.32 289.661 293.154 289.496C292.994 289.331 292.786 289.248 292.53 289.248C292.312 289.248 292.125 289.301 291.97 289.408C291.816 289.515 291.706 289.659 291.642 289.84L290.674 289.544L291.314 286.32H294.082V287.384H292.162L291.946 288.448C292.149 288.32 292.41 288.256 292.73 288.256C293.264 288.256 293.69 288.437 294.01 288.8C294.336 289.163 294.498 289.635 294.498 290.216C294.498 290.781 294.314 291.235 293.946 291.576C293.584 291.917 293.106 292.088 292.514 292.088ZM297.788 292V290.704H294.964V289.816L297.908 286.32H298.884V289.696H299.628V290.704H298.884V292H297.788ZM296.308 289.696H297.788V287.944L296.308 289.696ZM302.602 292H301.466L305.066 286.32H306.202L302.602 292ZM305.954 292.064C305.517 292.064 305.143 291.909 304.834 291.6C304.53 291.291 304.378 290.92 304.378 290.488C304.378 290.051 304.53 289.68 304.834 289.376C305.143 289.067 305.517 288.912 305.954 288.912C306.386 288.912 306.757 289.067 307.066 289.376C307.375 289.68 307.53 290.051 307.53 290.488C307.53 290.92 307.375 291.291 307.066 291.6C306.757 291.909 306.386 292.064 305.954 292.064ZM305.498 290.944C305.626 291.072 305.778 291.136 305.954 291.136C306.13 291.136 306.279 291.072 306.402 290.944C306.525 290.816 306.586 290.664 306.586 290.488C306.586 290.312 306.525 290.16 306.402 290.032C306.279 289.904 306.13 289.84 305.954 289.84C305.778 289.84 305.626 289.904 305.498 290.032C305.375 290.16 305.314 290.312 305.314 290.488C305.314 290.664 305.375 290.816 305.498 290.944ZM301.714 289.408C301.277 289.408 300.903 289.253 300.594 288.944C300.29 288.635 300.138 288.264 300.138 287.832C300.138 287.395 300.29 287.024 300.594 286.72C300.903 286.411 301.277 286.256 301.714 286.256C302.146 286.256 302.517 286.411 302.826 286.72C303.135 287.024 303.29 287.395 303.29 287.832C303.29 288.264 303.135 288.635 302.826 288.944C302.517 289.253 302.146 289.408 301.714 289.408ZM301.258 288.288C301.386 288.416 301.538 288.48 301.714 288.48C301.89 288.48 302.039 288.416 302.162 288.288C302.29 288.16 302.354 288.008 302.354 287.832C302.354 287.656 302.29 287.504 302.162 287.376C302.039 287.248 301.89 287.184 301.714 287.184C301.538 287.184 301.386 287.248 301.258 287.376C301.135 287.504 301.074 287.656 301.074 287.832C301.074 288.008 301.135 288.16 301.258 288.288Z" fill="#01B88E"/>
<path d="M295.821 315.858C295.535 317.675 296.776 319.401 298.614 319.492C301.733 319.646 304.865 319.321 307.899 318.523C312.01 317.441 315.854 315.514 319.188 312.862C322.523 310.211 325.277 306.892 327.276 303.116C329.275 299.339 330.476 295.187 330.804 290.92C331.132 286.653 330.579 282.363 329.18 278.322C327.781 274.281 325.566 270.575 322.676 267.439C319.786 264.302 316.282 261.802 312.385 260.097C309.511 258.839 306.469 258.033 303.366 257.702C301.533 257.506 300.039 259.023 300.044 260.867C300.049 262.71 301.555 264.176 303.381 264.427C305.569 264.727 307.71 265.328 309.745 266.219C312.802 267.557 315.552 269.519 317.82 271.98C320.088 274.441 321.825 277.349 322.923 280.52C324.021 283.691 324.454 287.057 324.197 290.405C323.94 293.753 322.998 297.012 321.429 299.975C319.86 302.938 317.7 305.542 315.083 307.623C312.466 309.703 309.45 311.216 306.224 312.064C304.081 312.629 301.875 312.891 299.67 312.85C297.824 312.815 296.108 314.034 295.821 315.858Z" fill="#01B88E"/>
<path d="M39.6038 352.504H335.308" stroke="#A6B1E3" stroke-width="8" stroke-linecap="round"/>
<path d="M39.6038 381.727H335.308" stroke="#A6B1E3" stroke-width="8" stroke-linecap="round"/>
<path d="M39.6037 352.504H218.965" stroke="#1C2654" stroke-width="8" stroke-linecap="round"/>
<path d="M39.6037 381.727H286.832" stroke="#1C2654" stroke-width="8" stroke-linecap="round"/>
<g filter="url(#filter1_d_8040_6)">
<g clip-path="url(#clip0_8040_6)">
<rect x="375" y="231" width="320" height="188" rx="20" fill="white"/>
<path d="M342.5 330.5L402 300.5L429.5 345.5L489 271.5L592 380L675 304.5L713 330.5" stroke="#F00800" stroke-width="2" stroke-linecap="round"/>
<path d="M341.5 322.5L388 328L428.5 309L502.5 349L567.5 296.5L608 349L672 328L701.5 296.5" stroke="#1535C9" stroke-width="2" stroke-linecap="round"/>
<path d="M344.5 304L383 390.5L420.5 355L456.5 374.5L509.5 312L565.5 342.5L618.5 304L702.5 355" stroke="#FFBF00" stroke-width="2" stroke-linecap="round"/>
<circle cx="633.5" cy="255.5" r="4.5" fill="#1535C9"/>
<circle cx="650.5" cy="255.5" r="4.5" fill="#FFBF00"/>
<circle cx="667.5" cy="255.5" r="4.5" fill="#F00800"/>
</g>
</g>
<g filter="url(#filter2_d_8040_6)">
<rect x="27" y="22.8305" width="320.911" height="188.124" rx="20" fill="white"/>
</g>
<g clip-path="url(#clip1_8040_6)">
<path d="M349.5 21.9999C269.9 115.6 117 195 24 202.5V212H349.5V21.9999Z" fill="#CBF3F8"/>
<path d="M24 202.5C117 195 269.9 115.6 349.5 21.9999" stroke="#60D6E6" stroke-width="2" stroke-linecap="round"/>
<path d="M77.264 61.6399H79.376L83.072 66.7119L86.768 61.6399H88.88V72.9999H86.56V65.6079L83.072 70.3919L79.584 65.6079V72.9999H77.264V61.6399ZM95.568 73.1759C95.056 73.1759 94.592 73.0693 94.176 72.8559C93.76 72.6426 93.4507 72.3919 93.248 72.1039V72.9999H91.056V60.9999H93.248V65.8959C93.4507 65.6079 93.76 65.3573 94.176 65.1439C94.592 64.9306 95.056 64.8239 95.568 64.8239C96.624 64.8239 97.5147 65.2346 98.24 66.0559C98.9653 66.8773 99.328 67.8586 99.328 68.9999C99.328 70.1413 98.9653 71.1226 98.24 71.9439C97.5147 72.7653 96.624 73.1759 95.568 73.1759ZM93.616 70.5679C93.9893 70.9733 94.48 71.1759 95.088 71.1759C95.696 71.1759 96.1813 70.9733 96.544 70.5679C96.9173 70.1626 97.104 69.6399 97.104 68.9999C97.104 68.3599 96.9173 67.8373 96.544 67.4319C96.1813 67.0266 95.696 66.8239 95.088 66.8239C94.48 66.8239 93.9893 67.0266 93.616 67.4319C93.2533 67.8373 93.072 68.3599 93.072 68.9999C93.072 69.6399 93.2533 70.1626 93.616 70.5679ZM103.123 76.3439H100.931V64.9999H103.123V65.8959C103.326 65.6079 103.635 65.3573 104.051 65.1439C104.467 64.9306 104.931 64.8239 105.443 64.8239C106.499 64.8239 107.39 65.2346 108.115 66.0559C108.84 66.8773 109.203 67.8586 109.203 68.9999C109.203 70.1413 108.84 71.1226 108.115 71.9439C107.39 72.7653 106.499 73.1759 105.443 73.1759C104.931 73.1759 104.467 73.0693 104.051 72.8559C103.635 72.6426 103.326 72.3919 103.123 72.1039V76.3439ZM103.491 70.5679C103.864 70.9733 104.355 71.1759 104.963 71.1759C105.571 71.1759 106.056 70.9733 106.419 70.5679C106.792 70.1626 106.979 69.6399 106.979 68.9999C106.979 68.3599 106.792 67.8373 106.419 67.4319C106.056 67.0266 105.571 66.8239 104.963 66.8239C104.355 66.8239 103.864 67.0266 103.491 67.4319C103.128 67.8373 102.947 68.3599 102.947 68.9999C102.947 69.6399 103.128 70.1626 103.491 70.5679ZM113.894 73.1759C112.87 73.1759 112.022 72.9199 111.35 72.4079C110.678 71.8959 110.321 71.2453 110.278 70.4559H112.566C112.609 70.7973 112.758 71.0586 113.014 71.2399C113.27 71.4106 113.585 71.4959 113.958 71.4959C114.651 71.4959 114.998 71.2826 114.998 70.8559C114.998 70.6426 114.918 70.4826 114.758 70.3759C114.609 70.2586 114.353 70.1519 113.99 70.0559L112.486 69.6719C111.803 69.4906 111.291 69.1866 110.95 68.7599C110.619 68.3226 110.454 67.7999 110.454 67.1919C110.454 66.4986 110.742 65.9333 111.318 65.4959C111.905 65.0479 112.689 64.8239 113.67 64.8239C114.566 64.8239 115.313 65.0533 115.91 65.5119C116.507 65.9599 116.838 66.5733 116.902 67.3519H114.694C114.598 66.8079 114.246 66.5359 113.638 66.5359C113.35 66.5359 113.121 66.5893 112.95 66.6959C112.779 66.8026 112.694 66.9519 112.694 67.1439C112.694 67.4959 112.998 67.7413 113.606 67.8799L115.014 68.2639C115.793 68.4559 116.358 68.7599 116.71 69.1759C117.062 69.5813 117.238 70.1039 117.238 70.7439C117.238 71.4799 116.923 72.0719 116.294 72.5199C115.675 72.9573 114.875 73.1759 113.894 73.1759Z" fill="#57B9C6"/>
</g>
<g filter="url(#filter3_d_8040_6)">
<rect x="374" y="22.8305" width="320.911" height="188.124" rx="20" fill="white"/>
</g>
<path d="M400 191.973V134.973" stroke="#FFBF00" stroke-width="11" stroke-linecap="round"/>
<path d="M418 191.973L418 88.9731" stroke="#FFBF00" stroke-width="11" stroke-linecap="round"/>
<path d="M436 191.973L436 117.973" stroke="#FFBF00" stroke-width="11" stroke-linecap="round"/>
<path d="M454 191.973L454 68.9731" stroke="#FFBF00" stroke-width="11" stroke-linecap="round"/>
<path d="M472 191.973L472 103.973" stroke="#FFBF00" stroke-width="11" stroke-linecap="round"/>
<path d="M490 191.973L490 120.973" stroke="#FFBF00" stroke-width="11" stroke-linecap="round"/>
<path d="M508 191.973L508 138.973" stroke="#FFBF00" stroke-width="11" stroke-linecap="round"/>
<path d="M526 191.973L526 111.973" stroke="#FFBF00" stroke-width="11" stroke-linecap="round"/>
<path d="M544 191.973L544 83.9731" stroke="#FFBF00" stroke-width="11" stroke-linecap="round"/>
<path d="M562 191.973L562 117.973" stroke="#FFBF00" stroke-width="11" stroke-linecap="round"/>
<path d="M580 191.973L580 146.973" stroke="#FFBF00" stroke-width="11" stroke-linecap="round"/>
<path d="M598 191.973L598 107.973" stroke="#FFBF00" stroke-width="11" stroke-linecap="round"/>
<path d="M616 191.973L616 129.973" stroke="#FFBF00" stroke-width="11" stroke-linecap="round"/>
<path d="M634 191.973L634 117.973" stroke="#FFBF00" stroke-width="11" stroke-linecap="round"/>
<path d="M652 191.973L652 67.9731" stroke="#FFBF00" stroke-width="11" stroke-linecap="round"/>
<path d="M670 191.973L670 104.973" stroke="#FFBF00" stroke-width="11" stroke-linecap="round"/>
<path d="M519.711 43.61H520.899L522.978 46.463L525.057 43.61H526.245V50H524.94V45.842L522.978 48.533L521.016 45.842V50H519.711V43.61ZM529.513 50.099C528.823 50.099 528.256 49.877 527.812 49.433C527.374 48.989 527.155 48.425 527.155 47.741C527.155 47.069 527.377 46.511 527.821 46.067C528.271 45.623 528.838 45.401 529.522 45.401C530.212 45.401 530.785 45.638 531.241 46.112C531.697 46.58 531.907 47.222 531.871 48.038H528.361C528.385 48.32 528.502 48.557 528.712 48.749C528.922 48.935 529.21 49.028 529.576 49.028C529.798 49.028 529.993 48.986 530.161 48.902C530.335 48.812 530.458 48.689 530.53 48.533H531.817C531.685 48.995 531.409 49.373 530.989 49.667C530.569 49.955 530.077 50.099 529.513 50.099ZM529.486 46.4C529.204 46.4 528.967 46.475 528.775 46.625C528.589 46.769 528.466 46.97 528.406 47.228H530.521C530.455 46.946 530.323 46.739 530.125 46.607C529.933 46.469 529.72 46.4 529.486 46.4ZM534.848 50.099C534.17 50.099 533.606 49.874 533.156 49.424C532.706 48.968 532.481 48.41 532.481 47.75C532.481 47.09 532.706 46.535 533.156 46.085C533.606 45.629 534.17 45.401 534.848 45.401C535.448 45.401 535.949 45.569 536.351 45.905C536.759 46.241 537.026 46.679 537.152 47.219H535.874C535.676 46.751 535.334 46.517 534.848 46.517C534.518 46.517 534.248 46.631 534.038 46.859C533.828 47.081 533.723 47.378 533.723 47.75C533.723 48.122 533.828 48.422 534.038 48.65C534.248 48.872 534.518 48.983 534.848 48.983C535.334 48.983 535.676 48.749 535.874 48.281H537.152C537.026 48.821 536.759 49.259 536.351 49.595C535.949 49.931 535.448 50.099 534.848 50.099ZM537.226 50L538.774 48.29C538.228 48.02 537.955 47.594 537.955 47.012C537.955 46.568 538.102 46.205 538.396 45.923C538.69 45.641 539.095 45.5 539.611 45.5H541.6V50H540.367V48.578H539.935L538.621 50H537.226ZM539.683 47.588H540.367V46.499H539.674C539.302 46.499 539.116 46.688 539.116 47.066C539.116 47.228 539.17 47.357 539.278 47.453C539.386 47.543 539.521 47.588 539.683 47.588ZM547.765 48.92V51.107H546.658V50H542.788V45.5H544.021V48.92H545.785V45.5H547.018V48.92H547.765Z" fill="#FFBF00"/>
<defs>
<filter id="filter0_d_8040_6" x="18" y="226.046" width="338.911" height="206.124" filterUnits="userSpaceOnUse" color-interpolation-filters="sRGB">
<feFlood flood-opacity="0" result="BackgroundImageFix"/>
<feColorMatrix in="SourceAlpha" type="matrix" values="0 0 0 0 0 0 0 0 0 0 0 0 0 0 0 0 0 0 127 0" result="hardAlpha"/>
<feOffset dy="4"/>
<feGaussianBlur stdDeviation="4.5"/>
<feComposite in2="hardAlpha" operator="out"/>
<feColorMatrix type="matrix" values="0 0 0 0 0 0 0 0 0 0 0 0 0 0 0 0 0 0 0.15 0"/>
<feBlend mode="normal" in2="BackgroundImageFix" result="effect1_dropShadow_8040_6"/>
<feBlend mode="normal" in="SourceGraphic" in2="effect1_dropShadow_8040_6" result="shape"/>
</filter>
<filter id="filter1_d_8040_6" x="366" y="226" width="338" height="206" filterUnits="userSpaceOnUse" color-interpolation-filters="sRGB">
<feFlood flood-opacity="0" result="BackgroundImageFix"/>
<feColorMatrix in="SourceAlpha" type="matrix" values="0 0 0 0 0 0 0 0 0 0 0 0 0 0 0 0 0 0 127 0" result="hardAlpha"/>
<feOffset dy="4"/>
<feGaussianBlur stdDeviation="4.5"/>
<feComposite in2="hardAlpha" operator="out"/>
<feColorMatrix type="matrix" values="0 0 0 0 0 0 0 0 0 0 0 0 0 0 0 0 0 0 0.15 0"/>
<feBlend mode="normal" in2="BackgroundImageFix" result="effect1_dropShadow_8040_6"/>
<feBlend mode="normal" in="SourceGraphic" in2="effect1_dropShadow_8040_6" result="shape"/>
</filter>
<filter id="filter2_d_8040_6" x="18" y="17.8305" width="338.911" height="206.124" filterUnits="userSpaceOnUse" color-interpolation-filters="sRGB">
<feFlood flood-opacity="0" result="BackgroundImageFix"/>
<feColorMatrix in="SourceAlpha" type="matrix" values="0 0 0 0 0 0 0 0 0 0 0 0 0 0 0 0 0 0 127 0" result="hardAlpha"/>
<feOffset dy="4"/>
<feGaussianBlur stdDeviation="4.5"/>
<feComposite in2="hardAlpha" operator="out"/>
<feColorMatrix type="matrix" values="0 0 0 0 0 0 0 0 0 0 0 0 0 0 0 0 0 0 0.15 0"/>
<feBlend mode="normal" in2="BackgroundImageFix" result="effect1_dropShadow_8040_6"/>
<feBlend mode="normal" in="SourceGraphic" in2="effect1_dropShadow_8040_6" result="shape"/>
</filter>
<filter id="filter3_d_8040_6" x="365" y="17.8305" width="338.911" height="206.124" filterUnits="userSpaceOnUse" color-interpolation-filters="sRGB">
<feFlood flood-opacity="0" result="BackgroundImageFix"/>
<feColorMatrix in="SourceAlpha" type="matrix" values="0 0 0 0 0 0 0 0 0 0 0 0 0 0 0 0 0 0 127 0" result="hardAlpha"/>
<feOffset dy="4"/>
<feGaussianBlur stdDeviation="4.5"/>
<feComposite in2="hardAlpha" operator="out"/>
<feColorMatrix type="matrix" values="0 0 0 0 0 0 0 0 0 0 0 0 0 0 0 0 0 0 0.15 0"/>
<feBlend mode="normal" in2="BackgroundImageFix" result="effect1_dropShadow_8040_6"/>
<feBlend mode="normal" in="SourceGraphic" in2="effect1_dropShadow_8040_6" result="shape"/>
</filter>
<clipPath id="clip0_8040_6">
<rect x="375" y="231" width="320" height="188" rx="20" fill="white"/>
</clipPath>
<clipPath id="clip1_8040_6">
<rect width="291.826" height="160.727" fill="white" transform="translate(41.5428 36.529)"/>
</clipPath>
</defs>
</svg>
