<svg width="28" height="22" viewBox="0 0 28 22" fill="none" xmlns="http://www.w3.org/2000/svg">
<path fill-rule="evenodd" clip-rule="evenodd" d="M0 2.54167C0 1.41409 0.914085 0.5 2.04167 0.5H25.9583C27.0859 0.5 28 1.41409 28 2.54167V19.4583C28 20.5859 27.0859 21.5 25.9583 21.5H2.04167C0.914085 21.5 0 20.5859 0 19.4583V2.54167ZM2.04167 2.25C1.88058 2.25 1.75 2.38058 1.75 2.54167V19.4583C1.75 19.6194 1.88058 19.75 2.04167 19.75H25.9583C26.1194 19.75 26.25 19.6194 26.25 19.4583V2.54167C26.25 2.38058 26.1194 2.25 25.9583 2.25H2.04167Z" fill="white"/>
<path fill-rule="evenodd" clip-rule="evenodd" d="M5.83333 7.20833C5.83333 6.72508 6.22508 6.33333 6.70833 6.33333H20.125C20.6082 6.33333 21 6.72508 21 7.20833C21 7.69158 20.6082 8.08333 20.125 8.08333H6.70833C6.22508 8.08333 5.83333 7.69158 5.83333 7.20833Z" fill="white"/>
<path fill-rule="evenodd" clip-rule="evenodd" d="M5.83333 11.875C5.83333 11.3918 6.22508 11 6.70833 11H13.125C13.6082 11 14 11.3918 14 11.875C14 12.3582 13.6082 12.75 13.125 12.75H6.70833C6.22508 12.75 5.83333 12.3582 5.83333 11.875Z" fill="white"/>
</svg>
