<svg width="71" height="114" viewBox="0 0 71 114" fill="none" xmlns="http://www.w3.org/2000/svg">
<path d="M42.5665 86.8667C35.2593 87.9867 31.9933 98.0667 36.6855 106.467C40.1369 102.889 46.1452 93.96 42.5665 86.8667C44.9951 90.0797 47.5689 93.1371 50.2928 95.9904C51.9568 97.7335 53.6769 99.4004 55.4542 100.98C52.7953 102.498 48.6975 107.027 53.5774 113C55.1414 110.898 57.7065 105.551 55.4542 100.98C57.4172 102.725 59.45 104.363 61.5541 105.881C61.8669 107.943 63.994 112.253 70 113C69.8436 109.965 67.9354 104.292 61.5541 105.881C59.45 104.363 57.4172 102.725 55.4542 100.98C53.6769 99.4004 51.9568 97.7335 50.2928 95.9904C63.8063 99.1827 69.0616 92.4825 70 88.7333C59.1141 85 52.3261 92.0158 50.2928 95.9904C47.5689 93.1371 44.9951 90.0797 42.5665 86.8667C40.198 83.7332 37.9676 80.4516 35.8705 77.0667C47.9813 85.6533 58.039 78.4667 61.5541 73.8C48.4159 67.08 38.9575 73.1778 35.8705 77.0667C33.3451 72.9904 31.013 68.7643 28.8661 64.4667C27.0192 60.7697 25.3093 57.0197 23.7312 53.2667C34.0135 63.72 44.472 57.9333 48.4159 53.7333C37.9054 46.2667 27.5801 50.3111 23.7312 53.2667C21.557 48.0959 19.633 42.9191 17.9454 37.8667C16.5584 33.7142 15.3311 29.6456 14.256 25.7333C18.6043 31.4889 29.741 41.1333 39.5008 33.6667C37.0603 30.0889 28.5946 23.4933 14.256 25.7333C15.3311 29.6456 16.5584 33.7142 17.9454 37.8667C3.6053 36.7467 0.689993 52.0222 1.02485 59.8C5.89255 59.6444 16.0914 55.04 17.9454 37.8667C19.633 42.9191 21.557 48.0959 23.7312 53.2667C25.3093 57.0197 27.0192 60.7697 28.8661 64.4667C22.0882 65.7111 10.2215 72.3067 16.9783 88.7333C20.9409 87.9556 28.8661 82.0133 28.8661 64.4667C31.013 68.7643 33.3451 72.9904 35.8705 77.0667C37.9676 80.4516 40.198 83.7332 42.5665 86.8667Z" fill="#01B88E"/>
<path d="M9.00157 1C9.92582 7.62604 11.6409 16.2174 14.256 25.7333M66.7155 109.267C64.9493 108.22 63.2291 107.089 61.5541 105.881M42.5665 86.8667C35.2593 87.9867 31.9933 98.0667 36.6855 106.467C40.1369 102.889 46.1452 93.96 42.5665 86.8667ZM42.5665 86.8667C44.9951 90.0797 47.5689 93.1371 50.2928 95.9904M42.5665 86.8667C40.198 83.7332 37.9676 80.4516 35.8705 77.0667M61.5541 105.881C61.8669 107.943 63.994 112.253 70 113C69.8436 109.965 67.9354 104.292 61.5541 105.881ZM61.5541 105.881C59.45 104.363 57.4172 102.725 55.4542 100.98M55.4542 100.98C52.7953 102.498 48.6975 107.027 53.5773 113C55.1414 110.898 57.7065 105.551 55.4542 100.98ZM55.4542 100.98C53.6769 99.4004 51.9568 97.7335 50.2928 95.9904M50.2928 95.9904C52.3261 92.0158 59.1141 85 70 88.7333C69.0616 92.4825 63.8063 99.1827 50.2928 95.9904ZM35.8705 77.0667C38.9575 73.1778 48.4159 67.08 61.5541 73.8C58.039 78.4667 47.9813 85.6533 35.8705 77.0667ZM35.8705 77.0667C33.3451 72.9904 31.013 68.7643 28.8661 64.4667M28.8661 64.4667C22.0882 65.7111 10.2215 72.3067 16.9783 88.7333C20.9409 87.9556 28.8661 82.0133 28.8661 64.4667ZM28.8661 64.4667C27.0192 60.7697 25.3093 57.0197 23.7312 53.2667M23.7312 53.2667C27.5801 50.3111 37.9054 46.2667 48.4159 53.7333C44.472 57.9333 34.0135 63.72 23.7312 53.2667ZM23.7312 53.2667C21.557 48.0959 19.633 42.9191 17.9454 37.8667M17.9454 37.8667C3.6053 36.7467 0.689993 52.0222 1.02485 59.8C5.89255 59.6444 16.0914 55.04 17.9454 37.8667ZM17.9454 37.8667C16.5584 33.7142 15.3311 29.6456 14.256 25.7333M14.256 25.7333C18.6043 31.4889 29.741 41.1333 39.5008 33.6667C37.0603 30.0889 28.5946 23.4933 14.256 25.7333Z" stroke="#01B88E"/>
</svg>
