<svg width="134" height="217" viewBox="0 0 134 217" fill="none" xmlns="http://www.w3.org/2000/svg">
<path d="M80.5185 51.1667C66.5396 49.0167 60.2915 29.6667 69.2679 13.5417C75.8707 20.4097 87.3648 37.55 80.5185 51.1667C85.1646 44.9987 90.0883 39.1297 95.2993 33.6524C98.4827 30.3063 101.773 27.1064 105.173 24.0738C100.087 21.1603 92.2473 12.4667 101.583 1C104.575 5.03534 109.482 15.2996 105.173 24.0738C108.929 20.7244 112.817 17.5791 116.843 14.6663C117.441 10.7081 121.51 2.43333 133 1C132.701 6.82617 129.05 17.7161 116.843 14.6663C112.817 17.5791 108.929 20.7244 105.173 24.0738C101.773 27.1064 98.4827 30.3063 95.2993 33.6524C121.151 27.5242 131.205 40.3863 133 47.5833C112.175 54.75 99.1891 41.2821 95.2993 33.6524C90.0883 39.1297 85.1646 44.9987 80.5185 51.1667C75.9876 57.1819 71.7206 63.4814 67.7088 69.9792C90.8772 53.4958 110.118 67.2917 116.843 76.25C91.7088 89.15 73.6143 77.4444 67.7088 69.9792C62.8775 77.8042 58.4162 85.9167 54.309 94.1667C50.7758 101.264 47.5048 108.462 44.4859 115.667C64.1562 95.6 84.1638 106.708 91.7088 114.771C71.6017 129.104 51.8489 121.34 44.4859 115.667C40.3265 125.593 36.6457 135.53 33.4173 145.229C30.7639 153.201 28.416 161.011 26.3592 168.521C34.6779 157.472 55.9829 138.958 74.6537 153.292C69.9849 160.16 53.7897 172.821 26.3592 168.521C28.416 161.011 30.7639 153.201 33.4173 145.229C5.98404 147.379 0.406944 118.056 1.04755 103.125C10.3597 103.424 29.8706 112.262 33.4173 145.229C36.6457 135.53 40.3265 125.593 44.4859 115.667C47.5048 108.462 50.7758 101.264 54.309 94.1667C41.3426 91.7778 18.6412 79.1167 31.5672 47.5833C39.1478 49.0764 54.309 60.4833 54.309 94.1667C58.4162 85.9167 62.8775 77.8042 67.7088 69.9792C71.7206 63.4814 75.9876 57.1819 80.5185 51.1667Z" fill="#01B88E"/>
<path d="M16.3074 216C18.0755 203.28 21.3564 186.788 26.3592 168.521M126.717 8.16667C123.338 10.1763 120.047 12.3476 116.843 14.6663M80.5185 51.1667C66.5396 49.0167 60.2915 29.6667 69.2679 13.5417C75.8707 20.4097 87.3648 37.55 80.5185 51.1667ZM80.5185 51.1667C85.1646 44.9987 90.0883 39.1297 95.2993 33.6524M80.5185 51.1667C75.9876 57.1819 71.7206 63.4814 67.7088 69.9792M116.843 14.6663C117.441 10.7081 121.51 2.43333 133 1C132.701 6.82617 129.05 17.7161 116.843 14.6663ZM116.843 14.6663C112.817 17.5791 108.929 20.7244 105.173 24.0738M105.173 24.0738C100.087 21.1603 92.2473 12.4667 101.583 1C104.575 5.03534 109.482 15.2996 105.173 24.0738ZM105.173 24.0738C101.773 27.1064 98.4827 30.3063 95.2993 33.6524M95.2993 33.6524C99.1891 41.2821 112.175 54.75 133 47.5833C131.205 40.3863 121.151 27.5242 95.2993 33.6524ZM67.7088 69.9792C73.6143 77.4444 91.7088 89.15 116.843 76.25C110.118 67.2917 90.8772 53.4958 67.7088 69.9792ZM67.7088 69.9792C62.8775 77.8042 58.4162 85.9167 54.309 94.1667M54.309 94.1667C41.3426 91.7778 18.6412 79.1167 31.5672 47.5833C39.1478 49.0764 54.309 60.4833 54.309 94.1667ZM54.309 94.1667C50.7758 101.264 47.5048 108.462 44.4859 115.667M44.4859 115.667C51.8489 121.34 71.6017 129.104 91.7088 114.771C84.1638 106.708 64.1562 95.6 44.4859 115.667ZM44.4859 115.667C40.3265 125.593 36.6457 135.53 33.4173 145.229M33.4173 145.229C5.98404 147.379 0.406944 118.056 1.04755 103.125C10.3597 103.424 29.8706 112.262 33.4173 145.229ZM33.4173 145.229C30.7639 153.201 28.416 161.011 26.3592 168.521M26.3592 168.521C34.6779 157.472 55.9829 138.958 74.6537 153.292C69.9849 160.16 53.7897 172.821 26.3592 168.521Z" stroke="#01B88E"/>
</svg>
