<svg width="16" height="22" viewBox="0 0 16 22" fill="none" xmlns="http://www.w3.org/2000/svg">
<path fill-rule="evenodd" clip-rule="evenodd" d="M0 7.9096C0 3.53672 3.49019 0 7.80553 0C12.1209 0 15.6111 3.53672 15.6111 7.9096C15.6111 12.6215 10.6824 19.1186 8.66414 21.5932C8.21811 22.1356 7.4041 22.1356 6.95807 21.5932C4.92863 19.1186 0 12.6215 0 7.9096ZM5.01784 7.9096C5.01784 9.46893 6.26673 10.7345 7.80553 10.7345C9.34434 10.7345 10.5932 9.46893 10.5932 7.9096C10.5932 6.35028 9.34434 5.08475 7.80553 5.08475C6.26673 5.08475 5.01784 6.35028 5.01784 7.9096Z" fill="white"/>
</svg>
