<svg width="23" height="22" viewBox="0 0 23 22" fill="none" xmlns="http://www.w3.org/2000/svg">
<path d="M5.04006 0.0447793C4.98842 0.0514962 4.93679 0.0514962 4.87169 0C4.36882 0.116426 3.86371 0.221658 3.36309 0.353757C2.739 0.521679 2.25634 0.897825 1.87021 1.41055C1.37857 2.07104 1.05305 2.8099 0.792637 3.58234C0.50304 4.43763 0.406508 5.30635 0.545694 6.20865C0.66692 7.00572 0.936313 7.7513 1.21019 8.50359C1.66143 9.75069 2.1598 10.9732 2.85798 12.1083C3.92881 13.857 5.25332 15.3929 6.73723 16.8012C7.90908 17.9095 9.17523 18.9013 10.5671 19.723C12.1004 20.6254 13.7661 21.2209 15.4566 21.7404C16.3321 22.0135 17.2435 22.0874 18.1572 21.8836C19.1629 21.6598 20.1081 21.2948 20.9544 20.7037C21.2597 20.4865 21.5628 20.2179 21.7761 19.9111C22.2857 19.1723 22.4316 18.3125 22.481 17.4371C22.4989 17.1258 22.3934 16.8997 22.1308 16.7452C21.6436 16.4542 21.1609 16.1497 20.6648 15.8653C19.7399 15.3347 18.7611 14.8936 17.8856 14.2689C17.8048 14.2107 17.706 14.1704 17.6139 14.1256C17.2839 13.9599 16.9696 13.9868 16.6823 14.2286C16.5409 14.3451 16.3949 14.466 16.2737 14.6025C15.7686 15.169 15.2792 15.7399 14.7719 16.3019C14.2263 16.9087 13.9525 16.9758 13.2498 16.5795C12.5045 16.1586 11.7659 15.7175 11.0565 15.2362C9.21564 13.9935 7.75867 12.3815 6.61825 10.4851C6.31069 9.97235 6.03232 9.44843 5.7517 8.92452C5.56986 8.58195 5.63945 8.25731 5.90885 7.99759C6.25457 7.66622 6.62274 7.355 6.97744 7.03035C7.40173 6.64301 7.84174 6.26463 8.24133 5.85713C8.52195 5.57278 8.53093 5.21455 8.34236 4.85856C8.25031 4.70183 8.15603 4.54062 8.05725 4.38389C7.94949 4.21821 7.82153 4.06148 7.72949 3.88908C7.3703 3.2465 7.03356 2.59272 6.66763 1.95686C6.3511 1.40607 6.0166 0.868719 5.68435 0.331367C5.53619 0.0873197 5.3072 0.0223897 5.04006 0.0447793Z" fill="white"/>
</svg>
