<svg width="52" height="51" viewBox="0 0 52 51" fill="none" xmlns="http://www.w3.org/2000/svg">
<g clip-path="url(#clip0_8088_229)">
<rect x="0.97702" width="50.8885" height="50.8885" rx="25.4443" fill="white" fill-opacity="0.14"/>
<mask id="mask0_8088_229" style="mask-type:luminance" maskUnits="userSpaceOnUse" x="0" y="1" width="51" height="50">
<rect x="0.97702" y="1.15674" width="49.732" height="49.732" rx="24.3525" fill="white"/>
</mask>
<g mask="url(#mask0_8088_229)">
<path d="M32.4107 24.283H17.3765V18.3338H32.4107C33.2889 18.3338 33.8995 18.4869 34.206 18.7541C34.5124 19.0215 34.7023 19.5172 34.7023 20.2415V22.3776C34.7023 23.1407 34.5124 23.6365 34.206 23.9038C33.8995 24.1711 33.2889 24.2853 32.4107 24.2853V24.283ZM33.4422 12.7249H11.0005V38.1669H17.3765V29.8896H29.1267L34.7023 38.1669H41.842L35.6948 29.8508C37.9611 29.5149 38.9788 28.8204 39.8181 27.6757C40.6573 26.5311 41.0783 24.7011 41.0783 22.2588V20.3512C41.0783 18.9026 40.9249 17.758 40.6573 16.8807C40.3898 16.0034 39.9326 15.2404 39.283 14.555C38.5969 13.9061 37.8331 13.4492 36.916 13.143C35.9989 12.8757 34.8532 12.7227 33.4422 12.7227V12.7249Z" fill="white"/>
<path d="M77.3098 0.000417709C77.3098 14.0529 65.9181 25.4447 51.8656 25.4447C49.0085 25.4447 46.2616 24.9738 43.6979 24.1054C43.7527 23.5008 43.777 22.8825 43.777 22.2587V20.351C43.777 18.7312 43.6077 17.3034 43.2388 16.0934C42.8406 14.7885 42.1582 13.6654 41.2418 12.6986L41.1909 12.645L41.1373 12.5942C40.1612 11.6709 39.0545 11.0118 37.7706 10.5831L37.7212 10.5667L37.6712 10.5521C36.449 10.1958 35.038 10.0239 33.4422 10.0239H30.7435V10.0262H28.4727C27.1524 6.94965 26.4213 3.56042 26.4213 0.000417709C26.4213 -14.0521 37.8131 -25.4438 51.8656 -25.4438C65.9181 -25.4438 77.3098 -14.0521 77.3098 0.000417709Z" fill="white"/>
</g>
</g>
<defs>
<clipPath id="clip0_8088_229">
<rect width="50.8885" height="50.8885" fill="white" transform="translate(0.97702)"/>
</clipPath>
</defs>
</svg>
