<svg width="51" height="51" viewBox="0 0 51 51" fill="none" xmlns="http://www.w3.org/2000/svg">
<g clip-path="url(#clip0_8088_243)">
<rect width="50.8885" height="50.8885" rx="25.4443" fill="white" fill-opacity="0.14"/>
<path d="M37.7637 16.7318C37.6926 16.4503 37.591 16.3649 37.4184 16.2794C37.0427 16.0984 36.3675 16.2543 36.3675 16.2543C36.3675 16.2543 12.3638 22.3472 10.9524 23.1365C10.6478 23.3074 10.5412 23.4129 10.4803 23.5437C10.1909 24.172 10.8763 24.529 10.8763 24.529L16.6741 27.0174C16.6741 27.0174 16.8924 27.0728 16.9787 27.0275C18.4206 26.3036 31.4886 19.7431 32.2247 19.5521C32.3415 19.5269 32.4177 19.5772 32.3923 19.6476C32.0115 20.6128 20.4006 29.0384 20.4006 29.0384C20.4006 29.0384 20.3549 29.0836 20.3244 29.1439L20.3092 29.1339L19.1923 34.9604C19.1923 34.9604 18.7861 36.74 20.7763 35.1061C22.1826 33.9549 23.5229 33.0098 24.193 32.5524C26.1172 34.151 28.1835 35.9155 29.0618 36.8154C29.5035 37.2678 29.8995 37.3734 30.2295 37.3935C31.1383 37.4438 31.4886 36.4836 31.4886 36.4836C31.4886 36.4836 37.3271 20.0196 37.6824 17.7725C37.718 17.5513 37.7484 17.4155 37.7637 17.2597C37.784 17.0485 37.7891 16.8324 37.7637 16.7318Z" fill="white"/>
</g>
<defs>
<clipPath id="clip0_8088_243">
<rect width="50.8885" height="50.8885" fill="white"/>
</clipPath>
</defs>
</svg>
