<svg width="52" height="51" viewBox="0 0 52 51" fill="none" xmlns="http://www.w3.org/2000/svg">
<g clip-path="url(#clip0_8088_240)">
<rect x="0.488525" width="50.8885" height="50.8885" rx="25.4443" fill="white" fill-opacity="0.14"/>
<path d="M39.0085 29.253C37.2307 27.3977 35.3574 26.3525 34.1019 25.7774C35.2771 25.1073 37.316 23.7371 39.0587 21.2967C40.8165 18.8313 41.4392 16.4359 41.6903 15.1057H36.0756C35.7491 16.2008 35.0963 17.8661 33.7504 19.5364C31.7164 22.0568 29.2405 23.157 28.0302 23.5971L28.0051 15.0957L22.767 15.1107L22.8072 30.0882C21.401 29.6031 19.9295 28.813 18.6589 27.5227C17.0317 25.8775 16.3588 24.0071 15.7611 22.3569C14.9325 20.0615 14.5408 17.6411 14.601 15.1657L9.36297 15.0356C9.28764 18.1612 9.77981 21.2167 10.8294 24.1222C11.5275 26.0575 12.4867 28.7129 14.9174 31.1733C18.217 34.5189 22.2999 35.5991 25.1424 35.9141L28.0603 36.2392L28.0402 28.7979C29.0145 28.888 30.7923 29.198 32.5852 30.4032C35.5282 32.3785 36.4121 35.359 36.628 36.1942H42.8956C42.5039 34.7239 41.5246 31.8785 39.0035 29.248L39.0085 29.253Z" fill="white"/>
</g>
<defs>
<clipPath id="clip0_8088_240">
<rect width="50.8885" height="50.8885" fill="white" transform="translate(0.488525)"/>
</clipPath>
</defs>
</svg>
