<svg width="52" height="51" viewBox="0 0 52 51" fill="none" xmlns="http://www.w3.org/2000/svg">
<g clip-path="url(#clip0_8088_237)">
<rect x="0.465515" width="50.8885" height="50.8885" rx="25.4443" fill="white" fill-opacity="0.14"/>
<path fill-rule="evenodd" clip-rule="evenodd" d="M24.7154 13.4983C26.1306 13.4833 27.5458 13.5073 28.9599 13.5297C31.4858 13.5821 34.0133 13.6479 36.5312 13.8594C37.3631 13.9472 38.2051 14.0125 39.0145 14.2369C40.0595 14.5377 40.9677 15.2628 41.5053 16.2019C41.9255 16.9176 42.0634 17.7495 42.1973 18.5559C42.4531 20.2581 42.5438 21.9787 42.6075 23.6974C42.6767 25.7591 42.612 27.8234 42.4661 29.8806C42.4044 30.6826 42.3222 31.483 42.2043 32.279C42.11 32.8665 42.0082 33.4575 41.8102 34.0206C41.4912 34.9053 40.8629 35.6734 40.0625 36.1721C39.543 36.5038 38.9457 36.6948 38.34 36.795C37.2272 36.9825 36.0994 37.0574 34.9751 37.1332C32.4035 37.2878 29.8265 37.3391 27.2504 37.375C24.5429 37.407 21.836 37.3516 19.1295 37.2703C17.8162 37.2224 16.5028 37.1611 15.1925 37.0628C14.2848 36.9835 13.3721 36.9127 12.48 36.7192C11.5503 36.5192 10.6973 35.9961 10.097 35.2634C9.61658 34.6924 9.31971 33.9897 9.17378 33.2635C8.84933 31.7344 8.74 30.1704 8.65124 28.6133C8.54493 26.6927 8.52989 24.7671 8.62266 22.8455C8.68585 21.4256 8.78413 20.0063 8.99174 18.5988C9.08552 18.0148 9.18732 17.4273 9.38239 16.8672C9.77154 15.777 10.6331 14.8648 11.7017 14.409C12.4945 14.0723 13.3661 14.0055 14.2121 13.9028C16.8288 13.6554 19.4585 13.5901 22.0857 13.5332C22.9623 13.5153 23.8389 13.5043 24.7154 13.4983ZM22.1158 20.4047C22.1118 23.7612 22.1118 27.1177 22.1158 30.4741C25.072 28.7864 28.0407 27.1201 31.0009 25.4394C28.0407 23.7592 25.072 22.0919 22.1158 20.4047Z" fill="white"/>
</g>
<defs>
<clipPath id="clip0_8088_237">
<rect width="50.8885" height="50.8885" fill="white" transform="translate(0.465515)"/>
</clipPath>
</defs>
</svg>
