<svg width="782" height="635" viewBox="0 0 782 635" fill="none" xmlns="http://www.w3.org/2000/svg">
<g clip-path="url(#clip0_8371_2251)">
<path d="M456.414 469.988C518.8 459.858 594.529 456.641 644.414 417.832C743.474 340.766 663.841 291.536 719.686 206.111C756.212 150.236 805.638 84.6102 768.287 36.5999C720.241 -25.1574 669.391 7.65063 593.515 26.7605C488.476 53.2152 502.579 168.448 394.821 179.453C311.52 187.96 280.749 129.807 197.32 136.955C44.2953 150.065 -42.5593 350.338 22.7279 489.357C79.1852 609.574 172.057 670.966 290.978 611.827C357.393 578.799 383.199 481.877 456.414 469.988Z" fill="url(#paint0_linear_8371_2251)"/>
<path d="M456.414 469.988C518.8 459.858 594.529 456.641 644.414 417.832C743.474 340.766 663.841 291.536 719.686 206.111C756.212 150.236 805.638 84.6102 768.287 36.5999C720.241 -25.1574 669.391 7.65063 593.515 26.7605C488.476 53.2152 502.579 168.448 394.821 179.453C311.52 187.96 280.749 129.807 197.32 136.955C44.2953 150.065 -42.5593 350.338 22.7279 489.357C79.1852 609.574 172.057 670.966 290.978 611.827C357.393 578.799 383.199 481.877 456.414 469.988Z" fill="url(#paint1_linear_8371_2251)"/>
<path d="M456.414 469.988C518.8 459.858 594.529 456.641 644.414 417.832C743.474 340.766 663.841 291.536 719.686 206.111C756.212 150.236 805.638 84.6102 768.287 36.5999C720.241 -25.1574 669.391 7.65063 593.515 26.7605C488.476 53.2152 502.579 168.448 394.821 179.453C311.52 187.96 280.749 129.807 197.32 136.955C44.2953 150.065 -42.5593 350.338 22.7279 489.357C79.1852 609.574 172.057 670.966 290.978 611.827C357.393 578.799 383.199 481.877 456.414 469.988Z" fill="url(#paint2_linear_8371_2251)"/>
<path d="M597.001 349.315C599.026 354.628 607.16 355.451 612.742 350.562C609.485 348.546 601.777 345.474 597.001 349.315C599.034 346.968 600.926 344.537 602.639 342.027C603.686 340.493 604.667 338.93 605.572 337.337C607.147 339.091 611.226 341.439 614.946 336.802C613.107 335.966 608.658 334.903 605.572 337.337C606.572 335.579 607.48 333.785 608.286 331.957C609.791 331.387 612.701 329.09 612.295 324.452C610.03 325.062 606.057 327.415 608.286 331.957C607.48 333.785 606.572 335.579 605.572 337.337C604.667 338.93 603.686 340.493 602.639 342.027C602.867 331.348 596.963 328.482 593.982 328.383C592.922 337.174 599.312 341.142 602.639 342.027C600.926 344.537 599.034 346.968 597.001 349.315C595.019 351.603 592.902 353.812 590.686 355.937C595.211 345.439 588.165 339.04 584.075 337.153C581.125 348.121 587.253 354.246 590.686 355.937C588.017 358.496 585.205 360.935 582.308 363.245C579.816 365.233 577.262 367.126 574.684 368.921C580.913 359.495 574.858 352.568 571.052 350.283C567.114 359.396 571.832 366.505 574.684 368.921C571.133 371.393 567.537 373.679 563.996 375.766C561.086 377.482 558.214 379.063 555.435 380.506C559.077 376.304 564.557 366.367 557.347 360.237C555.041 362.652 551.43 370.086 555.435 380.506C558.214 379.063 561.086 377.482 563.996 375.766C565.465 386.731 577.464 386.448 583.28 384.937C582.377 381.302 577.256 374.378 563.996 375.766C567.537 373.679 571.133 371.393 574.684 368.921C577.262 367.126 579.816 365.233 582.308 363.245C584.341 368.14 591.234 375.995 602.54 368.254C601.313 365.4 595.55 360.403 582.308 363.245C585.205 360.935 588.017 358.496 590.686 355.937C592.902 353.812 595.019 351.603 597.001 349.315Z" fill="#01B850"/>
<path d="M543.351 385.696C548.202 383.927 548.676 384.014 555.435 380.506M610.008 327.527C609.503 329.025 608.927 330.501 608.286 331.957M597.001 349.315C599.026 354.628 607.16 355.451 612.742 350.562C609.485 348.546 601.777 345.474 597.001 349.315ZM597.001 349.315C599.034 346.968 600.926 344.537 602.639 342.027M597.001 349.315C595.019 351.603 592.902 353.812 590.686 355.937M608.286 331.957C609.791 331.387 612.701 329.09 612.295 324.452C610.03 325.062 606.057 327.415 608.286 331.957ZM608.286 331.957C607.48 333.785 606.572 335.579 605.572 337.337M605.572 337.337C607.147 339.091 611.226 341.439 614.946 336.802C613.107 335.966 608.658 334.903 605.572 337.337ZM605.572 337.337C604.667 338.93 603.686 340.493 602.639 342.027M602.639 342.027C599.312 341.142 592.922 337.174 593.982 328.383C596.963 328.482 602.867 331.348 602.639 342.027ZM590.686 355.937C587.253 354.246 581.125 348.121 584.075 337.153C588.165 339.04 595.211 345.439 590.686 355.937ZM590.686 355.937C588.017 358.496 585.205 360.935 582.308 363.245M582.308 363.245C584.341 368.14 591.234 375.995 602.54 368.254C601.313 365.4 595.55 360.403 582.308 363.245ZM582.308 363.245C579.816 365.233 577.262 367.126 574.684 368.921M574.684 368.921C571.832 366.505 567.114 359.396 571.052 350.283C574.858 352.568 580.913 359.495 574.684 368.921ZM574.684 368.921C571.133 371.393 567.537 373.679 563.996 375.766M563.996 375.766C565.465 386.731 577.464 386.448 583.28 384.937C582.377 381.302 577.256 374.378 563.996 375.766ZM563.996 375.766C561.086 377.482 558.214 379.063 555.435 380.506M555.435 380.506C559.077 376.304 564.557 366.367 557.347 360.237C555.041 362.652 551.43 370.086 555.435 380.506Z" stroke="#01B850"/>
<path d="M597.001 349.315C599.026 354.628 607.16 355.451 612.742 350.562C609.485 348.546 601.777 345.474 597.001 349.315C599.034 346.968 600.926 344.537 602.639 342.027C603.686 340.493 604.667 338.93 605.572 337.337C607.147 339.091 611.226 341.439 614.946 336.802C613.107 335.966 608.658 334.903 605.572 337.337C606.572 335.579 607.48 333.785 608.286 331.957C609.791 331.387 612.701 329.09 612.295 324.452C610.03 325.062 606.057 327.415 608.286 331.957C607.48 333.785 606.572 335.579 605.572 337.337C604.667 338.93 603.686 340.493 602.639 342.027C602.867 331.348 596.963 328.482 593.982 328.383C592.922 337.174 599.312 341.142 602.639 342.027C600.926 344.537 599.034 346.968 597.001 349.315C595.019 351.603 592.902 353.812 590.686 355.937C595.211 345.439 588.165 339.04 584.075 337.153C581.125 348.121 587.253 354.246 590.686 355.937C588.017 358.496 585.205 360.935 582.308 363.245C579.816 365.233 577.262 367.126 574.684 368.921C580.913 359.495 574.858 352.568 571.052 350.283C567.114 359.396 571.832 366.505 574.684 368.921C571.133 371.393 567.537 373.679 563.996 375.766C561.086 377.482 558.214 379.063 555.435 380.506C559.077 376.304 564.557 366.367 557.347 360.237C555.041 362.652 551.43 370.086 555.435 380.506C558.214 379.063 561.086 377.482 563.996 375.766C565.465 386.731 577.464 386.448 583.28 384.937C582.377 381.302 577.256 374.378 563.996 375.766C567.537 373.679 571.133 371.393 574.684 368.921C577.262 367.126 579.816 365.233 582.308 363.245C584.341 368.14 591.234 375.995 602.54 368.254C601.313 365.4 595.55 360.403 582.308 363.245C585.205 360.935 588.017 358.496 590.686 355.937C592.902 353.812 595.019 351.603 597.001 349.315Z" fill="#01B850"/>
<path d="M543.351 385.696C548.202 383.927 548.676 384.014 555.435 380.506M610.008 327.527C609.503 329.025 608.927 330.501 608.286 331.957M597.001 349.315C599.026 354.628 607.16 355.451 612.742 350.562C609.485 348.546 601.777 345.474 597.001 349.315ZM597.001 349.315C599.034 346.968 600.926 344.537 602.639 342.027M597.001 349.315C595.019 351.603 592.902 353.812 590.686 355.937M608.286 331.957C609.791 331.387 612.701 329.09 612.295 324.452C610.03 325.062 606.057 327.415 608.286 331.957ZM608.286 331.957C607.48 333.785 606.572 335.579 605.572 337.337M605.572 337.337C607.147 339.091 611.226 341.439 614.946 336.802C613.107 335.966 608.658 334.903 605.572 337.337ZM605.572 337.337C604.667 338.93 603.686 340.493 602.639 342.027M602.639 342.027C599.312 341.142 592.922 337.174 593.982 328.383C596.963 328.482 602.867 331.348 602.639 342.027ZM590.686 355.937C587.253 354.246 581.125 348.121 584.075 337.153C588.165 339.04 595.211 345.439 590.686 355.937ZM590.686 355.937C588.017 358.496 585.205 360.935 582.308 363.245M582.308 363.245C584.341 368.14 591.234 375.995 602.54 368.254C601.313 365.4 595.55 360.403 582.308 363.245ZM582.308 363.245C579.816 365.233 577.262 367.126 574.684 368.921M574.684 368.921C571.832 366.505 567.114 359.396 571.052 350.283C574.858 352.568 580.913 359.495 574.684 368.921ZM574.684 368.921C571.133 371.393 567.537 373.679 563.996 375.766M563.996 375.766C565.465 386.731 577.464 386.448 583.28 384.937C582.377 381.302 577.256 374.378 563.996 375.766ZM563.996 375.766C561.086 377.482 558.214 379.063 555.435 380.506M555.435 380.506C559.077 376.304 564.557 366.367 557.347 360.237C555.041 362.652 551.43 370.086 555.435 380.506Z" stroke="#01B850"/>
<path d="M597.001 349.315C599.026 354.628 607.16 355.451 612.742 350.562C609.485 348.546 601.777 345.474 597.001 349.315C599.034 346.968 600.926 344.537 602.639 342.027C603.686 340.493 604.667 338.93 605.572 337.337C607.147 339.091 611.226 341.439 614.946 336.802C613.107 335.966 608.658 334.903 605.572 337.337C606.572 335.579 607.48 333.785 608.286 331.957C609.791 331.387 612.701 329.09 612.295 324.452C610.03 325.062 606.057 327.415 608.286 331.957C607.48 333.785 606.572 335.579 605.572 337.337C604.667 338.93 603.686 340.493 602.639 342.027C602.867 331.348 596.963 328.482 593.982 328.383C592.922 337.174 599.312 341.142 602.639 342.027C600.926 344.537 599.034 346.968 597.001 349.315C595.019 351.603 592.902 353.812 590.686 355.937C595.211 345.439 588.165 339.04 584.075 337.153C581.125 348.121 587.253 354.246 590.686 355.937C588.017 358.496 585.205 360.935 582.308 363.245C579.816 365.233 577.262 367.126 574.684 368.921C580.913 359.495 574.858 352.568 571.052 350.283C567.114 359.396 571.832 366.505 574.684 368.921C571.133 371.393 567.537 373.679 563.996 375.766C561.086 377.482 558.214 379.063 555.435 380.506C559.077 376.304 564.557 366.367 557.347 360.237C555.041 362.652 551.43 370.086 555.435 380.506C558.214 379.063 561.086 377.482 563.996 375.766C565.465 386.731 577.464 386.448 583.28 384.937C582.377 381.302 577.256 374.378 563.996 375.766C567.537 373.679 571.133 371.393 574.684 368.921C577.262 367.126 579.816 365.233 582.308 363.245C584.341 368.14 591.234 375.995 602.54 368.254C601.313 365.4 595.55 360.403 582.308 363.245C585.205 360.935 588.017 358.496 590.686 355.937C592.902 353.812 595.019 351.603 597.001 349.315Z" fill="#01B850"/>
<path d="M543.351 385.696C548.202 383.927 548.676 384.014 555.435 380.506M610.008 327.527C609.503 329.025 608.927 330.501 608.286 331.957M597.001 349.315C599.026 354.628 607.16 355.451 612.742 350.562C609.485 348.546 601.777 345.474 597.001 349.315ZM597.001 349.315C599.034 346.968 600.926 344.537 602.639 342.027M597.001 349.315C595.019 351.603 592.902 353.812 590.686 355.937M608.286 331.957C609.791 331.387 612.701 329.09 612.295 324.452C610.03 325.062 606.057 327.415 608.286 331.957ZM608.286 331.957C607.48 333.785 606.572 335.579 605.572 337.337M605.572 337.337C607.147 339.091 611.226 341.439 614.946 336.802C613.107 335.966 608.658 334.903 605.572 337.337ZM605.572 337.337C604.667 338.93 603.686 340.493 602.639 342.027M602.639 342.027C599.312 341.142 592.922 337.174 593.982 328.383C596.963 328.482 602.867 331.348 602.639 342.027ZM590.686 355.937C587.253 354.246 581.125 348.121 584.075 337.153C588.165 339.04 595.211 345.439 590.686 355.937ZM590.686 355.937C588.017 358.496 585.205 360.935 582.308 363.245M582.308 363.245C584.341 368.14 591.234 375.995 602.54 368.254C601.313 365.4 595.55 360.403 582.308 363.245ZM582.308 363.245C579.816 365.233 577.262 367.126 574.684 368.921M574.684 368.921C571.832 366.505 567.114 359.396 571.052 350.283C574.858 352.568 580.913 359.495 574.684 368.921ZM574.684 368.921C571.133 371.393 567.537 373.679 563.996 375.766M563.996 375.766C565.465 386.731 577.464 386.448 583.28 384.937C582.377 381.302 577.256 374.378 563.996 375.766ZM563.996 375.766C561.086 377.482 558.214 379.063 555.435 380.506M555.435 380.506C559.077 376.304 564.557 366.367 557.347 360.237C555.041 362.652 551.43 370.086 555.435 380.506Z" stroke="#01B850"/>
<path d="M81.3548 419.228C74.9653 421.417 68.0325 414.616 68.2545 405.805C72.5701 407.247 81.2319 411.95 81.3548 419.228C81.9526 415.589 82.7341 412.015 83.724 408.543C84.3287 406.421 85.0112 404.338 85.777 402.302C82.9796 402.197 77.7362 400.256 79.1429 393.336C81.3031 394.38 85.6543 397.635 85.777 402.302C86.6229 400.052 87.5705 397.86 88.6274 395.735C88.003 393.928 87.8897 389.525 92.432 386.372C93.597 388.903 94.4672 394.319 88.6274 395.735C87.5705 397.86 86.6229 400.052 85.777 402.302C85.0112 404.338 84.3287 406.421 83.724 408.543C93.3004 400.22 100.404 403.432 102.759 406.079C95.5395 413.727 87.0608 410.908 83.724 408.543C82.7341 412.015 81.9526 415.589 81.3548 419.228C80.7718 422.778 80.3636 426.388 80.1072 430.027C86.2528 417.918 97.45 419.489 102.28 421.788C94.509 432.817 84.2601 431.876 80.1072 430.027C79.7984 434.408 79.7098 438.829 79.8015 443.229C79.8804 447.015 80.0927 450.785 80.413 454.502C84.2846 441.653 95.2102 441.917 100.189 443.656C94.8617 454.176 84.7853 455.27 80.413 454.502C80.8542 459.624 81.5004 464.644 82.2851 469.462C82.9299 473.423 83.6683 477.247 84.4633 480.88C85.5325 474.362 90.4398 461.807 101.515 463.732C101.063 467.673 97.0193 476.619 84.4633 480.88C83.6683 477.247 82.9299 473.423 82.2851 469.462C71.1578 476.453 62.2978 465.284 59.2587 458.825C63.2638 456.887 73.4762 456.302 82.2851 469.462C81.5004 464.644 80.8542 459.624 80.413 454.502C80.0927 450.785 79.8804 447.015 79.8015 443.229C73.7873 445.093 61.378 444.769 59.8546 428.563C63.3921 427.515 72.334 428.98 79.8015 443.229C79.7098 438.829 79.7984 434.408 80.1072 430.027C80.3636 426.388 80.7718 422.778 81.3548 419.228Z" fill="#01B850"/>
<path d="M88.9075 495.857C86.8355 490.084 86.397 489.717 84.4633 480.88M91.363 390.797C90.3793 392.396 89.4687 394.044 88.6274 395.735M81.3548 419.228C74.9653 421.417 68.0325 414.616 68.2545 405.805C72.5701 407.247 81.2319 411.95 81.3548 419.228ZM81.3548 419.228C81.9526 415.589 82.7341 412.015 83.724 408.543M81.3548 419.228C80.7718 422.778 80.3636 426.388 80.1072 430.027M88.6274 395.735C88.003 393.928 87.8897 389.525 92.432 386.372C93.597 388.903 94.4672 394.319 88.6274 395.735ZM88.6274 395.735C87.5705 397.86 86.6229 400.052 85.777 402.302M85.777 402.302C82.9796 402.197 77.7362 400.256 79.1429 393.336C81.3031 394.38 85.6543 397.635 85.777 402.302ZM85.777 402.302C85.0112 404.338 84.3287 406.421 83.724 408.543M83.724 408.543C87.0608 410.908 95.5395 413.727 102.759 406.079C100.404 403.432 93.3004 400.22 83.724 408.543ZM80.1072 430.027C84.2601 431.876 94.509 432.817 102.28 421.788C97.45 419.489 86.2528 417.918 80.1072 430.027ZM80.1072 430.027C79.7984 434.408 79.7098 438.829 79.8015 443.229M79.8015 443.229C73.7873 445.093 61.378 444.769 59.8546 428.563C63.3921 427.515 72.334 428.98 79.8015 443.229ZM79.8015 443.229C79.8804 447.015 80.0927 450.785 80.413 454.502M80.413 454.502C84.7853 455.27 94.8617 454.176 100.189 443.656C95.2102 441.917 84.2846 441.653 80.413 454.502ZM80.413 454.502C80.8542 459.624 81.5004 464.644 82.2851 469.462M82.2851 469.462C71.1578 476.453 62.2978 465.284 59.2587 458.825C63.2638 456.887 73.4762 456.302 82.2851 469.462ZM82.2851 469.462C82.9299 473.423 83.6683 477.247 84.4633 480.88M84.4633 480.88C85.5325 474.362 90.4398 461.807 101.515 463.732C101.063 467.673 97.0193 476.619 84.4633 480.88Z" stroke="#01B850"/>
<path d="M122.578 499.977C97.8884 468.055 131.897 449.258 144.943 430.189C150.519 434.695 176.716 479.698 122.578 499.977Z" fill="#01B850"/>
<path d="M141.885 451.379C143.446 459.128 143.782 475.201 127.598 483.484C137.109 473.046 142.395 465.236 141.885 451.379Z" fill="#131613" fill-opacity="0.21"/>
<path d="M116.121 520.919C62.0815 492.413 77.4269 439.177 118.003 411.115C120.86 434.949 146.477 486.819 116.121 520.919Z" fill="#01B88E"/>
<path d="M110.791 504.153C99.9342 489.287 94.1229 460.699 106.349 443.904C93.1319 473.274 112.492 488.43 110.791 504.153Z" fill="#131613" fill-opacity="0.21"/>
<path d="M81.3548 419.23C74.9653 421.419 68.0325 414.618 68.2545 405.807C72.5701 407.249 81.2319 411.952 81.3548 419.23C81.9526 415.591 82.7341 412.017 83.724 408.545C84.3287 406.423 85.0112 404.34 85.777 402.304C82.9796 402.199 77.7362 400.258 79.1429 393.338C81.3031 394.382 85.6543 397.637 85.777 402.304C86.6229 400.054 87.5705 397.862 88.6274 395.737C88.003 393.93 87.8897 389.527 92.432 386.374C93.597 388.905 94.4672 394.321 88.6274 395.737C87.5705 397.862 86.6229 400.054 85.777 402.304C85.0112 404.34 84.3287 406.423 83.724 408.545C93.3004 400.222 100.404 403.434 102.759 406.081C95.5395 413.729 87.0608 410.91 83.724 408.545C82.7341 412.017 81.9526 415.591 81.3548 419.23C80.7718 422.779 80.3636 426.39 80.1072 430.028C86.2528 417.92 97.45 419.491 102.28 421.79C94.509 432.819 84.2601 431.878 80.1072 430.028C79.7984 434.41 79.7098 438.831 79.8015 443.231C79.8804 447.017 80.0927 450.787 80.413 454.504C84.2846 441.655 95.2102 441.919 100.189 443.658C94.8617 454.178 84.7853 455.272 80.413 454.504C80.8542 459.626 81.5004 464.645 82.2851 469.464C82.9299 473.425 83.6683 477.249 84.4633 480.882C85.5325 474.364 90.4398 461.809 101.515 463.734C101.063 467.675 97.0193 476.621 84.4633 480.882C83.6683 477.249 82.9299 473.425 82.2851 469.464C71.1578 476.455 62.2978 465.286 59.2587 458.827C63.2638 456.889 73.4762 456.304 82.2851 469.464C81.5004 464.645 80.8542 459.626 80.413 454.504C80.0927 450.787 79.8804 447.017 79.8015 443.231C73.7873 445.095 61.378 444.771 59.8546 428.565C63.3921 427.517 72.334 428.982 79.8015 443.231C79.7098 438.831 79.7984 434.41 80.1072 430.028C80.3636 426.39 80.7718 422.779 81.3548 419.23Z" fill="#01B850"/>
<path d="M88.9075 495.859C86.8355 490.086 86.397 489.719 84.4633 480.882M91.363 390.799C90.3793 392.398 89.4687 394.046 88.6274 395.737M81.3548 419.23C74.9653 421.419 68.0325 414.618 68.2545 405.807C72.5701 407.249 81.2319 411.952 81.3548 419.23ZM81.3548 419.23C81.9526 415.591 82.7341 412.017 83.724 408.545M81.3548 419.23C80.7718 422.779 80.3636 426.39 80.1072 430.028M88.6274 395.737C88.003 393.93 87.8897 389.527 92.432 386.374C93.597 388.905 94.4672 394.321 88.6274 395.737ZM88.6274 395.737C87.5705 397.862 86.6229 400.054 85.777 402.304M85.777 402.304C82.9796 402.199 77.7362 400.258 79.1429 393.338C81.3031 394.382 85.6543 397.637 85.777 402.304ZM85.777 402.304C85.0112 404.34 84.3287 406.423 83.724 408.545M83.724 408.545C87.0608 410.91 95.5395 413.729 102.759 406.081C100.404 403.434 93.3004 400.222 83.724 408.545ZM80.1072 430.028C84.2601 431.878 94.509 432.819 102.28 421.79C97.45 419.491 86.2528 417.92 80.1072 430.028ZM80.1072 430.028C79.7984 434.41 79.7098 438.831 79.8015 443.231M79.8015 443.231C73.7873 445.095 61.378 444.771 59.8546 428.565C63.3921 427.517 72.334 428.982 79.8015 443.231ZM79.8015 443.231C79.8804 447.017 80.0927 450.787 80.413 454.504M80.413 454.504C84.7853 455.272 94.8617 454.178 100.189 443.658C95.2102 441.919 84.2846 441.655 80.413 454.504ZM80.413 454.504C80.8542 459.626 81.5004 464.645 82.2851 469.464M82.2851 469.464C71.1578 476.455 62.2978 465.286 59.2587 458.827C63.2638 456.889 73.4762 456.304 82.2851 469.464ZM82.2851 469.464C82.9299 473.425 83.6683 477.249 84.4633 480.882M84.4633 480.882C85.5325 474.364 90.4398 461.809 101.515 463.734C101.063 467.675 97.0193 476.621 84.4633 480.882Z" stroke="#01B850"/>
<path d="M122.578 499.978C97.8884 468.056 131.897 449.259 144.943 430.19C150.519 434.696 176.716 479.699 122.578 499.978Z" fill="#01B850"/>
<path d="M141.885 451.38C143.446 459.129 143.782 475.202 127.598 483.485C137.109 473.047 142.395 465.237 141.885 451.38Z" fill="#131613" fill-opacity="0.21"/>
<path d="M116.121 520.92C62.0815 492.414 77.4269 439.178 118.003 411.116C120.86 434.95 146.477 486.82 116.121 520.92Z" fill="#01B88E"/>
<path d="M110.791 504.154C99.9342 489.288 94.1229 460.7 106.349 443.905C93.1319 473.275 112.492 488.431 110.791 504.154Z" fill="#131613" fill-opacity="0.21"/>
<path d="M81.3543 419.229C74.9648 421.418 68.0321 414.617 68.2541 405.806C72.5696 407.248 81.2314 411.951 81.3543 419.229C81.9521 415.59 82.7336 412.016 83.7235 408.544C84.3282 406.422 85.0107 404.339 85.7766 402.303C82.9791 402.198 77.7358 400.257 79.1424 393.337C81.3026 394.381 85.6538 397.636 85.7766 402.303C86.6224 400.053 87.57 397.861 88.6269 395.736C88.0025 393.929 87.8892 389.526 92.4315 386.373C93.5966 388.904 94.4668 394.32 88.6269 395.736C87.57 397.861 86.6224 400.053 85.7766 402.303C85.0107 404.339 84.3282 406.422 83.7235 408.544C93.3 400.221 100.404 403.433 102.759 406.08C95.539 413.728 87.0603 410.909 83.7235 408.544C82.7336 412.016 81.9521 415.59 81.3543 419.229C80.7713 422.778 80.3631 426.389 80.1067 430.027C86.2523 417.919 97.4495 419.49 102.28 421.789C94.5085 432.818 84.2597 431.877 80.1067 430.027C79.7979 434.409 79.7093 438.83 79.801 443.23C79.8799 447.016 80.0922 450.786 80.4125 454.503C84.2841 441.654 95.2097 441.918 100.189 443.657C94.8612 454.177 84.7848 455.271 80.4125 454.503C80.8537 459.625 81.4999 464.645 82.2846 469.463C82.9294 473.424 83.6678 477.248 84.4628 480.881C85.5321 474.363 90.4393 461.808 101.514 463.733C101.062 467.674 97.0189 476.62 84.4628 480.881C83.6678 477.248 82.9294 473.424 82.2846 469.463C71.1573 476.454 62.2973 465.285 59.2582 458.826C63.2633 456.888 73.4757 456.303 82.2846 469.463C81.4999 464.645 80.8537 459.625 80.4125 454.503C80.0922 450.786 79.8799 447.016 79.801 443.23C73.7868 445.094 61.3775 444.77 59.8541 428.564C63.3916 427.516 72.3335 428.981 79.801 443.23C79.7093 438.83 79.7979 434.409 80.1067 430.027C80.3631 426.389 80.7713 422.778 81.3543 419.229Z" fill="#01B850"/>
<path d="M88.907 495.858C86.835 490.085 86.3965 489.718 84.4628 480.881M91.3625 390.798C90.3788 392.397 89.4682 394.045 88.6269 395.736M81.3543 419.229C74.9648 421.418 68.0321 414.617 68.2541 405.806C72.5696 407.248 81.2314 411.951 81.3543 419.229ZM81.3543 419.229C81.9521 415.59 82.7336 412.016 83.7235 408.544M81.3543 419.229C80.7713 422.778 80.3631 426.389 80.1067 430.027M88.6269 395.736C88.0025 393.929 87.8892 389.526 92.4315 386.373C93.5966 388.904 94.4668 394.32 88.6269 395.736ZM88.6269 395.736C87.57 397.861 86.6224 400.053 85.7766 402.303M85.7766 402.303C82.9791 402.198 77.7358 400.257 79.1424 393.337C81.3026 394.381 85.6538 397.636 85.7766 402.303ZM85.7766 402.303C85.0107 404.339 84.3282 406.422 83.7235 408.544M83.7235 408.544C87.0603 410.909 95.539 413.728 102.759 406.08C100.404 403.433 93.3 400.221 83.7235 408.544ZM80.1067 430.027C84.2597 431.877 94.5085 432.818 102.28 421.789C97.4495 419.49 86.2523 417.919 80.1067 430.027ZM80.1067 430.027C79.7979 434.409 79.7093 438.83 79.801 443.23M79.801 443.23C73.7868 445.094 61.3775 444.77 59.8541 428.564C63.3916 427.516 72.3335 428.981 79.801 443.23ZM79.801 443.23C79.8799 447.016 80.0922 450.786 80.4125 454.503M80.4125 454.503C84.7848 455.271 94.8612 454.177 100.189 443.657C95.2097 441.918 84.2841 441.654 80.4125 454.503ZM80.4125 454.503C80.8537 459.625 81.4999 464.645 82.2846 469.463M82.2846 469.463C71.1573 476.454 62.2973 465.285 59.2582 458.826C63.2633 456.888 73.4757 456.303 82.2846 469.463ZM82.2846 469.463C82.9294 473.424 83.6678 477.248 84.4628 480.881M84.4628 480.881C85.5321 474.363 90.4393 461.808 101.514 463.733C101.062 467.674 97.0189 476.62 84.4628 480.881Z" stroke="#01B850"/>
<path d="M122.578 499.978C97.8879 468.056 131.897 449.259 144.942 430.19C150.519 434.696 176.715 479.699 122.578 499.978Z" fill="#01B850"/>
<path d="M141.885 451.38C143.446 459.129 143.781 475.202 127.597 483.485C137.109 473.047 142.394 465.237 141.885 451.38Z" fill="#131613" fill-opacity="0.21"/>
<path d="M116.121 520.92C62.081 492.414 77.4264 439.178 118.002 411.116C120.859 434.95 146.476 486.82 116.121 520.92Z" fill="#01B88E"/>
<path d="M110.791 504.154C99.9337 489.288 94.1224 460.7 106.348 443.905C93.1314 473.275 112.491 488.431 110.791 504.154Z" fill="#131613" fill-opacity="0.21"/>
<path d="M716.933 180.674L693.11 177.658L506.438 451.519L506.435 451.517L301.244 368.284L132.071 561.77L98 531.979L288.185 314.464L288.19 314.469L488.979 395.921L655.235 152.016L655 151.855L643.433 130.67L740.182 68L716.933 180.674Z" fill="#BFCAF7"/>
<path d="M716.933 180.674L693.11 177.658L506.438 451.519L506.435 451.517L301.244 368.284L132.071 561.77L98 531.979L288.185 314.464L288.19 314.469L488.979 395.921L655.235 152.016L655 151.855L643.433 130.67L740.182 68L716.933 180.674Z" fill="#BFCAF7"/>
<path d="M716.933 180.674L693.11 177.658L506.438 451.519L506.435 451.517L301.244 368.284L132.071 561.77L98 531.979L288.185 314.464L288.19 314.469L488.979 395.921L655.235 152.016L655 151.855L643.433 130.67L740.182 68L716.933 180.674Z" fill="#BFCAF7"/>
<path d="M134.82 359.517C320.82 312.017 387.32 129.017 440.32 186.517L456.32 276.017C415.92 280.817 377.32 401.017 300.82 410.017C296.42 365.217 188.32 357.684 134.82 359.517Z" fill="url(#paint3_linear_8371_2251)"/>
<path d="M328.624 338.208C342.931 320.783 343.145 319.102 346.082 314.033L359.131 321.478C351.056 331.428 338.288 341.987 347.631 328.092C340.27 333.548 314.429 355.495 328.624 338.208Z" fill="#FBAD83"/>
<path d="M438.458 414.23L450.987 350.915L412.86 338.421L402.937 415.997L292.923 466.698L293.116 469.177L269.36 471.524L275.084 519.455C290.458 517.062 287.689 498.775 291.665 488.99L300.34 488.315L301.354 491.727L411.238 445.773C438.44 436.425 435.608 425.673 438.458 414.23Z" fill="#19192B"/>
<path d="M429.614 351.829L450.988 350.914L453.758 335.238L382.976 310.074C370.702 334.369 369.56 384.43 364.309 419.5L291.501 518.926L297.874 523.916L285.286 541.602L306.462 576.611C318.875 572.054 310.827 552.582 307.803 539.352L312.696 531.74L398.011 429.596L429.614 351.829Z" fill="#303D72"/>
<path d="M508.302 166.451C512.684 170.028 515.79 179.782 514.576 184.152C514.454 192.183 507.1 191.962 503.437 190.848C494.901 184.237 494.463 178.41 495.311 176.323C497.815 171.542 503.919 162.875 508.302 166.451Z" fill="#FBAD83"/>
<path d="M510.54 172.779L500.523 149.651C499.565 147.439 496.984 146.435 494.783 147.419L485.441 151.593C483.203 152.593 482.241 155.25 483.32 157.452L494.354 179.967C495.368 182.036 497.826 182.949 499.945 182.042L508.269 178.481C510.475 177.537 511.493 174.98 510.54 172.779Z" fill="#B37676"/>
<path d="M508.267 172.106L498.807 150.227C497.904 148.139 495.445 147.224 493.397 148.212L487.084 151.259C485.117 152.208 484.275 154.56 485.193 156.542L495.082 177.894C495.992 179.858 498.297 180.742 500.286 179.89L506.17 177.371C508.206 176.499 509.146 174.139 508.267 172.106Z" fill="white"/>
<path d="M499.934 188.905C505.641 190.326 513.731 184.411 515.708 181.848C529.918 208.614 555.811 229.506 561.413 259.437C562.314 264.248 558.383 268.393 553.492 268.204C524.832 267.094 498.86 259.118 482.284 249.838L495.138 212.805C510.166 229.211 518.945 225.788 533.211 247.297L499.934 188.905Z" fill="#50CAD3"/>
<path d="M449.609 188.138L459.982 162.613L474.518 187.6L470.8 196.75C460.203 199.627 452.257 192.208 449.609 188.138Z" fill="#FBAD83"/>
<path d="M459.199 164.54L459.982 162.613L474.518 187.6L471.778 194.342C455.885 187.883 458.025 167.429 459.199 164.54Z" fill="black" fill-opacity="0.11"/>
<path d="M343.821 314.181C377.289 258.424 376.363 236.138 415.56 189.943C417.347 187.837 420.037 186.684 422.795 186.82L449.609 188.14C449.609 188.14 446.182 198.359 456.466 202.539C466.749 206.718 470.8 196.751 470.8 196.751L493.711 211.303C494.735 211.953 495.388 212.996 495.239 214.2C493.402 229.056 469.126 308.961 456.761 335.617C437.503 335.524 400.083 325.413 381.055 308.089C386.403 290.717 393.718 281.158 406.468 239.58C388.738 273.846 374.804 299.577 359.039 324.025C352.83 321.586 348.105 319.367 343.821 314.181Z" fill="#60D6E6"/>
<path d="M343.82 314.181C377.289 258.424 376.363 236.137 415.56 189.943C417.347 187.837 420.037 186.684 422.795 186.82L437.533 187.545L343.82 314.181Z" fill="#50CAD3"/>
<path d="M497.689 170.037C500.148 153.538 497.08 138.023 495.238 132.328L493.873 129.622L469.947 128.912L462.003 145.01L462.811 169.568L475.229 177.775L497.689 170.037Z" fill="#FBAD83"/>
<path d="M480.428 170.859C470.121 176.359 470.096 169.581 468.288 165.8C466.914 162.926 464.359 160.713 461.282 160.176L456.557 155.545L454.403 163.219C457.122 179.74 469.596 187.272 473.217 188.711C476.838 190.149 483.045 192.813 490.239 190.343C497.432 187.873 497.727 169.52 497.727 169.52C495.396 168.133 488.673 166.459 480.428 170.859Z" fill="#D48C68"/>
<path d="M490.977 133.58C472.879 130.17 466.759 135.976 466.659 145.351C467.674 149.2 468.518 157.122 463.778 158.021C459.037 158.92 455.553 161.861 454.404 163.219C450.636 157.73 449.192 132.604 457.1 126.407C467.137 118.542 475.251 118.603 482.891 120.463C484.598 120.879 487.929 120.832 483.95 116.645C486.121 117.073 492.127 118.968 495.565 122.95C502.029 130.436 497.147 134.743 490.977 133.58Z" fill="#7A4029"/>
<path d="M493.047 176.474C491.782 179.509 486.774 183.834 482.678 175.715L493.047 176.474Z" fill="white"/>
<path d="M496.791 148.752C499.573 148.956 501.587 152.417 501.289 156.483C500.991 160.549 498.495 163.681 495.713 163.477L495.454 163.448C492.807 163.056 490.926 159.684 491.215 155.745C491.24 155.405 491.28 155.071 491.335 154.745L488.618 154.546C488.625 154.865 488.619 155.188 488.595 155.516C488.298 159.561 485.653 162.666 482.687 162.449L482.411 162.419C479.587 162.015 477.564 158.648 477.851 154.729C477.875 154.401 477.916 154.08 477.969 153.766L461.45 152.556L461.523 151.559L478.192 152.78C479.048 149.734 481.292 147.617 483.76 147.797L484.035 147.827C486.369 148.161 488.154 150.518 488.542 153.538L491.55 153.758C492.373 150.708 494.484 148.583 496.791 148.752ZM496.718 149.749C495.753 149.679 494.725 150.178 493.853 151.271C492.985 152.359 492.348 153.96 492.212 155.818C492.076 157.676 492.473 159.354 493.173 160.557C493.876 161.765 494.82 162.409 495.786 162.48C496.751 162.55 497.779 162.051 498.651 160.958C499.519 159.87 500.156 158.268 500.292 156.41C500.317 156.063 500.323 155.723 500.313 155.391C500.171 155.378 500.011 155.364 499.847 155.35C499.292 155.303 498.751 155.266 498.598 155.273L498.574 154.774L498.549 154.275C498.787 154.263 499.415 154.31 499.931 154.354C500.032 154.362 500.132 154.371 500.226 154.379C500.08 153.342 499.764 152.416 499.331 151.672C498.628 150.464 497.684 149.82 496.718 149.749ZM483.687 148.795C482.597 148.715 481.482 149.236 480.565 150.313C479.647 151.389 478.983 152.969 478.848 154.802C478.714 156.635 479.141 158.295 479.892 159.493C480.643 160.692 481.67 161.371 482.76 161.451C483.849 161.531 484.963 161.009 485.881 159.932C486.798 158.856 487.463 157.276 487.597 155.443C487.731 153.61 487.304 151.95 486.553 150.752C485.802 149.553 484.776 148.875 483.687 148.795Z" fill="#1C2654"/>
<ellipse cx="457.645" cy="156.556" rx="5.71843" ry="7.79785" transform="rotate(-14.8027 457.645 156.556)" fill="#FBAD83"/>
<path d="M134.821 359.518C320.821 312.018 387.321 129.018 440.321 186.518L456.321 276.018C415.921 280.818 377.321 401.018 300.821 410.018C296.421 365.218 188.321 357.684 134.821 359.518Z" fill="url(#paint4_linear_8371_2251)"/>
<path d="M328.624 338.208C342.931 320.784 343.145 319.103 346.082 314.034L359.132 321.479C351.056 331.429 338.288 341.987 347.632 328.093C340.271 333.549 314.43 355.496 328.624 338.208Z" fill="#FBAD83"/>
<path d="M438.459 414.231L450.988 350.916L412.861 338.422L402.937 415.997L292.924 466.699L293.116 469.178L269.36 471.525L275.084 519.456C290.458 517.063 287.689 498.776 291.666 488.991L300.341 488.316L301.354 491.728L411.239 445.774C438.44 436.426 435.609 425.674 438.459 414.231Z" fill="#19192B"/>
<path d="M429.614 351.83L450.988 350.915L453.758 335.239L382.976 310.075C370.703 334.37 369.561 384.431 364.31 419.501L291.501 518.927L297.874 523.917L285.286 541.603L306.463 576.612C318.876 572.055 310.827 552.583 307.803 539.353L312.697 531.74L398.011 429.597L429.614 351.83Z" fill="#303D72"/>
<path d="M508.302 166.452C512.684 170.029 515.791 179.783 514.576 184.153C514.455 192.184 507.1 191.963 503.438 190.849C494.902 184.238 494.464 178.411 495.312 176.324C497.816 171.543 503.92 162.875 508.302 166.452Z" fill="#FBAD83"/>
<path d="M510.54 172.779L500.524 149.651C499.565 147.439 496.985 146.435 494.784 147.419L485.442 151.593C483.204 152.593 482.241 155.25 483.32 157.452L494.354 179.967C495.368 182.036 497.826 182.949 499.945 182.042L508.27 178.481C510.476 177.537 511.494 174.98 510.54 172.779Z" fill="#B37676"/>
<path d="M508.267 172.107L498.807 150.228C497.904 148.14 495.445 147.224 493.397 148.213L487.084 151.259C485.117 152.209 484.275 154.561 485.193 156.543L495.082 177.895C495.992 179.859 498.297 180.743 500.286 179.891L506.17 177.372C508.206 176.5 509.146 174.14 508.267 172.107Z" fill="white"/>
<path d="M499.934 188.906C505.641 190.327 513.731 184.412 515.708 181.849C529.918 208.615 555.811 229.507 561.413 259.438C562.314 264.249 558.383 268.394 553.492 268.205C524.832 267.095 498.86 259.119 482.284 249.839L495.138 212.806C510.166 229.212 518.945 225.789 533.211 247.298L499.934 188.906Z" fill="#50CAD3"/>
<path d="M449.609 188.139L459.982 162.614L474.518 187.601L470.8 196.751C460.203 199.628 452.257 192.209 449.609 188.139Z" fill="#FBAD83"/>
<path d="M459.199 164.541L459.982 162.614L474.518 187.601L471.778 194.343C455.885 187.884 458.025 167.43 459.199 164.541Z" fill="black" fill-opacity="0.11"/>
<path d="M343.821 314.182C377.289 258.425 376.363 236.139 415.56 189.944C417.347 187.838 420.037 186.685 422.795 186.821L449.609 188.141C449.609 188.141 446.182 198.36 456.466 202.54C466.749 206.719 470.8 196.752 470.8 196.752L493.711 211.304C494.735 211.954 495.388 212.997 495.239 214.201C493.402 229.057 469.126 308.962 456.761 335.618C437.503 335.525 400.083 325.414 381.055 308.09C386.403 290.718 393.718 281.159 406.468 239.581C388.738 273.847 374.804 299.578 359.039 324.026C352.83 321.587 348.105 319.368 343.821 314.182Z" fill="#60D6E6"/>
<path d="M343.821 314.182C377.289 258.425 376.364 236.138 415.56 189.944C417.347 187.838 420.037 186.685 422.795 186.821L437.533 187.546L343.821 314.182Z" fill="#50CAD3"/>
<path d="M497.689 170.038C500.149 153.539 497.081 138.024 495.239 132.329L493.873 129.623L469.948 128.913L462.004 145.011L462.811 169.569L475.23 177.776L497.689 170.038Z" fill="#FBAD83"/>
<path d="M480.428 170.86C470.121 176.36 470.097 169.582 468.289 165.801C466.914 162.927 464.36 160.714 461.282 160.177L456.557 155.546L454.404 163.22C457.122 179.741 469.596 187.273 473.217 188.712C476.838 190.15 483.046 192.814 490.239 190.344C497.433 187.874 497.727 169.521 497.727 169.521C495.396 168.134 488.673 166.46 480.428 170.86Z" fill="#D48C68"/>
<path d="M490.977 133.581C472.879 130.17 466.759 135.977 466.659 145.352C467.674 149.201 468.518 157.123 463.778 158.022C459.037 158.921 455.553 161.862 454.404 163.22C450.636 157.731 449.192 132.605 457.1 126.408C467.137 118.543 475.251 118.604 482.891 120.464C484.598 120.88 487.929 120.833 483.95 116.646C486.121 117.074 492.127 118.969 495.565 122.951C502.029 130.437 497.147 134.744 490.977 133.581Z" fill="#7A4029"/>
<path d="M493.048 176.475C491.783 179.51 486.775 183.835 482.678 175.716L493.048 176.475Z" fill="white"/>
<path d="M496.792 148.753C499.574 148.957 501.587 152.418 501.29 156.484C500.992 160.55 498.495 163.682 495.713 163.478L495.455 163.449C492.808 163.057 490.927 159.685 491.215 155.746C491.24 155.406 491.281 155.072 491.335 154.746L488.618 154.547C488.626 154.866 488.619 155.189 488.595 155.517C488.299 159.562 485.654 162.667 482.687 162.45L482.411 162.42C479.587 162.016 477.564 158.649 477.851 154.73C477.875 154.402 477.916 154.081 477.97 153.767L461.451 152.557L461.524 151.56L478.192 152.781C479.048 149.735 481.292 147.618 483.76 147.798L484.035 147.828C486.369 148.162 488.154 150.519 488.542 153.539L491.551 153.759C492.374 150.709 494.484 148.584 496.792 148.753ZM496.719 149.75C495.753 149.68 494.725 150.179 493.854 151.272C492.986 152.36 492.349 153.961 492.213 155.819C492.076 157.677 492.473 159.355 493.174 160.558C493.877 161.766 494.821 162.41 495.786 162.481C496.752 162.551 497.78 162.052 498.651 160.959C499.519 159.871 500.156 158.269 500.292 156.411C500.318 156.064 500.323 155.724 500.313 155.392C500.171 155.379 500.011 155.365 499.847 155.351C499.293 155.304 498.752 155.267 498.599 155.274L498.574 154.775L498.549 154.276C498.787 154.264 499.416 154.311 499.932 154.355C500.033 154.363 500.132 154.372 500.227 154.38C500.08 153.343 499.764 152.417 499.331 151.673C498.628 150.465 497.684 149.821 496.719 149.75ZM483.687 148.796C482.598 148.716 481.483 149.237 480.565 150.314C479.648 151.39 478.983 152.97 478.849 154.803C478.714 156.636 479.142 158.296 479.893 159.494C480.644 160.693 481.671 161.372 482.76 161.452C483.849 161.532 484.964 161.01 485.881 159.933C486.799 158.857 487.464 157.277 487.598 155.444C487.732 153.611 487.305 151.951 486.554 150.752C485.803 149.554 484.776 148.876 483.687 148.796Z" fill="#1C2654"/>
<ellipse cx="457.645" cy="156.557" rx="5.71843" ry="7.79785" transform="rotate(-14.8027 457.645 156.557)" fill="#FBAD83"/>
<path d="M134.821 359.516C320.821 312.016 387.321 129.016 440.321 186.516L456.321 276.016C415.921 280.816 377.321 401.016 300.821 410.016C296.421 365.216 188.321 357.683 134.821 359.516Z" fill="url(#paint5_linear_8371_2251)"/>
<path d="M328.624 338.207C342.931 320.782 343.145 319.101 346.082 314.032L359.132 321.477C351.056 331.427 338.288 341.986 347.632 328.091C340.271 333.547 314.43 355.494 328.624 338.207Z" fill="#FBAD83"/>
<path d="M438.459 414.229L450.988 350.914L412.861 338.42L402.937 415.996L292.924 466.698L293.116 469.176L269.36 471.523L275.084 519.454C290.458 517.061 287.689 498.774 291.666 488.989L300.341 488.314L301.354 491.726L411.239 445.772C438.44 436.424 435.609 425.672 438.459 414.229Z" fill="#19192B"/>
<path d="M429.614 351.828L450.988 350.913L453.758 335.237L382.976 310.073C370.703 334.368 369.561 384.429 364.31 419.499L291.501 518.925L297.874 523.915L285.286 541.601L306.463 576.61C318.876 572.054 310.827 552.581 307.803 539.351L312.697 531.739L398.011 429.595L429.614 351.828Z" fill="#303D72"/>
<path d="M508.302 166.451C512.684 170.028 515.791 179.782 514.576 184.152C514.455 192.183 507.1 191.962 503.438 190.848C494.902 184.237 494.464 178.41 495.312 176.323C497.816 171.542 503.92 162.875 508.302 166.451Z" fill="#FBAD83"/>
<path d="M510.54 172.778L500.524 149.65C499.565 147.438 496.985 146.434 494.784 147.418L485.442 151.592C483.204 152.592 482.241 155.249 483.32 157.451L494.354 179.966C495.368 182.035 497.826 182.948 499.945 182.041L508.27 178.48C510.476 177.536 511.494 174.979 510.54 172.778Z" fill="#B37676"/>
<path d="M508.267 172.106L498.807 150.227C497.904 148.139 495.445 147.224 493.397 148.212L487.084 151.259C485.117 152.208 484.275 154.56 485.193 156.542L495.082 177.894C495.992 179.858 498.297 180.742 500.286 179.89L506.17 177.371C508.206 176.499 509.146 174.139 508.267 172.106Z" fill="white"/>
<path d="M499.934 188.904C505.641 190.325 513.731 184.41 515.708 181.847C529.918 208.613 555.811 229.505 561.413 259.436C562.314 264.247 558.383 268.392 553.492 268.203C524.832 267.093 498.86 259.117 482.284 249.837L495.138 212.804C510.166 229.21 518.945 225.787 533.211 247.296L499.934 188.904Z" fill="#50CAD3"/>
<path d="M449.609 188.138L459.982 162.613L474.518 187.6L470.8 196.75C460.203 199.627 452.257 192.208 449.609 188.138Z" fill="#FBAD83"/>
<path d="M459.199 164.54L459.982 162.613L474.518 187.6L471.778 194.342C455.885 187.883 458.025 167.429 459.199 164.54Z" fill="black" fill-opacity="0.11"/>
<path d="M343.821 314.181C377.289 258.424 376.363 236.138 415.56 189.943C417.347 187.837 420.037 186.684 422.795 186.82L449.609 188.14C449.609 188.14 446.182 198.359 456.466 202.539C466.749 206.718 470.8 196.751 470.8 196.751L493.711 211.303C494.735 211.953 495.388 212.996 495.239 214.2C493.402 229.056 469.126 308.961 456.761 335.617C437.503 335.524 400.083 325.413 381.055 308.089C386.403 290.717 393.718 281.158 406.468 239.58C388.738 273.846 374.804 299.577 359.039 324.025C352.83 321.586 348.105 319.367 343.821 314.181Z" fill="#60D6E6"/>
<path d="M343.821 314.181C377.289 258.424 376.364 236.137 415.56 189.943C417.347 187.837 420.037 186.684 422.795 186.82L437.533 187.545L343.821 314.181Z" fill="#50CAD3"/>
<path d="M497.689 170.037C500.148 153.538 497.08 138.023 495.238 132.328L493.873 129.622L469.947 128.912L462.003 145.01L462.811 169.568L475.229 177.775L497.689 170.037Z" fill="#FBAD83"/>
<path d="M480.428 170.858C470.121 176.358 470.096 169.58 468.288 165.799C466.914 162.925 464.359 160.712 461.282 160.175L456.557 155.544L454.403 163.218C457.122 179.739 469.596 187.272 473.217 188.71C476.838 190.148 483.045 192.812 490.239 190.342C497.432 187.872 497.727 169.519 497.727 169.519C495.396 168.132 488.673 166.458 480.428 170.858Z" fill="#D48C68"/>
<path d="M490.977 133.58C472.879 130.17 466.759 135.976 466.659 145.351C467.674 149.2 468.518 157.122 463.778 158.021C459.037 158.92 455.553 161.861 454.404 163.219C450.636 157.73 449.192 132.604 457.1 126.407C467.137 118.542 475.251 118.603 482.891 120.463C484.598 120.879 487.929 120.832 483.95 116.645C486.121 117.073 492.127 118.968 495.565 122.95C502.029 130.436 497.147 134.743 490.977 133.58Z" fill="#7A4029"/>
<path d="M493.048 176.473C491.783 179.508 486.775 183.833 482.678 175.714L493.048 176.473Z" fill="white"/>
<path d="M496.792 148.752C499.574 148.956 501.587 152.417 501.29 156.483C500.992 160.549 498.495 163.681 495.713 163.477L495.455 163.448C492.808 163.056 490.927 159.684 491.215 155.745C491.24 155.405 491.281 155.071 491.335 154.745L488.618 154.546C488.626 154.865 488.619 155.188 488.595 155.516C488.299 159.561 485.654 162.666 482.687 162.449L482.411 162.419C479.587 162.015 477.564 158.648 477.851 154.729C477.875 154.401 477.916 154.08 477.97 153.766L461.451 152.556L461.524 151.559L478.192 152.78C479.048 149.734 481.292 147.617 483.76 147.797L484.035 147.827C486.369 148.161 488.154 150.518 488.542 153.538L491.551 153.758C492.374 150.708 494.484 148.583 496.792 148.752ZM496.719 149.749C495.753 149.679 494.725 150.178 493.854 151.271C492.986 152.359 492.349 153.96 492.213 155.818C492.076 157.676 492.473 159.354 493.174 160.557C493.877 161.765 494.821 162.409 495.786 162.48C496.752 162.55 497.78 162.051 498.651 160.958C499.519 159.87 500.156 158.268 500.292 156.41C500.318 156.063 500.323 155.723 500.313 155.391C500.171 155.378 500.011 155.364 499.847 155.35C499.293 155.303 498.752 155.266 498.599 155.273L498.574 154.774L498.549 154.275C498.787 154.263 499.416 154.31 499.932 154.354C500.033 154.362 500.132 154.371 500.227 154.379C500.08 153.342 499.764 152.416 499.331 151.672C498.628 150.464 497.684 149.82 496.719 149.749ZM483.687 148.795C482.598 148.715 481.483 149.236 480.565 150.313C479.648 151.389 478.983 152.969 478.849 154.802C478.714 156.635 479.142 158.295 479.893 159.493C480.644 160.692 481.671 161.371 482.76 161.451C483.849 161.531 484.964 161.009 485.881 159.932C486.799 158.856 487.464 157.276 487.598 155.443C487.732 153.61 487.305 151.95 486.554 150.752C485.803 149.553 484.776 148.875 483.687 148.795Z" fill="#1C2654"/>
<ellipse cx="457.645" cy="156.556" rx="5.71843" ry="7.79785" transform="rotate(-14.8027 457.645 156.556)" fill="#FBAD83"/>
<path d="M610.362 400.452C615.086 400.452 618.915 404.134 618.915 408.676C618.915 408.87 618.905 409.063 618.892 409.254C620.042 409.473 621.176 409.739 622.29 410.055C623.265 406.544 626.595 403.957 630.554 403.957C635.277 403.957 639.106 407.639 639.106 412.181C639.106 414.312 638.263 416.254 636.879 417.715C637.723 418.41 638.538 419.139 639.323 419.899C640.849 418.54 642.891 417.708 645.136 417.708C649.859 417.708 653.689 421.389 653.689 425.931C653.689 429.296 651.585 432.187 648.573 433.46C649.058 434.619 649.488 435.806 649.866 437.017C650.422 436.908 650.997 436.851 651.586 436.851C656.31 436.851 660.139 440.533 660.139 445.074C660.139 449.616 656.31 453.298 651.586 453.298C651.566 453.298 651.547 453.296 651.527 453.296C651.349 455.123 651.049 456.915 650.639 458.663C653.894 459.826 656.213 462.839 656.213 466.373C656.213 470.915 652.384 474.597 647.66 474.597C646.221 474.597 644.864 474.253 643.674 473.649C642.72 474.933 641.692 476.157 640.597 477.316C641.34 478.535 641.768 479.953 641.768 481.468C641.767 486.009 637.938 489.69 633.214 489.69C630.647 489.69 628.347 488.602 626.779 486.881C625.317 487.491 623.812 488.019 622.27 488.455C622.277 488.595 622.281 488.735 622.281 488.877C622.281 493.419 618.451 497.101 613.728 497.101C609.22 497.101 605.529 493.748 605.2 489.496C603.667 489.26 602.162 488.935 600.69 488.53C599.312 491.293 596.376 493.2 592.976 493.2C588.252 493.2 584.422 489.519 584.422 484.978C584.422 483.404 584.882 481.933 585.68 480.684C584.665 479.841 583.692 478.95 582.765 478.013C581.321 479.082 579.515 479.72 577.552 479.72C572.828 479.72 568.998 476.038 568.998 471.496C568.998 468.27 570.931 465.479 573.744 464.132C573.177 462.675 572.691 461.177 572.291 459.645C571.813 459.724 571.323 459.769 570.821 459.769C566.097 459.769 562.268 456.086 562.268 451.545C562.268 447.003 566.097 443.321 570.821 443.321C571.011 443.321 571.199 443.329 571.386 443.341C571.596 441.881 571.882 440.446 572.242 439.04C569.332 437.728 567.315 434.887 567.315 431.592C567.316 427.05 571.145 423.369 575.869 423.369C577.183 423.369 578.427 423.654 579.539 424.163C580.732 422.628 582.031 421.182 583.427 419.836C582.464 418.506 581.898 416.89 581.898 415.146C581.898 410.605 585.728 406.923 590.451 406.923C593.558 406.923 596.277 408.516 597.775 410.897C599.11 410.418 600.477 410.007 601.872 409.669C601.831 409.343 601.809 409.012 601.809 408.676C601.809 404.134 605.638 400.452 610.362 400.452ZM611.344 423.892C597.637 423.892 586.313 435.128 586.312 449.252C586.312 463.376 597.637 474.612 611.344 474.612C625.05 474.612 636.374 463.376 636.374 449.252C636.374 435.128 625.05 423.892 611.344 423.892Z" fill="#3ABACE"/>
<path d="M607.916 401.063C612.639 401.064 616.468 404.746 616.468 409.287C616.468 409.482 616.459 409.674 616.445 409.865C617.595 410.085 618.729 410.35 619.843 410.666C620.818 407.155 624.148 404.569 628.107 404.569C632.83 404.57 636.659 408.251 636.66 412.792C636.66 414.923 635.816 416.865 634.432 418.326C635.276 419.021 636.091 419.751 636.875 420.512C638.401 419.151 640.444 418.319 642.689 418.319C647.413 418.319 651.242 422.001 651.242 426.543C651.242 429.908 649.138 432.8 646.126 434.072C646.611 435.231 647.042 436.417 647.419 437.628C647.975 437.519 648.55 437.462 649.139 437.462C653.863 437.462 657.692 441.144 657.692 445.686C657.692 450.227 653.863 453.909 649.139 453.909C649.119 453.909 649.099 453.907 649.08 453.907C648.901 455.735 648.602 457.526 648.192 459.274C651.447 460.437 653.766 463.45 653.766 466.984C653.766 471.526 649.937 475.208 645.213 475.208C643.774 475.208 642.417 474.865 641.227 474.261C640.273 475.544 639.245 476.768 638.15 477.928C638.893 479.146 639.321 480.565 639.321 482.079C639.321 486.62 635.491 490.302 630.767 490.302C628.201 490.302 625.9 489.213 624.333 487.492C622.87 488.103 621.366 488.63 619.823 489.066C619.83 489.206 619.833 489.347 619.833 489.488C619.833 494.03 616.005 497.712 611.281 497.712C606.774 497.712 603.083 494.36 602.753 490.107C601.22 489.871 599.715 489.546 598.244 489.142C596.865 491.904 593.929 493.811 590.529 493.812C585.805 493.812 581.975 490.13 581.975 485.589C581.975 484.015 582.435 482.545 583.232 481.295C582.218 480.452 581.245 479.561 580.318 478.624C578.874 479.693 577.067 480.331 575.104 480.331C570.381 480.331 566.552 476.65 566.551 472.108C566.551 468.882 568.484 466.09 571.297 464.743C570.73 463.287 570.245 461.789 569.844 460.256C569.367 460.335 568.876 460.38 568.375 460.38C563.651 460.38 559.821 456.698 559.821 452.156C559.821 447.615 563.651 443.934 568.375 443.934C568.564 443.934 568.752 443.941 568.938 443.953C569.149 442.493 569.435 441.057 569.795 439.651C566.885 438.339 564.869 435.499 564.869 432.204C564.869 427.663 568.698 423.981 573.421 423.98C574.735 423.98 575.979 424.266 577.091 424.774C578.284 423.24 579.585 421.794 580.98 420.447C580.017 419.117 579.452 417.501 579.452 415.758C579.452 411.216 583.281 407.535 588.004 407.535C591.111 407.535 593.83 409.127 595.329 411.509C596.663 411.029 598.03 410.618 599.425 410.28C599.384 409.955 599.362 409.623 599.362 409.287C599.362 404.746 603.192 401.063 607.916 401.063ZM608.897 424.503C595.19 424.503 583.866 435.74 583.866 449.863C583.866 463.987 595.19 475.224 608.897 475.224C622.604 475.223 633.927 463.987 633.927 449.863C633.927 435.74 622.603 424.503 608.897 424.503Z" fill="#96EBF8"/>
<path d="M610.362 400.452C615.086 400.452 618.915 404.134 618.915 408.676C618.915 408.87 618.905 409.063 618.892 409.254C620.042 409.473 621.176 409.739 622.29 410.055C623.265 406.544 626.595 403.957 630.554 403.957C635.277 403.957 639.106 407.639 639.106 412.181C639.106 414.312 638.263 416.254 636.879 417.715C637.723 418.41 638.538 419.139 639.323 419.899C640.849 418.54 642.891 417.708 645.136 417.708C649.859 417.708 653.689 421.389 653.689 425.931C653.689 429.296 651.585 432.187 648.573 433.46C649.058 434.619 649.488 435.806 649.866 437.017C650.422 436.908 650.997 436.851 651.586 436.851C656.31 436.851 660.139 440.533 660.139 445.074C660.139 449.616 656.31 453.298 651.586 453.298C651.566 453.298 651.547 453.296 651.527 453.296C651.349 455.123 651.049 456.915 650.639 458.663C653.894 459.826 656.213 462.839 656.213 466.373C656.213 470.915 652.384 474.597 647.66 474.597C646.221 474.597 644.864 474.253 643.674 473.649C642.72 474.933 641.692 476.157 640.597 477.316C641.34 478.535 641.768 479.953 641.768 481.468C641.767 486.009 637.938 489.69 633.214 489.69C630.647 489.69 628.347 488.602 626.779 486.881C625.317 487.491 623.812 488.019 622.27 488.455C622.277 488.595 622.281 488.735 622.281 488.877C622.281 493.419 618.451 497.101 613.728 497.101C609.22 497.101 605.529 493.748 605.2 489.496C603.667 489.26 602.162 488.935 600.69 488.53C599.312 491.293 596.376 493.2 592.976 493.2C588.252 493.2 584.422 489.519 584.422 484.978C584.422 483.404 584.882 481.933 585.68 480.684C584.665 479.841 583.692 478.95 582.765 478.013C581.321 479.082 579.515 479.72 577.552 479.72C572.828 479.72 568.998 476.038 568.998 471.496C568.998 468.27 570.931 465.479 573.744 464.132C573.177 462.675 572.691 461.177 572.291 459.645C571.813 459.724 571.323 459.769 570.821 459.769C566.097 459.769 562.268 456.086 562.268 451.545C562.268 447.003 566.097 443.321 570.821 443.321C571.011 443.321 571.199 443.329 571.386 443.341C571.596 441.881 571.882 440.446 572.242 439.04C569.332 437.728 567.315 434.887 567.315 431.592C567.316 427.05 571.145 423.369 575.869 423.369C577.183 423.369 578.427 423.654 579.539 424.163C580.732 422.628 582.031 421.182 583.427 419.836C582.464 418.506 581.898 416.89 581.898 415.146C581.898 410.605 585.728 406.923 590.451 406.923C593.558 406.923 596.277 408.516 597.775 410.897C599.11 410.418 600.477 410.007 601.872 409.669C601.831 409.343 601.809 409.012 601.809 408.676C601.809 404.134 605.638 400.452 610.362 400.452ZM611.344 423.892C597.637 423.892 586.313 435.128 586.312 449.252C586.312 463.376 597.637 474.612 611.344 474.612C625.05 474.612 636.374 463.376 636.374 449.252C636.374 435.128 625.05 423.892 611.344 423.892Z" fill="#3ABACE"/>
<path d="M607.916 401.063C612.639 401.064 616.468 404.746 616.468 409.287C616.468 409.482 616.459 409.674 616.445 409.865C617.595 410.085 618.729 410.35 619.843 410.666C620.818 407.155 624.148 404.569 628.107 404.569C632.83 404.57 636.659 408.251 636.66 412.792C636.66 414.923 635.816 416.865 634.432 418.326C635.276 419.021 636.091 419.751 636.875 420.512C638.401 419.151 640.444 418.319 642.689 418.319C647.413 418.319 651.242 422.001 651.242 426.543C651.242 429.908 649.138 432.8 646.126 434.072C646.611 435.231 647.042 436.417 647.419 437.628C647.975 437.519 648.55 437.462 649.139 437.462C653.863 437.462 657.692 441.144 657.692 445.686C657.692 450.227 653.863 453.909 649.139 453.909C649.119 453.909 649.099 453.907 649.08 453.907C648.901 455.735 648.602 457.526 648.192 459.274C651.447 460.437 653.766 463.45 653.766 466.984C653.766 471.526 649.937 475.208 645.213 475.208C643.774 475.208 642.417 474.865 641.227 474.261C640.273 475.544 639.245 476.768 638.15 477.928C638.893 479.146 639.321 480.565 639.321 482.079C639.321 486.62 635.491 490.302 630.767 490.302C628.201 490.302 625.9 489.213 624.333 487.492C622.87 488.103 621.366 488.63 619.823 489.066C619.83 489.206 619.833 489.347 619.833 489.488C619.833 494.03 616.005 497.712 611.281 497.712C606.774 497.712 603.083 494.36 602.753 490.107C601.22 489.871 599.715 489.546 598.244 489.142C596.865 491.904 593.929 493.811 590.529 493.812C585.805 493.812 581.975 490.13 581.975 485.589C581.975 484.015 582.435 482.545 583.232 481.295C582.218 480.452 581.245 479.561 580.318 478.624C578.874 479.693 577.067 480.331 575.104 480.331C570.381 480.331 566.552 476.65 566.551 472.108C566.551 468.882 568.484 466.09 571.297 464.743C570.73 463.287 570.245 461.789 569.844 460.256C569.367 460.335 568.876 460.38 568.375 460.38C563.651 460.38 559.821 456.698 559.821 452.156C559.821 447.615 563.651 443.934 568.375 443.934C568.564 443.934 568.752 443.941 568.938 443.953C569.149 442.493 569.435 441.057 569.795 439.651C566.885 438.339 564.869 435.499 564.869 432.204C564.869 427.663 568.698 423.981 573.421 423.98C574.735 423.98 575.979 424.266 577.091 424.774C578.284 423.24 579.585 421.794 580.98 420.447C580.017 419.117 579.452 417.501 579.452 415.758C579.452 411.216 583.281 407.535 588.004 407.535C591.111 407.535 593.83 409.127 595.329 411.509C596.663 411.029 598.03 410.618 599.425 410.28C599.384 409.955 599.362 409.623 599.362 409.287C599.362 404.746 603.192 401.063 607.916 401.063ZM608.897 424.503C595.19 424.503 583.866 435.74 583.866 449.863C583.866 463.987 595.19 475.224 608.897 475.224C622.604 475.223 633.927 463.987 633.927 449.863C633.927 435.74 622.603 424.503 608.897 424.503Z" fill="#96EBF8"/>
<path d="M610.362 400.452C615.086 400.452 618.915 404.134 618.915 408.676C618.915 408.87 618.905 409.063 618.892 409.254C620.042 409.473 621.176 409.739 622.29 410.055C623.265 406.544 626.595 403.957 630.554 403.957C635.277 403.957 639.106 407.639 639.106 412.181C639.106 414.312 638.263 416.254 636.879 417.715C637.723 418.41 638.538 419.139 639.323 419.899C640.849 418.54 642.891 417.708 645.136 417.708C649.859 417.708 653.689 421.389 653.689 425.931C653.689 429.296 651.585 432.187 648.573 433.46C649.058 434.619 649.488 435.806 649.866 437.017C650.422 436.908 650.997 436.851 651.586 436.851C656.31 436.851 660.139 440.533 660.139 445.074C660.139 449.616 656.31 453.298 651.586 453.298C651.566 453.298 651.547 453.296 651.527 453.296C651.349 455.123 651.049 456.915 650.639 458.663C653.894 459.826 656.213 462.839 656.213 466.373C656.213 470.915 652.384 474.597 647.66 474.597C646.221 474.597 644.864 474.253 643.674 473.649C642.72 474.933 641.692 476.157 640.597 477.316C641.34 478.535 641.768 479.953 641.768 481.468C641.767 486.009 637.938 489.69 633.214 489.69C630.647 489.69 628.347 488.602 626.779 486.881C625.317 487.491 623.812 488.019 622.27 488.455C622.277 488.595 622.281 488.735 622.281 488.877C622.281 493.419 618.451 497.101 613.728 497.101C609.22 497.101 605.529 493.748 605.2 489.496C603.667 489.26 602.162 488.935 600.69 488.53C599.312 491.293 596.376 493.2 592.976 493.2C588.252 493.2 584.422 489.519 584.422 484.978C584.422 483.404 584.882 481.933 585.68 480.684C584.665 479.841 583.692 478.95 582.765 478.013C581.321 479.082 579.515 479.72 577.552 479.72C572.828 479.72 568.998 476.038 568.998 471.496C568.998 468.27 570.931 465.479 573.744 464.132C573.177 462.675 572.691 461.177 572.291 459.645C571.813 459.724 571.323 459.769 570.821 459.769C566.097 459.769 562.268 456.086 562.268 451.545C562.268 447.003 566.097 443.321 570.821 443.321C571.011 443.321 571.199 443.329 571.386 443.341C571.596 441.881 571.882 440.446 572.242 439.04C569.332 437.728 567.315 434.887 567.315 431.592C567.316 427.05 571.145 423.369 575.869 423.369C577.183 423.369 578.427 423.654 579.539 424.163C580.732 422.628 582.031 421.182 583.427 419.836C582.464 418.506 581.898 416.89 581.898 415.146C581.898 410.605 585.728 406.923 590.451 406.923C593.558 406.923 596.277 408.516 597.775 410.897C599.11 410.418 600.477 410.007 601.872 409.669C601.831 409.343 601.809 409.012 601.809 408.676C601.809 404.134 605.638 400.452 610.362 400.452ZM611.344 423.892C597.637 423.892 586.313 435.128 586.312 449.252C586.312 463.376 597.637 474.612 611.344 474.612C625.05 474.612 636.374 463.376 636.374 449.252C636.374 435.128 625.05 423.892 611.344 423.892Z" fill="#3ABACE"/>
<path d="M607.916 401.063C612.639 401.064 616.468 404.746 616.468 409.287C616.468 409.482 616.459 409.674 616.445 409.865C617.595 410.085 618.729 410.35 619.843 410.666C620.818 407.155 624.148 404.569 628.107 404.569C632.83 404.57 636.659 408.251 636.66 412.792C636.66 414.923 635.816 416.865 634.432 418.326C635.276 419.021 636.091 419.751 636.875 420.512C638.401 419.151 640.444 418.319 642.689 418.319C647.413 418.319 651.242 422.001 651.242 426.543C651.242 429.908 649.138 432.8 646.126 434.072C646.611 435.231 647.042 436.417 647.419 437.628C647.975 437.519 648.55 437.462 649.139 437.462C653.863 437.462 657.692 441.144 657.692 445.686C657.692 450.227 653.863 453.909 649.139 453.909C649.119 453.909 649.099 453.907 649.08 453.907C648.901 455.735 648.602 457.526 648.192 459.274C651.447 460.437 653.766 463.45 653.766 466.984C653.766 471.526 649.937 475.208 645.213 475.208C643.774 475.208 642.417 474.865 641.227 474.261C640.273 475.544 639.245 476.768 638.15 477.928C638.893 479.146 639.321 480.565 639.321 482.079C639.321 486.62 635.491 490.302 630.767 490.302C628.201 490.302 625.9 489.213 624.333 487.492C622.87 488.103 621.366 488.63 619.823 489.066C619.83 489.206 619.833 489.347 619.833 489.488C619.833 494.03 616.005 497.712 611.281 497.712C606.774 497.712 603.083 494.36 602.753 490.107C601.22 489.871 599.715 489.546 598.244 489.142C596.865 491.904 593.929 493.811 590.529 493.812C585.805 493.812 581.975 490.13 581.975 485.589C581.975 484.015 582.435 482.545 583.232 481.295C582.218 480.452 581.245 479.561 580.318 478.624C578.874 479.693 577.067 480.331 575.104 480.331C570.381 480.331 566.552 476.65 566.551 472.108C566.551 468.882 568.484 466.09 571.297 464.743C570.73 463.287 570.245 461.789 569.844 460.256C569.367 460.335 568.876 460.38 568.375 460.38C563.651 460.38 559.821 456.698 559.821 452.156C559.821 447.615 563.651 443.934 568.375 443.934C568.564 443.934 568.752 443.941 568.938 443.953C569.149 442.493 569.435 441.057 569.795 439.651C566.885 438.339 564.869 435.499 564.869 432.204C564.869 427.663 568.698 423.981 573.421 423.98C574.735 423.98 575.979 424.266 577.091 424.774C578.284 423.24 579.585 421.794 580.98 420.447C580.017 419.117 579.452 417.501 579.452 415.758C579.452 411.216 583.281 407.535 588.004 407.535C591.111 407.535 593.83 409.127 595.329 411.509C596.663 411.029 598.03 410.618 599.425 410.28C599.384 409.955 599.362 409.623 599.362 409.287C599.362 404.746 603.192 401.063 607.916 401.063ZM608.897 424.503C595.19 424.503 583.866 435.74 583.866 449.863C583.866 463.987 595.19 475.224 608.897 475.224C622.604 475.223 633.927 463.987 633.927 449.863C633.927 435.74 622.603 424.503 608.897 424.503Z" fill="#96EBF8"/>
<path d="M567.869 123.452C567.869 120.691 570.107 118.452 572.869 118.452H618.424C621.186 118.452 623.424 120.691 623.424 123.452V151.408C623.424 154.17 621.186 156.408 618.424 156.408H548.821L567.869 149.555V123.452Z" fill="#01B850"/>
<path d="M588.085 138.897L594.484 145.938L603.791 128.923" stroke="white" stroke-width="3" stroke-linecap="round" stroke-linejoin="round"/>
<path d="M567.869 123.452C567.869 120.691 570.107 118.452 572.869 118.452H584.633L598.174 156.408H548.821L567.869 149.555V123.452Z" fill="black" fill-opacity="0.11"/>
<path d="M567.869 123.452C567.869 120.691 570.107 118.452 572.869 118.452H618.424C621.186 118.452 623.424 120.691 623.424 123.452V151.408C623.424 154.17 621.186 156.408 618.424 156.408H548.821L567.869 149.555V123.452Z" fill="#01B850"/>
<path d="M588.085 138.897L594.484 145.938L603.791 128.923" stroke="white" stroke-width="3" stroke-linecap="round" stroke-linejoin="round"/>
<path d="M567.869 123.452C567.869 120.691 570.107 118.452 572.869 118.452H584.633L598.174 156.408H548.821L567.869 149.555V123.452Z" fill="black" fill-opacity="0.11"/>
<path d="M567.869 123.452C567.869 120.691 570.107 118.452 572.869 118.452H618.424C621.186 118.452 623.424 120.691 623.424 123.452V151.408C623.424 154.17 621.186 156.408 618.424 156.408H548.821L567.869 149.555V123.452Z" fill="#01B850"/>
<path d="M588.085 138.897L594.484 145.938L603.791 128.923" stroke="white" stroke-width="3" stroke-linecap="round" stroke-linejoin="round"/>
<path d="M567.869 123.452C567.869 120.691 570.107 118.452 572.869 118.452H584.633L598.174 156.408H548.821L567.869 149.555V123.452Z" fill="black" fill-opacity="0.11"/>
<path d="M506.044 270.663C505.589 267.939 507.427 265.362 510.151 264.907L525.891 262.276C528.614 261.82 531.191 263.659 531.647 266.383L533.696 278.642C534.151 281.365 532.312 283.942 529.589 284.398L500.139 289.32L508.25 283.859L506.044 270.663Z" fill="#BFCAF7"/>
<path d="M506.044 270.663C505.589 267.939 507.427 265.362 510.151 264.907L512.945 264.44L522.884 285.518L500.139 289.32L508.25 283.859L506.044 270.663Z" fill="black" fill-opacity="0.11"/>
<path d="M506.044 270.663C505.589 267.939 507.427 265.362 510.151 264.907L525.891 262.276C528.614 261.82 531.191 263.659 531.647 266.383L533.696 278.642C534.151 281.365 532.312 283.942 529.589 284.398L500.139 289.32L508.25 283.859L506.044 270.663Z" fill="#BFCAF7"/>
<path d="M506.044 270.663C505.589 267.939 507.427 265.362 510.151 264.907L512.945 264.44L522.884 285.518L500.139 289.32L508.25 283.859L506.044 270.663Z" fill="black" fill-opacity="0.11"/>
<path d="M506.044 270.663C505.589 267.939 507.427 265.362 510.151 264.907L525.891 262.276C528.614 261.82 531.191 263.659 531.647 266.383L533.696 278.642C534.151 281.365 532.312 283.942 529.589 284.398L500.139 289.32L508.25 283.859L506.044 270.663Z" fill="#BFCAF7"/>
<path d="M506.044 270.663C505.589 267.939 507.427 265.362 510.151 264.907L512.945 264.44L522.884 285.518L500.139 289.32L508.25 283.859L506.044 270.663Z" fill="black" fill-opacity="0.11"/>
<path d="M133.349 220.546C133.241 220.56 133.133 220.56 132.997 220.452C131.946 220.696 130.89 220.916 129.843 221.192C128.538 221.543 127.529 222.329 126.721 223.401C125.693 224.783 125.013 226.327 124.468 227.943C123.863 229.731 123.661 231.547 123.952 233.434C124.205 235.1 124.769 236.659 125.341 238.232C126.285 240.84 127.327 243.396 128.787 245.77C131.026 249.426 133.795 252.637 136.898 255.582C139.348 257.899 141.995 259.973 144.906 261.691C148.112 263.578 151.595 264.823 155.129 265.909C156.96 266.48 158.865 266.635 160.776 266.209C162.879 265.741 164.855 264.978 166.625 263.742C167.263 263.288 167.897 262.726 168.343 262.084C169.408 260.54 169.713 258.742 169.816 256.911C169.854 256.261 169.633 255.788 169.084 255.465C168.066 254.856 167.056 254.22 166.019 253.625C164.085 252.516 162.039 251.593 160.208 250.287C160.039 250.165 159.832 250.081 159.64 249.988C158.95 249.641 158.293 249.697 157.692 250.203C157.396 250.446 157.091 250.699 156.838 250.985C155.782 252.169 154.758 253.363 153.697 254.538C152.557 255.807 151.984 255.947 150.515 255.118C148.957 254.238 147.412 253.316 145.929 252.31C142.08 249.711 139.034 246.341 136.649 242.375C136.006 241.303 135.424 240.208 134.837 239.113C134.457 238.396 134.602 237.717 135.166 237.174C135.889 236.482 136.658 235.831 137.4 235.152C138.287 234.342 139.207 233.551 140.043 232.699C140.629 232.104 140.648 231.355 140.254 230.611C140.061 230.283 139.864 229.946 139.658 229.618C139.433 229.272 139.165 228.944 138.972 228.584C138.221 227.24 137.517 225.873 136.752 224.544C136.09 223.392 135.391 222.269 134.696 221.145C134.386 220.635 133.908 220.499 133.349 220.546Z" fill="#4E5FA4"/>
<path d="M133.349 220.546C133.241 220.56 133.133 220.56 132.997 220.452C131.946 220.696 130.89 220.916 129.843 221.192C128.538 221.543 127.529 222.329 126.721 223.401C125.693 224.783 125.013 226.327 124.468 227.943C123.863 229.731 123.661 231.547 123.952 233.434C124.205 235.1 124.769 236.659 125.341 238.232C126.285 240.84 127.327 243.396 128.787 245.77C131.026 249.426 133.795 252.637 136.898 255.582C139.348 257.899 141.995 259.973 144.906 261.691C148.112 263.578 151.595 264.823 155.129 265.909C156.96 266.48 158.865 266.635 160.776 266.209C162.879 265.741 164.855 264.978 166.625 263.742C167.263 263.288 167.897 262.726 168.343 262.084C169.408 260.54 169.713 258.742 169.816 256.911C169.854 256.261 169.633 255.788 169.084 255.465C168.066 254.856 167.056 254.22 166.019 253.625C164.085 252.516 162.039 251.593 160.208 250.287C160.039 250.165 159.832 250.081 159.64 249.988C158.95 249.641 158.293 249.697 157.692 250.203C157.396 250.446 157.091 250.699 156.838 250.985C155.782 252.169 154.758 253.363 153.697 254.538C152.557 255.807 151.984 255.947 150.515 255.118C148.957 254.238 147.412 253.316 145.929 252.31C142.08 249.711 139.034 246.341 136.649 242.375C136.006 241.303 135.424 240.208 134.837 239.113C134.457 238.396 134.602 237.717 135.166 237.174C135.889 236.482 136.658 235.831 137.4 235.152C138.287 234.342 139.207 233.551 140.043 232.699C140.629 232.104 140.648 231.355 140.254 230.611C140.061 230.283 139.864 229.946 139.658 229.618C139.433 229.272 139.165 228.944 138.972 228.584C138.221 227.24 137.517 225.873 136.752 224.544C136.09 223.392 135.391 222.269 134.696 221.145C134.386 220.635 133.908 220.499 133.349 220.546Z" fill="#4E5FA4"/>
<path d="M133.349 220.546C133.241 220.56 133.133 220.56 132.997 220.452C131.946 220.696 130.89 220.916 129.843 221.192C128.538 221.543 127.529 222.329 126.721 223.401C125.693 224.783 125.013 226.327 124.468 227.943C123.863 229.731 123.661 231.547 123.952 233.434C124.205 235.1 124.769 236.659 125.341 238.232C126.285 240.84 127.327 243.396 128.787 245.77C131.026 249.426 133.795 252.637 136.898 255.582C139.348 257.899 141.995 259.973 144.906 261.691C148.112 263.578 151.595 264.823 155.129 265.909C156.96 266.48 158.865 266.635 160.776 266.209C162.879 265.741 164.855 264.978 166.625 263.742C167.263 263.288 167.897 262.726 168.343 262.084C169.408 260.54 169.713 258.742 169.816 256.911C169.854 256.261 169.633 255.788 169.084 255.465C168.066 254.856 167.056 254.22 166.019 253.625C164.085 252.516 162.039 251.593 160.208 250.287C160.039 250.165 159.832 250.081 159.64 249.988C158.95 249.641 158.293 249.697 157.692 250.203C157.396 250.446 157.091 250.699 156.838 250.985C155.782 252.169 154.758 253.363 153.697 254.538C152.557 255.807 151.984 255.947 150.515 255.118C148.957 254.238 147.412 253.316 145.929 252.31C142.08 249.711 139.034 246.341 136.649 242.375C136.006 241.303 135.424 240.208 134.837 239.113C134.457 238.396 134.602 237.717 135.166 237.174C135.889 236.482 136.658 235.831 137.4 235.152C138.287 234.342 139.207 233.551 140.043 232.699C140.629 232.104 140.648 231.355 140.254 230.611C140.061 230.283 139.864 229.946 139.658 229.618C139.433 229.272 139.165 228.944 138.972 228.584C138.221 227.24 137.517 225.873 136.752 224.544C136.09 223.392 135.391 222.269 134.696 221.145C134.386 220.635 133.908 220.499 133.349 220.546Z" fill="#4E5FA4"/>
<path d="M231.435 223.18C231.435 223.18 231.594 204.924 239.91 203.205C249.179 201.288 248.965 219.554 258.233 217.637C266.779 215.869 259.17 199.221 267.716 197.453C276.178 195.703 276.569 213.844 285.233 212.052C293.168 210.411 291.894 192.452 291.894 192.452" stroke="#BFCAF7" stroke-width="3"/>
<path d="M231.435 223.18C231.435 223.18 231.594 204.924 239.91 203.205C249.179 201.288 248.965 219.554 258.233 217.637C266.779 215.869 259.17 199.221 267.716 197.453C276.178 195.703 276.569 213.844 285.233 212.052C293.168 210.411 291.894 192.452 291.894 192.452" stroke="#BFCAF7" stroke-width="3"/>
<path d="M231.435 223.18C231.435 223.18 231.594 204.924 239.91 203.205C249.179 201.288 248.965 219.554 258.233 217.637C266.779 215.869 259.17 199.221 267.716 197.453C276.178 195.703 276.569 213.844 285.233 212.052C293.168 210.411 291.894 192.452 291.894 192.452" stroke="#BFCAF7" stroke-width="3"/>
</g>
<defs>
<linearGradient id="paint0_linear_8371_2251" x1="22.3208" y1="212.453" x2="1048.82" y2="618.953" gradientUnits="userSpaceOnUse">
<stop stop-color="#ECEFFF"/>
<stop offset="1" stop-color="white"/>
</linearGradient>
<linearGradient id="paint1_linear_8371_2251" x1="22.3208" y1="212.453" x2="1048.82" y2="618.953" gradientUnits="userSpaceOnUse">
<stop stop-color="#ECEFFF"/>
<stop offset="1" stop-color="white"/>
</linearGradient>
<linearGradient id="paint2_linear_8371_2251" x1="22.3208" y1="212.453" x2="1048.82" y2="618.953" gradientUnits="userSpaceOnUse">
<stop stop-color="#ECEFFF"/>
<stop offset="1" stop-color="white"/>
</linearGradient>
<linearGradient id="paint3_linear_8371_2251" x1="295.57" y1="175.452" x2="295.57" y2="410.017" gradientUnits="userSpaceOnUse">
<stop stop-color="#7F50FF"/>
<stop offset="1" stop-color="#60D6E6"/>
</linearGradient>
<linearGradient id="paint4_linear_8371_2251" x1="295.571" y1="175.453" x2="295.571" y2="410.018" gradientUnits="userSpaceOnUse">
<stop stop-color="#7F50FF"/>
<stop offset="1" stop-color="#60D6E6"/>
</linearGradient>
<linearGradient id="paint5_linear_8371_2251" x1="295.571" y1="175.451" x2="295.571" y2="410.016" gradientUnits="userSpaceOnUse">
<stop stop-color="#7F50FF"/>
<stop offset="1" stop-color="#60D6E6"/>
</linearGradient>
<clipPath id="clip0_8371_2251">
<rect width="782" height="635" fill="white"/>
</clipPath>
</defs>
</svg>
