<svg width="877" height="229" viewBox="0 0 877 229" fill="none" xmlns="http://www.w3.org/2000/svg">
<path d="M342.403 79.2372C349.311 85.9539 352.766 94.2538 352.766 104.137C352.766 114.02 349.311 122.32 342.403 129.037C335.59 135.657 327.05 138.968 316.784 138.968H304.981V171.352H282.097V69.1622H316.784C327.05 69.1622 335.59 72.5205 342.403 79.2372ZM330.601 104.137C330.601 100.299 329.257 97.1324 326.571 94.6376C323.98 92.0469 320.622 90.7515 316.496 90.7515H304.981V117.522H316.496C320.526 117.522 323.884 116.227 326.571 113.636C329.257 111.045 330.601 107.879 330.601 104.137Z" fill="#0E1740"/>
<path d="M415.774 173.079C400.134 173.079 387.228 167.993 377.057 157.822C366.886 147.651 361.801 135.13 361.801 120.257C361.801 105.384 366.886 92.8625 377.057 82.6915C387.228 72.5205 400.038 67.4351 415.486 67.4351C426.137 67.4351 435.924 70.3136 444.848 76.0708C453.771 81.8279 460.008 89.6001 463.558 99.3873H437.219C432.134 92.8625 424.889 89.6001 415.486 89.6001C406.275 89.6001 398.838 92.5267 393.177 98.3798C387.612 104.233 384.829 111.525 384.829 120.257C384.829 128.989 387.66 136.281 393.321 142.134C398.982 147.987 406.467 150.914 415.774 150.914C430.839 150.914 439.666 144.245 442.257 130.908H412.895V109.462H466.005C467.253 119.921 466.773 129.324 464.566 137.672C462.455 145.924 459.001 152.593 454.203 157.678C449.501 162.668 443.888 166.506 437.363 169.193C430.839 171.783 423.642 173.079 415.774 173.079Z" fill="#0E1740"/>
<path d="M482.81 171.352V69.1622H505.695V149.474H548.01V171.352H482.81Z" fill="#0E1740"/>
<path d="M592.77 172.935C581.64 172.935 572.476 169.385 565.28 162.284C558.18 155.184 554.629 146.164 554.629 135.226C554.629 124.479 558.228 115.555 565.424 108.455C572.716 101.354 581.832 97.804 592.77 97.804C598.048 97.804 602.989 98.7156 607.595 100.539C612.297 102.362 616.423 105 619.973 108.455C623.619 111.909 626.45 116.371 628.465 121.84C630.48 127.309 631.391 133.498 631.199 140.407H575.787C576.171 144.341 577.898 147.651 580.968 150.338C584.039 152.929 588.357 154.224 593.922 154.224C597.088 154.224 599.967 153.6 602.558 152.353C605.148 151.01 606.875 149.379 607.739 147.459H630.48C628.177 155.04 623.571 161.181 616.663 165.882C609.754 170.584 601.79 172.935 592.77 172.935ZM592.195 115.075C588.069 115.075 584.614 116.131 581.832 118.242C579.145 120.353 577.322 123.136 576.363 126.59H607.163C606.108 122.656 604.141 119.777 601.262 117.954C598.48 116.035 595.457 115.075 592.195 115.075Z" fill="#0E1740"/>
<path d="M644.686 171.352V99.3873H666.419V106.728C670.545 100.779 677.214 97.804 686.425 97.804C695.157 97.804 701.97 100.731 706.863 106.584C711.853 112.437 714.348 120.161 714.348 129.756V171.352H692.614V133.498C692.614 122.848 688.728 117.522 680.956 117.522C676.638 117.522 673.136 119.106 670.449 122.272C667.763 125.438 666.419 130.14 666.419 136.377V171.352H644.686Z" fill="#0E1740"/>
<path d="M760.342 172.935C750.747 172.935 742.831 170.584 736.594 165.882C730.453 161.085 727.19 155.088 726.806 147.891H749.691C749.883 150.674 751.034 152.833 753.145 154.368C755.256 155.807 757.895 156.527 761.061 156.527C766.435 156.527 769.121 154.992 769.121 151.921C769.121 150.386 768.498 149.235 767.25 148.467C766.099 147.603 763.988 146.74 760.918 145.876L746.381 142.134C734.291 138.968 728.246 131.435 728.246 119.537C728.246 113.108 730.932 107.879 736.306 103.849C741.679 99.819 749.019 97.804 758.327 97.804C766.579 97.804 773.439 99.867 778.909 103.993C784.474 108.023 787.544 113.732 788.12 121.121H766.243C765.379 116.707 762.597 114.5 757.895 114.5C753.001 114.5 750.555 116.035 750.555 119.106C750.555 121.792 753.001 123.663 757.895 124.719L770.993 128.173C778.189 130.092 783.37 132.875 786.537 136.521C789.703 140.167 791.287 144.917 791.287 150.77C791.287 157.391 788.408 162.764 782.651 166.89C776.894 170.92 769.457 172.935 760.342 172.935Z" fill="#0E1740"/>
<path d="M838.461 172.935C827.331 172.935 818.167 169.385 810.971 162.284C803.87 155.184 800.32 146.164 800.32 135.226C800.32 124.479 803.919 115.555 811.115 108.455C818.407 101.354 827.523 97.804 838.461 97.804C843.739 97.804 848.68 98.7156 853.286 100.539C857.988 102.362 862.114 105 865.664 108.455C869.31 111.909 872.141 116.371 874.156 121.84C876.171 127.309 877.082 133.498 876.89 140.407H821.478C821.862 144.341 823.589 147.651 826.659 150.338C829.73 152.929 834.048 154.224 839.613 154.224C842.779 154.224 845.658 153.6 848.249 152.353C850.839 151.01 852.566 149.379 853.43 147.459H876.171C873.868 155.04 869.262 161.181 862.354 165.882C855.445 170.584 847.481 172.935 838.461 172.935ZM837.886 115.075C833.76 115.075 830.305 116.131 827.523 118.242C824.836 120.353 823.013 123.136 822.054 126.59H852.854C851.799 122.656 849.832 119.777 846.953 117.954C844.171 116.035 841.148 115.075 837.886 115.075Z" fill="#0E1740"/>
<path d="M152.208 72.9062L114 116.573L124.27 125.694L154.722 90.8612L176.196 104.866L222.52 29.1679L226.614 29.958L232 0.942749L207.797 18.8977L210.526 22.5605L171.887 85.6902L152.208 72.9062Z" fill="#D30700"/>
<path d="M209.749 105.388C213.905 129.473 209.583 154.255 197.516 175.51C185.45 196.765 166.387 213.179 143.576 221.955C120.765 230.731 95.6162 231.325 72.4154 223.638C49.2147 215.95 29.3972 200.456 16.3398 179.795C3.28229 159.134 -2.2073 134.585 0.806331 110.33C3.81997 86.0751 15.1504 63.6156 32.867 46.7783C50.5836 29.9409 73.5902 19.7675 97.9668 17.9914C122.343 16.2152 146.582 22.9463 166.552 37.0377L152.652 56.7365C137.239 45.861 118.532 40.666 99.7188 42.0368C80.9053 43.4076 63.149 51.2594 49.4756 64.2542C35.8021 77.2491 27.0575 94.583 24.7316 113.302C22.4057 132.022 26.6425 150.969 36.7201 166.915C46.7977 182.861 62.0925 194.819 79.9986 200.752C97.9046 206.685 117.314 206.226 134.92 199.453C152.525 192.68 167.238 180.012 176.55 163.608C185.862 147.203 189.199 128.077 185.991 109.489L209.749 105.388Z" fill="#60D6E6"/>
<path d="M175.211 111.35C177.989 127.444 175.1 144.004 167.037 158.208C158.974 172.411 146.236 183.38 130.992 189.244C115.749 195.108 98.9434 195.506 83.4397 190.369C67.936 185.231 54.6932 174.878 45.9677 161.071C37.2422 147.265 33.5738 130.86 35.5877 114.652C37.6015 98.4437 45.1729 83.4354 57.0119 72.1841C68.8508 60.9327 84.2248 54.1344 100.514 52.9475C116.804 51.7606 133.001 56.2586 146.346 65.675L132.111 85.8476C123.433 79.7244 112.901 76.7995 102.308 77.5713C91.7158 78.3431 81.7185 82.7638 74.0199 90.0803C66.3214 97.3968 61.3979 107.156 60.0883 117.696C58.7788 128.236 61.1642 138.903 66.8382 147.881C72.5122 156.859 81.1236 163.592 91.2053 166.933C101.287 170.273 112.215 170.015 122.127 166.201C132.04 162.388 140.323 155.255 145.566 146.019C150.81 136.783 152.688 126.015 150.882 115.549L175.211 111.35Z" fill="#CACACA"/>
<path d="M133.498 123.356C133.498 138.739 121.028 151.209 105.644 151.209C90.2614 151.209 77.791 138.739 77.791 123.356C77.791 107.973 90.2614 95.5024 105.644 95.5024C121.028 95.5024 133.498 107.973 133.498 123.356Z" fill="#0E1740"/>
</svg>
